Manjari-Thin.ufo
<glyph name="exclam" format="2">
	<unicode hex="0021"/>
	<advance width="281"/>
	<outline>
		<contour>
			<point x="201" y="49" type="curve" smooth="yes"/>
			<point x="201" y="16"/>
			<point x="174" y="-12"/>
			<point x="141" y="-12" type="curve" smooth="yes"/>
			<point x="108" y="-12"/>
			<point x="80" y="16"/>
			<point x="80" y="49" type="curve" smooth="yes"/>
			<point x="80" y="82"/>
			<point x="108" y="109"/>
			<point x="141" y="109" type="curve" smooth="yes"/>
			<point x="174" y="109"/>
			<point x="201" y="82"/>
		</contour>
		<contour>
			<point x="133" y="1134" type="curve" smooth="yes"/>
			<point x="154" y="1134"/>
			<point x="188" y="1120"/>
			<point x="188" y="1099" type="curve"/>
			<point x="173" y="267" type="line"/>
			<point x="173" y="246"/>
			<point x="154" y="230"/>
			<point x="133" y="230" type="curve" smooth="yes"/>
			<point x="112" y="230"/>
			<point x="95" y="246"/>
			<point x="95" y="267" type="curve" smooth="yes"/>
			<point x="95" y="268" type="line"/>
			<point x="80" y="1099" type="line" smooth="yes"/>
			<point x="80" y="1120"/>
			<point x="112" y="1134"/>
		</contour>
	</outline>
</glyph>
<glyph name="numbersign" format="2">
  <advance width="1262"/>
  <unicode hex="0023"/>
  <outline>
    <contour>
      <point x="621.0" y="1374.0" type="line" smooth="yes"/>
      <point x="641.0" y="1373.0"/>
      <point x="657.0" y="1357.0"/>
      <point x="657.0" y="1337.0" type="curve" smooth="yes"/>
      <point x="657.0" y="1334.0"/>
      <point x="657.0" y="1329.0"/>
      <point x="656.0" y="1326.0" type="curve"/>
      <point x="580.0" y="1036.0" type="line"/>
      <point x="954.0" y="1036.0" type="line"/>
      <point x="1035.0" y="1346.0" type="line" smooth="yes"/>
      <point x="1039.0" y="1362.0"/>
      <point x="1056.0" y="1374.0"/>
      <point x="1072.0" y="1374.0" type="curve" smooth="yes"/>
      <point x="1073.0" y="1374.0" type="line" smooth="yes"/>
      <point x="1093.0" y="1373.0"/>
      <point x="1109.0" y="1357.0"/>
      <point x="1109.0" y="1337.0" type="curve" smooth="yes"/>
      <point x="1109.0" y="1334.0"/>
      <point x="1109.0" y="1329.0"/>
      <point x="1108.0" y="1326.0" type="curve"/>
      <point x="1032.0" y="1036.0" type="line"/>
      <point x="1255.0" y="1036.0" type="line" smooth="yes"/>
      <point x="1276.0" y="1036.0"/>
      <point x="1293.0" y="1020.0"/>
      <point x="1293.0" y="999.0" type="curve" smooth="yes"/>
      <point x="1293.0" y="978.0"/>
      <point x="1276.0" y="961.0"/>
      <point x="1255.0" y="961.0" type="curve" smooth="yes"/>
      <point x="1012.0" y="961.0" type="line"/>
      <point x="883.0" y="470.0" type="line"/>
      <point x="1110.0" y="470.0" type="line" smooth="yes"/>
      <point x="1131.0" y="470.0"/>
      <point x="1147.0" y="454.0"/>
      <point x="1147.0" y="433.0" type="curve" smooth="yes"/>
      <point x="1147.0" y="412.0"/>
      <point x="1131.0" y="395.0"/>
      <point x="1110.0" y="395.0" type="curve" smooth="yes"/>
      <point x="863.0" y="395.0" type="line"/>
      <point x="763.0" y="15.0" type="line" smooth="yes"/>
      <point x="759.0" y="-1.0"/>
      <point x="742.0" y="-14.0"/>
      <point x="726.0" y="-14.0" type="curve" smooth="yes"/>
      <point x="705.0" y="-14.0"/>
      <point x="689.0" y="3.0"/>
      <point x="689.0" y="24.0" type="curve" smooth="yes"/>
      <point x="689.0" y="27.0"/>
      <point x="689.0" y="31.0"/>
      <point x="690.0" y="34.0" type="curve"/>
      <point x="785.0" y="395.0" type="line"/>
      <point x="411.0" y="395.0" type="line"/>
      <point x="311.0" y="15.0" type="line" smooth="yes"/>
      <point x="307.0" y="-1.0"/>
      <point x="290.0" y="-14.0"/>
      <point x="274.0" y="-14.0" type="curve" smooth="yes"/>
      <point x="253.0" y="-14.0"/>
      <point x="237.0" y="3.0"/>
      <point x="237.0" y="24.0" type="curve" smooth="yes"/>
      <point x="237.0" y="27.0"/>
      <point x="237.0" y="31.0"/>
      <point x="238.0" y="34.0" type="curve"/>
      <point x="333.0" y="395.0" type="line"/>
      <point x="108.0" y="395.0" type="line" smooth="yes"/>
      <point x="87.0" y="395.0"/>
      <point x="70.0" y="412.0"/>
      <point x="70.0" y="433.0" type="curve" smooth="yes"/>
      <point x="70.0" y="454.0"/>
      <point x="87.0" y="470.0"/>
      <point x="108.0" y="470.0" type="curve" smooth="yes"/>
      <point x="353.0" y="470.0" type="line"/>
      <point x="482.0" y="961.0" type="line"/>
      <point x="253.0" y="961.0" type="line" smooth="yes"/>
      <point x="232.0" y="961.0"/>
      <point x="216.0" y="978.0"/>
      <point x="216.0" y="999.0" type="curve" smooth="yes"/>
      <point x="216.0" y="1020.0"/>
      <point x="232.0" y="1036.0"/>
      <point x="253.0" y="1036.0" type="curve" smooth="yes"/>
      <point x="502.0" y="1036.0" type="line"/>
      <point x="583.0" y="1346.0" type="line" smooth="yes"/>
      <point x="587.0" y="1362.0"/>
      <point x="604.0" y="1374.0"/>
      <point x="620.0" y="1374.0" type="curve" smooth="yes"/>
    </contour>
    <contour>
      <point x="560.0" y="961.0" type="line"/>
      <point x="431.0" y="470.0" type="line"/>
      <point x="805.0" y="470.0" type="line"/>
      <point x="934.0" y="961.0" type="line"/>
    </contour>
  </outline>
</glyph>
<glyph name="dollar" format="2">
  <advance width="1370"/>
  <unicode hex="0024"/>
  <outline>
    <contour>
      <point x="704.0" y="1472.0" type="curve" smooth="yes"/>
      <point x="725.0" y="1472.0"/>
      <point x="742.0" y="1455.0"/>
      <point x="742.0" y="1434.0" type="curve" smooth="yes"/>
      <point x="742.0" y="1272.0" type="line"/>
      <point x="967.0" y="1262.0"/>
      <point x="1159.0" y="1171.0"/>
      <point x="1249.0" y="1033.0" type="curve"/>
      <point x="1252.0" y="1029.0"/>
      <point x="1253.0" y="1021.0"/>
      <point x="1253.0" y="1017.0" type="curve" smooth="yes"/>
      <point x="1253.0" y="998.0"/>
      <point x="1236.0" y="983.0"/>
      <point x="1214.0" y="983.0" type="curve" smooth="yes"/>
      <point x="1200.0" y="983.0"/>
      <point x="1184.0" y="991.0"/>
      <point x="1178.0" y="1001.0" type="curve" smooth="yes"/>
      <point x="1101.0" y="1121.0"/>
      <point x="940.0" y="1195.0"/>
      <point x="743.0" y="1205.0" type="curve"/>
      <point x="744.0" y="704.0" type="line"/>
      <point x="1028.0" y="685.0"/>
      <point x="1309.0" y="654.0"/>
      <point x="1309.0" y="421.0" type="curve" smooth="yes"/>
      <point x="1309.0" y="188.0"/>
      <point x="1025.0" y="86.0"/>
      <point x="746.0" y="77.0" type="curve"/>
      <point x="746.0" y="29.0"/>
      <point x="746.0" y="-19.0"/>
      <point x="746.0" y="-67.0" type="curve" smooth="yes"/>
      <point x="746.0" y="-88.0"/>
      <point x="730.0" y="-104.0"/>
      <point x="709.0" y="-104.0" type="curve" smooth="yes"/>
      <point x="688.0" y="-104.0"/>
      <point x="671.0" y="-88.0"/>
      <point x="671.0" y="-67.0" type="curve" smooth="yes"/>
      <point x="671.0" y="-19.0"/>
      <point x="671.0" y="29.0"/>
      <point x="671.0" y="77.0" type="curve"/>
      <point x="399.0" y="84.0"/>
      <point x="169.0" y="174.0"/>
      <point x="64.0" y="342.0" type="curve"/>
      <point x="62.0" y="346.0"/>
      <point x="60.0" y="354.0"/>
      <point x="60.0" y="358.0" type="curve" smooth="yes"/>
      <point x="60.0" y="377.0"/>
      <point x="78.0" y="391.0"/>
      <point x="100.0" y="391.0" type="curve" smooth="yes"/>
      <point x="114.0" y="391.0"/>
      <point x="129.0" y="383.0"/>
      <point x="135.0" y="373.0" type="curve" smooth="yes"/>
      <point x="227.0" y="225.0"/>
      <point x="425.0" y="149.0"/>
      <point x="670.0" y="143.0" type="curve"/>
      <point x="669.0" y="654.0" type="line"/>
      <point x="378.0" y="674.0"/>
      <point x="83.0" y="698.0"/>
      <point x="83.0" y="935.0" type="curve" smooth="yes"/>
      <point x="83.0" y="998.0"/>
      <point x="109.0" y="1045.0"/>
      <point x="143.0" y="1084.0" type="curve" smooth="yes"/>
      <point x="244.0" y="1201.0"/>
      <point x="453.0" y="1266.0"/>
      <point x="667.0" y="1272.0" type="curve"/>
      <point x="667.0" y="1434.0" type="line" smooth="yes"/>
      <point x="667.0" y="1454.0"/>
      <point x="683.0" y="1472.0"/>
    </contour>
    <contour>
      <point x="744.0" y="649.0" type="curve"/>
      <point x="745.0" y="143.0" type="line"/>
      <point x="979.0" y="151.0"/>
      <point x="1229.0" y="231.0"/>
      <point x="1229.0" y="421.0" type="curve" smooth="yes"/>
      <point x="1229.0" y="602.0"/>
      <point x="998.0" y="631.0"/>
    </contour>
    <contour>
      <point x="669.0" y="709.0" type="curve"/>
      <point x="668.0" y="1206.0" type="line"/>
      <point x="446.0" y="1199.0"/>
      <point x="163.0" y="1120.0"/>
      <point x="163.0" y="935.0" type="curve" smooth="yes"/>
      <point x="163.0" y="750.0"/>
      <point x="407.0" y="727.0"/>
    </contour>
  </outline>
</glyph>
<glyph name="percent" format="2">
  <advance width="1093"/>
  <unicode hex="0025"/>
  <outline>
    <contour>
      <point x="957.0" y="1423.0" type="line" smooth="yes"/>
      <point x="977.0" y="1422.0"/>
      <point x="993.0" y="1405.0"/>
      <point x="993.0" y="1385.0" type="curve" smooth="yes"/>
      <point x="993.0" y="1379.0"/>
      <point x="991.0" y="1370.0"/>
      <point x="988.0" y="1365.0" type="curve" smooth="yes"/>
      <point x="170.0" y="31.0" type="line" smooth="yes"/>
      <point x="164.0" y="21.0"/>
      <point x="150.0" y="12.0"/>
      <point x="138.0" y="12.0" type="curve" smooth="yes"/>
      <point x="117.0" y="12.0"/>
      <point x="100.0" y="29.0"/>
      <point x="100.0" y="50.0" type="curve" smooth="yes"/>
      <point x="100.0" y="56.0"/>
      <point x="103.0" y="65.0"/>
      <point x="106.0" y="70.0" type="curve" smooth="yes"/>
      <point x="924.0" y="1405.0" type="line" smooth="yes"/>
      <point x="930.0" y="1415.0"/>
      <point x="944.0" y="1423.0"/>
      <point x="956.0" y="1423.0" type="curve" smooth="yes"/>
    </contour>
    <contour>
      <point x="780.0" y="513.0" type="curve" smooth="yes"/>
      <point x="893.0" y="513.0"/>
      <point x="985.0" y="421.0"/>
      <point x="985.0" y="308.0" type="curve" smooth="yes"/>
      <point x="985.0" y="195.0"/>
      <point x="893.0" y="102.0"/>
      <point x="780.0" y="102.0" type="curve" smooth="yes"/>
      <point x="667.0" y="102.0"/>
      <point x="574.0" y="195.0"/>
      <point x="574.0" y="308.0" type="curve" smooth="yes"/>
      <point x="574.0" y="421.0"/>
      <point x="667.0" y="513.0"/>
    </contour>
    <contour>
      <point x="780.0" y="438.0" type="curve" smooth="yes"/>
      <point x="707.0" y="438.0"/>
      <point x="649.0" y="381.0"/>
      <point x="649.0" y="308.0" type="curve" smooth="yes"/>
      <point x="649.0" y="235.0"/>
      <point x="707.0" y="177.0"/>
      <point x="780.0" y="177.0" type="curve" smooth="yes"/>
      <point x="853.0" y="177.0"/>
      <point x="910.0" y="235.0"/>
      <point x="910.0" y="308.0" type="curve" smooth="yes"/>
      <point x="910.0" y="381.0"/>
      <point x="853.0" y="438.0"/>
    </contour>
    <contour>
      <point x="315.0" y="1357.0" type="curve" smooth="yes"/>
      <point x="428.0" y="1357.0"/>
      <point x="520.0" y="1264.0"/>
      <point x="520.0" y="1151.0" type="curve" smooth="yes"/>
      <point x="520.0" y="1038.0"/>
      <point x="428.0" y="946.0"/>
      <point x="315.0" y="946.0" type="curve" smooth="yes"/>
      <point x="202.0" y="946.0"/>
      <point x="109.0" y="1038.0"/>
      <point x="109.0" y="1151.0" type="curve" smooth="yes"/>
      <point x="109.0" y="1264.0"/>
      <point x="202.0" y="1357.0"/>
    </contour>
    <contour>
      <point x="315.0" y="1282.0" type="curve" smooth="yes"/>
      <point x="242.0" y="1282.0"/>
      <point x="184.0" y="1224.0"/>
      <point x="184.0" y="1151.0" type="curve" smooth="yes"/>
      <point x="184.0" y="1078.0"/>
      <point x="242.0" y="1021.0"/>
      <point x="315.0" y="1021.0" type="curve" smooth="yes"/>
      <point x="388.0" y="1021.0"/>
      <point x="445.0" y="1078.0"/>
      <point x="445.0" y="1151.0" type="curve" smooth="yes"/>
      <point x="445.0" y="1224.0"/>
      <point x="388.0" y="1282.0"/>
    </contour>
  </outline>
</glyph>
<glyph name="ampersand" format="2">
  <advance width="1196"/>
  <unicode hex="0026"/>
  <outline>
    <contour>
      <point x="479.0" y="-11.0" type="curve" smooth="yes"/>
      <point x="285.0" y="-11.0"/>
      <point x="100.0" y="135.0"/>
      <point x="100.0" y="352.0" type="curve" smooth="yes"/>
      <point x="100.0" y="576.0"/>
      <point x="295.0" y="680.0"/>
      <point x="443.0" y="758.0" type="curve"/>
      <point x="374.0" y="847.0"/>
      <point x="265.0" y="943.0"/>
      <point x="265.0" y="1095.0" type="curve" smooth="yes"/>
      <point x="265.0" y="1247.0"/>
      <point x="392.0" y="1374.0"/>
      <point x="545.0" y="1374.0" type="curve" smooth="yes"/>
      <point x="699.0" y="1374.0"/>
      <point x="824.0" y="1249.0"/>
      <point x="824.0" y="1096.0" type="curve" smooth="yes"/>
      <point x="824.0" y="917.0"/>
      <point x="671.0" y="804.0"/>
      <point x="549.0" y="736.0" type="curve"/>
      <point x="653.0" y="602.0"/>
      <point x="757.0" y="468.0"/>
      <point x="861.0" y="334.0" type="curve"/>
      <point x="901.0" y="417.0"/>
      <point x="928.0" y="522.0"/>
      <point x="932.0" y="634.0" type="curve" smooth="yes"/>
      <point x="932.0" y="653.0"/>
      <point x="948.0" y="668.0"/>
      <point x="967.0" y="668.0" type="curve" smooth="yes"/>
      <point x="986.0" y="668.0"/>
      <point x="1002.0" y="652.0"/>
      <point x="1002.0" y="633.0" type="curve" smooth="yes"/>
      <point x="1002.0" y="495.0"/>
      <point x="961.0" y="370.0"/>
      <point x="908.0" y="272.0" type="curve"/>
      <point x="968.0" y="194.0"/>
      <point x="1029.0" y="116.0"/>
      <point x="1089.0" y="38.0" type="curve" smooth="yes"/>
      <point x="1093.0" y="33.0"/>
      <point x="1097.0" y="23.0"/>
      <point x="1097.0" y="16.0" type="curve" smooth="yes"/>
      <point x="1097.0" y="-3.0"/>
      <point x="1081.0" y="-19.0"/>
      <point x="1062.0" y="-19.0" type="curve" smooth="yes"/>
      <point x="1052.0" y="-19.0"/>
      <point x="1040.0" y="-12.0"/>
      <point x="1034.0" y="-4.0" type="curve" smooth="yes"/>
      <point x="979.0" y="67.0"/>
      <point x="924.0" y="138.0"/>
      <point x="869.0" y="209.0" type="curve"/>
      <point x="787.0" y="92.0"/>
      <point x="643.0" y="-11.0"/>
    </contour>
    <contour>
      <point x="754.0" y="1096.0" type="curve" smooth="yes"/>
      <point x="754.0" y="1209.0"/>
      <point x="660.0" y="1304.0"/>
      <point x="546.0" y="1304.0" type="curve" smooth="yes"/>
      <point x="432.0" y="1304.0"/>
      <point x="335.0" y="1212.0"/>
      <point x="335.0" y="1093.0" type="curve" smooth="yes"/>
      <point x="335.0" y="970.0"/>
      <point x="444.0" y="873.0"/>
      <point x="506.0" y="792.0" type="curve"/>
      <point x="613.0" y="851.0"/>
      <point x="754.0" y="945.0"/>
    </contour>
    <contour>
      <point x="170.0" y="349.0" type="curve" smooth="yes"/>
      <point x="170.0" y="176.0"/>
      <point x="322.0" y="59.0"/>
      <point x="479.0" y="59.0" type="curve" smooth="yes"/>
      <point x="625.0" y="59.0"/>
      <point x="754.0" y="159.0"/>
      <point x="824.0" y="267.0" type="curve"/>
      <point x="712.0" y="412.0"/>
      <point x="599.0" y="557.0"/>
      <point x="487.0" y="702.0" type="curve"/>
      <point x="352.0" y="630.0"/>
      <point x="170.0" y="545.0"/>
    </contour>
  </outline>
</glyph>
<glyph name="quotesingle" format="2">
  <advance width="304"/>
  <unicode hex="0027"/>
  <outline>
    <contour>
      <point x="148.0" y="1434.0" type="curve" smooth="yes"/>
      <point x="190.0" y="1434.0"/>
      <point x="205.0" y="1400.0"/>
      <point x="204.0" y="1358.0" type="curve" smooth="yes"/>
      <point x="182.0" y="1040.0" type="line" smooth="yes"/>
      <point x="179.0" y="998.0"/>
      <point x="175.0" y="964.0"/>
      <point x="147.0" y="964.0" type="curve" smooth="yes"/>
      <point x="119.0" y="964.0"/>
      <point x="111.0" y="999.0"/>
      <point x="110.0" y="1041.0" type="curve" smooth="yes"/>
      <point x="100.0" y="1358.0" type="line" smooth="yes"/>
      <point x="100.0" y="1399.0"/>
      <point x="107.0" y="1434.0"/>
    </contour>
  </outline>
</glyph>
<glyph name="parenleft" format="2">
  <advance width="653"/>
  <unicode hex="0028"/>
  <outline>
    <contour>
      <point x="510.0" y="1211.0" type="curve" smooth="yes"/>
      <point x="531.0" y="1211.0"/>
      <point x="547.0" y="1194.0"/>
      <point x="547.0" y="1173.0" type="curve" smooth="yes"/>
      <point x="547.0" y="1163.0"/>
      <point x="540.0" y="1150.0"/>
      <point x="532.0" y="1144.0" type="curve" smooth="yes"/>
      <point x="311.0" y="973.0"/>
      <point x="175.0" y="695.0"/>
      <point x="175.0" y="416.0" type="curve" smooth="yes"/>
      <point x="175.0" y="134.0"/>
      <point x="314.0" y="-146.0"/>
      <point x="538.0" y="-316.0" type="curve" smooth="yes"/>
      <point x="546.0" y="-322.0"/>
      <point x="553.0" y="-336.0"/>
      <point x="553.0" y="-346.0" type="curve" smooth="yes"/>
      <point x="553.0" y="-367.0"/>
      <point x="537.0" y="-384.0"/>
      <point x="516.0" y="-384.0" type="curve" smooth="yes"/>
      <point x="509.0" y="-384.0"/>
      <point x="499.0" y="-380.0"/>
      <point x="493.0" y="-376.0" type="curve"/>
      <point x="250.0" y="-191.0"/>
      <point x="100.0" y="110.0"/>
      <point x="100.0" y="416.0" type="curve" smooth="yes"/>
      <point x="100.0" y="719.0"/>
      <point x="246.0" y="1017.0"/>
      <point x="486.0" y="1203.0" type="curve"/>
      <point x="492.0" y="1207.0"/>
      <point x="503.0" y="1211.0"/>
    </contour>
  </outline>
</glyph>
<glyph name="asterisk" format="2">
	<unicode hex="002A"/>
	<advance width="955"/>
	<outline>
		<contour>
			<point x="448" y="1399" type="line" smooth="yes"/>
			<point x="448" y="1418"/>
			<point x="464" y="1434"/>
			<point x="483" y="1434" type="curve" smooth="yes"/>
			<point x="502" y="1434"/>
			<point x="518" y="1418"/>
			<point x="518" y="1399" type="curve" smooth="yes"/>
			<point x="523" y="1053" type="line"/>
			<point x="905" y="1297" type="line" smooth="yes"/>
			<point x="910" y="1300"/>
			<point x="918" y="1303"/>
			<point x="924" y="1303" type="curve" smooth="yes"/>
			<point x="943" y="1303"/>
			<point x="959" y="1287"/>
			<point x="959" y="1268" type="curve" smooth="yes"/>
			<point x="959" y="1257"/>
			<point x="952" y="1244"/>
			<point x="943" y="1238" type="curve" smooth="yes"/>
			<point x="555" y="990" type="line"/>
			<point x="943" y="754" type="line" smooth="yes"/>
			<point x="952" y="748"/>
			<point x="960" y="735"/>
			<point x="960" y="724" type="curve" smooth="yes"/>
			<point x="960" y="705"/>
			<point x="944" y="689"/>
			<point x="925" y="689" type="curve" smooth="yes"/>
			<point x="919" y="689"/>
			<point x="911" y="691"/>
			<point x="906" y="694" type="curve" smooth="yes"/>
			<point x="525" y="927" type="line"/>
			<point x="531" y="509" type="line"/>
			<point x="531" y="508" type="line" smooth="yes"/>
			<point x="531" y="489"/>
			<point x="515" y="473"/>
			<point x="496" y="473" type="curve" smooth="yes"/>
			<point x="477" y="473"/>
			<point x="461" y="489"/>
			<point x="461" y="508" type="curve" smooth="yes"/>
			<point x="455" y="926" type="line"/>
			<point x="54" y="670" type="line" smooth="yes"/>
			<point x="49" y="667"/>
			<point x="41" y="665"/>
			<point x="35" y="665" type="curve" smooth="yes"/>
			<point x="16" y="665"/>
			<point x="0" y="681"/>
			<point x="0" y="700" type="curve" smooth="yes"/>
			<point x="0" y="711"/>
			<point x="8" y="723"/>
			<point x="17" y="729" type="curve" smooth="yes"/>
			<point x="423" y="989" type="line"/>
			<point x="19" y="1236" type="line" smooth="yes"/>
			<point x="10" y="1242"/>
			<point x="1" y="1255"/>
			<point x="1" y="1266" type="curve" smooth="yes"/>
			<point x="1" y="1285"/>
			<point x="16" y="1301"/>
			<point x="36" y="1301" type="curve" smooth="yes"/>
			<point x="42" y="1301"/>
			<point x="50" y="1299"/>
			<point x="55" y="1296" type="curve" smooth="yes"/>
			<point x="453" y="1053" type="line"/>
			<point x="448" y="1398" type="line"/>
		</contour>
	</outline>
</glyph>
<glyph name="plus" format="2">
	<unicode hex="002B"/>
	<advance width="908"/>
	<outline>
		<contour>
			<point x="456" y="893" type="curve" smooth="yes"/>
			<point x="477" y="893"/>
			<point x="494" y="876"/>
			<point x="494" y="855" type="curve" smooth="yes"/>
			<point x="494" y="466" type="line"/>
			<point x="821" y="466" type="line" smooth="yes"/>
			<point x="842" y="466"/>
			<point x="859" y="450"/>
			<point x="859" y="429" type="curve" smooth="yes"/>
			<point x="859" y="408"/>
			<point x="842" y="391"/>
			<point x="821" y="391" type="curve" smooth="yes"/>
			<point x="494" y="391" type="line"/>
			<point x="494" y="28" type="line" smooth="yes"/>
			<point x="494" y="7"/>
			<point x="478" y="-10"/>
			<point x="457" y="-10" type="curve" smooth="yes"/>
			<point x="436" y="-10"/>
			<point x="419" y="7"/>
			<point x="419" y="28" type="curve" smooth="yes"/>
			<point x="419" y="391" type="line"/>
			<point x="88" y="391" type="line" smooth="yes"/>
			<point x="67" y="391"/>
			<point x="50" y="408"/>
			<point x="50" y="429" type="curve" smooth="yes"/>
			<point x="50" y="450"/>
			<point x="67" y="466"/>
			<point x="88" y="466" type="curve" smooth="yes"/>
			<point x="419" y="466" type="line"/>
			<point x="419" y="855" type="line" smooth="yes"/>
			<point x="419" y="876"/>
			<point x="435" y="893"/>
		</contour>
	</outline>
</glyph>
<glyph name="comma" format="2">
  <advance width="474"/>
  <unicode hex="002C"/>
  <outline>
    <contour>
      <point x="261.0" y="240.0" type="curve" smooth="yes"/>
      <point x="336.0" y="240.0"/>
      <point x="375.0" y="174.0"/>
      <point x="375.0" y="88.0" type="curve" smooth="yes"/>
      <point x="375.0" y="-113.0"/>
      <point x="289.0" y="-249.0"/>
      <point x="158.0" y="-334.0" type="curve" smooth="yes"/>
      <point x="151.0" y="-339.0"/>
      <point x="145.0" y="-341.0"/>
      <point x="138.0" y="-341.0" type="curve" smooth="yes"/>
      <point x="117.0" y="-341.0"/>
      <point x="100.0" y="-321.0"/>
      <point x="100.0" y="-301.0" type="curve" smooth="yes"/>
      <point x="100.0" y="-290.0"/>
      <point x="105.0" y="-279.0"/>
      <point x="117.0" y="-271.0" type="curve" smooth="yes"/>
      <point x="211.0" y="-210.0"/>
      <point x="279.0" y="-114.0"/>
      <point x="295.0" y="14.0" type="curve"/>
      <point x="284.0" y="10.0"/>
      <point x="273.0" y="8.0"/>
      <point x="261.0" y="8.0" type="curve" smooth="yes"/>
      <point x="200.0" y="8.0"/>
      <point x="150.0" y="60.0"/>
      <point x="150.0" y="124.0" type="curve" smooth="yes"/>
      <point x="150.0" y="188.0"/>
      <point x="200.0" y="240.0"/>
    </contour>
  </outline>
</glyph>
<glyph name="hyphen" format="2">
	<unicode hex="002D"/>
	<advance width="601"/>
	<outline>
		<contour>
			<point x="138" y="471" type="curve" smooth="yes"/>
			<point x="464" y="471" type="line" smooth="yes"/>
			<point x="485" y="471"/>
			<point x="501" y="455"/>
			<point x="501" y="434" type="curve" smooth="yes"/>
			<point x="501" y="413"/>
			<point x="485" y="396"/>
			<point x="464" y="396" type="curve" smooth="yes"/>
			<point x="138" y="396" type="line" smooth="yes"/>
			<point x="117" y="396"/>
			<point x="100" y="413"/>
			<point x="100" y="434" type="curve" smooth="yes"/>
			<point x="100" y="455"/>
			<point x="117" y="471"/>
		</contour>
		<contour>
			<point x="138" y="471" type="curve" smooth="yes"/>
			<point x="464" y="471" type="line" smooth="yes"/>
			<point x="485" y="471"/>
			<point x="501" y="455"/>
			<point x="501" y="434" type="curve" smooth="yes"/>
			<point x="501" y="413"/>
			<point x="485" y="396"/>
			<point x="464" y="396" type="curve" smooth="yes"/>
			<point x="138" y="396" type="line" smooth="yes"/>
			<point x="117" y="396"/>
			<point x="100" y="413"/>
			<point x="100" y="434" type="curve" smooth="yes"/>
			<point x="100" y="455"/>
			<point x="117" y="471"/>
		</contour>
		<contour>
			<point x="138" y="471" type="curve" smooth="yes"/>
			<point x="464" y="471" type="line" smooth="yes"/>
			<point x="485" y="471"/>
			<point x="501" y="455"/>
			<point x="501" y="434" type="curve" smooth="yes"/>
			<point x="501" y="413"/>
			<point x="485" y="396"/>
			<point x="464" y="396" type="curve" smooth="yes"/>
			<point x="138" y="396" type="line" smooth="yes"/>
			<point x="117" y="396"/>
			<point x="100" y="413"/>
			<point x="100" y="434" type="curve" smooth="yes"/>
			<point x="100" y="455"/>
			<point x="117" y="471"/>
		</contour>
	</outline>
</glyph>
<glyph name="period" format="2">
	<unicode hex="002E"/>
	<advance width="395"/>
	<outline>
		<contour>
			<point x="100" y="98" type="curve" smooth="yes"/>
			<point x="100" y="152"/>
			<point x="144" y="196"/>
			<point x="198" y="196" type="curve" smooth="yes"/>
			<point x="252" y="196"/>
			<point x="296" y="152"/>
			<point x="296" y="98" type="curve" smooth="yes"/>
			<point x="296" y="44"/>
			<point x="252" y="0"/>
			<point x="198" y="0" type="curve" smooth="yes"/>
			<point x="144" y="0"/>
			<point x="100" y="44"/>
		</contour>
	</outline>
</glyph>
<glyph name="slash" format="2">
  <advance width="617"/>
  <unicode hex="002F"/>
  <outline>
    <contour>
      <point x="535.0" y="1350.0" type="line" smooth="yes"/>
      <point x="540.0" y="1363.0"/>
      <point x="555.0" y="1374.0"/>
      <point x="570.0" y="1374.0" type="curve" smooth="yes"/>
      <point x="591.0" y="1374.0"/>
      <point x="608.0" y="1358.0"/>
      <point x="608.0" y="1337.0" type="curve" smooth="yes"/>
      <point x="608.0" y="1333.0"/>
      <point x="607.0" y="1326.0"/>
      <point x="605.0" y="1322.0" type="curve"/>
      <point x="82.0" y="13.0" type="line" smooth="yes"/>
      <point x="77.0" y="0.0"/>
      <point x="61.0" y="-11.0"/>
      <point x="47.0" y="-11.0" type="curve" smooth="yes"/>
      <point x="26.0" y="-11.0"/>
      <point x="10.0" y="5.0"/>
      <point x="10.0" y="26.0" type="curve" smooth="yes"/>
      <point x="10.0" y="30.0"/>
      <point x="11.0" y="36.0"/>
      <point x="13.0" y="40.0" type="curve"/>
    </contour>
  </outline>
</glyph>
<glyph name="zero" format="2">
	<unicode hex="0030"/>
	<advance width="1188"/>
	<outline>
		<contour>
			<point x="602" y="1379" type="curve" smooth="yes"/>
			<point x="932" y="1379"/>
			<point x="1088" y="998"/>
			<point x="1088" y="682" type="curve" smooth="yes"/>
			<point x="1088" y="372"/>
			<point x="923" y="-17"/>
			<point x="596" y="-17" type="curve" smooth="yes"/>
			<point x="272" y="-17"/>
			<point x="100" y="364"/>
			<point x="100" y="671" type="curve" smooth="yes"/>
			<point x="100" y="983"/>
			<point x="271" y="1379"/>
		</contour>
		<contour>
			<point x="1012" y="681" type="curve" smooth="yes"/>
			<point x="1012" y="951"/>
			<point x="887" y="1304"/>
			<point x="606" y="1304" type="curve" smooth="yes"/>
			<point x="323" y="1304"/>
			<point x="176" y="941"/>
			<point x="176" y="671" type="curve" smooth="yes"/>
			<point x="176" y="408"/>
			<point x="320" y="58"/>
			<point x="596" y="58" type="curve" smooth="yes"/>
			<point x="875" y="58"/>
			<point x="1012" y="415"/>
		</contour>
	</outline>
</glyph>
<glyph name="one" format="2">
	<unicode hex="0031"/>
	<advance width="1200"/>
	<outline>
		<contour>
			<point x="613" y="1374" type="curve" smooth="yes"/>
			<point x="614" y="1374" type="line" smooth="yes"/>
			<point x="635" y="1374"/>
			<point x="652" y="1358"/>
			<point x="652" y="1337" type="curve"/>
			<point x="649" y="75" type="line"/>
			<point x="827" y="75" type="line" smooth="yes"/>
			<point x="848" y="75"/>
			<point x="865" y="58"/>
			<point x="865" y="37" type="curve" smooth="yes"/>
			<point x="865" y="16"/>
			<point x="848" y="0"/>
			<point x="827" y="0" type="curve" smooth="yes"/>
			<point x="373" y="0" type="line" smooth="yes"/>
			<point x="352" y="0"/>
			<point x="335" y="16"/>
			<point x="335" y="37" type="curve" smooth="yes"/>
			<point x="335" y="58"/>
			<point x="352" y="75"/>
			<point x="373" y="75" type="curve" smooth="yes"/>
			<point x="574" y="75" type="line"/>
			<point x="577" y="1213" type="line"/>
			<point x="534" y="1160"/>
			<point x="472" y="1102"/>
			<point x="391" y="1086" type="curve"/>
			<point x="389" y="1086"/>
			<point x="385" y="1085"/>
			<point x="383" y="1085" type="curve" smooth="yes"/>
			<point x="362" y="1085"/>
			<point x="346" y="1101"/>
			<point x="346" y="1122" type="curve" smooth="yes"/>
			<point x="346" y="1139"/>
			<point x="360" y="1156"/>
			<point x="377" y="1159" type="curve" smooth="yes"/>
			<point x="458" y="1174"/>
			<point x="552" y="1301"/>
			<point x="581" y="1354" type="curve" smooth="yes"/>
			<point x="587" y="1365"/>
			<point x="601" y="1374"/>
		</contour>
	</outline>
</glyph>
<glyph name="two" format="2">
  <advance width="1200"/>
  <unicode hex="0032"/>
  <outline>
    <contour>
      <point x="178.0" y="1083.0" type="curve" smooth="yes"/>
      <point x="225.0" y="1235.0"/>
      <point x="375.0" y="1376.0"/>
      <point x="570.0" y="1376.0" type="curve" smooth="yes"/>
      <point x="812.0" y="1376.0"/>
      <point x="996.0" y="1192.0"/>
      <point x="996.0" y="943.0" type="curve" smooth="yes"/>
      <point x="996.0" y="883.0"/>
      <point x="984.0" y="822.0"/>
      <point x="960.0" y="766.0" type="curve" smooth="yes"/>
      <point x="873.0" y="561.0"/>
      <point x="666.0" y="457.0"/>
      <point x="506.0" y="328.0" type="curve" smooth="yes"/>
      <point x="407.0" y="248.0"/>
      <point x="320.0" y="177.0"/>
      <point x="250.0" y="71.0" type="curve"/>
      <point x="1014.0" y="71.0" type="line" smooth="yes"/>
      <point x="1033.0" y="71.0"/>
      <point x="1048.0" y="55.0"/>
      <point x="1048.0" y="36.0" type="curve" smooth="yes"/>
      <point x="1048.0" y="17.0"/>
      <point x="1033.0" y="1.0"/>
      <point x="1014.0" y="1.0" type="curve" smooth="yes"/>
      <point x="186.0" y="1.0" type="line" smooth="yes"/>
      <point x="167.0" y="1.0"/>
      <point x="152.0" y="17.0"/>
      <point x="152.0" y="36.0" type="curve" smooth="yes"/>
      <point x="152.0" y="41.0"/>
      <point x="153.0" y="49.0"/>
      <point x="156.0" y="54.0" type="curve" smooth="yes"/>
      <point x="236.0" y="189.0"/>
      <point x="340.0" y="283.0"/>
      <point x="462.0" y="382.0" type="curve" smooth="yes"/>
      <point x="616.0" y="507.0"/>
      <point x="816.0" y="605.0"/>
      <point x="896.0" y="793.0" type="curve" smooth="yes"/>
      <point x="916.0" y="840.0"/>
      <point x="926.0" y="891.0"/>
      <point x="926.0" y="942.0" type="curve" smooth="yes"/>
      <point x="926.0" y="1148.0"/>
      <point x="764.0" y="1306.0"/>
      <point x="572.0" y="1306.0" type="curve" smooth="yes"/>
      <point x="410.0" y="1306.0"/>
      <point x="285.0" y="1189.0"/>
      <point x="246.0" y="1062.0" type="curve" smooth="yes"/>
      <point x="242.0" y="1048.0"/>
      <point x="227.0" y="1037.0"/>
      <point x="212.0" y="1037.0" type="curve" smooth="yes"/>
      <point x="193.0" y="1037.0"/>
      <point x="176.0" y="1053.0"/>
      <point x="176.0" y="1072.0" type="curve" smooth="yes"/>
      <point x="176.0" y="1075.0"/>
      <point x="177.0" y="1080.0"/>
    </contour>
  </outline>
</glyph>
<glyph name="three" format="2">
  <advance width="1200"/>
  <unicode hex="0033"/>
  <outline>
    <contour>
      <point x="607.0" y="735.0" type="line"/>
      <point x="614.0" y="735.0" type="line" smooth="yes"/>
      <point x="766.0" y="735.0"/>
      <point x="893.0" y="861.0"/>
      <point x="893.0" y="1013.0" type="curve" smooth="yes"/>
      <point x="893.0" y="1169.0"/>
      <point x="761.0" y="1298.0"/>
      <point x="602.0" y="1298.0" type="curve" smooth="yes"/>
      <point x="465.0" y="1298.0"/>
      <point x="364.0" y="1208.0"/>
      <point x="326.0" y="1104.0" type="curve" smooth="yes"/>
      <point x="321.0" y="1090.0"/>
      <point x="305.0" y="1079.0"/>
      <point x="290.0" y="1079.0" type="curve" smooth="yes"/>
      <point x="269.0" y="1079.0"/>
      <point x="253.0" y="1096.0"/>
      <point x="253.0" y="1117.0" type="curve" smooth="yes"/>
      <point x="253.0" y="1121.0"/>
      <point x="254.0" y="1126.0"/>
      <point x="255.0" y="1130.0" type="curve"/>
      <point x="303.0" y="1260.0"/>
      <point x="431.0" y="1373.0"/>
      <point x="603.0" y="1373.0" type="curve" smooth="yes"/>
      <point x="803.0" y="1373.0"/>
      <point x="968.0" y="1209.0"/>
      <point x="968.0" y="1013.0" type="curve" smooth="yes"/>
      <point x="968.0" y="876.0"/>
      <point x="887.0" y="759.0"/>
      <point x="783.0" y="703.0" type="curve"/>
      <point x="906.0" y="660.0"/>
      <point x="1002.0" y="554.0"/>
      <point x="1002.0" y="393.0" type="curve" smooth="yes"/>
      <point x="1002.0" y="167.0"/>
      <point x="806.0" y="-10.0"/>
      <point x="578.0" y="-10.0" type="curve" smooth="yes"/>
      <point x="426.0" y="-10.0"/>
      <point x="289.0" y="65.0"/>
      <point x="205.0" y="182.0" type="curve"/>
      <point x="201.0" y="187.0"/>
      <point x="198.0" y="197.0"/>
      <point x="198.0" y="204.0" type="curve" smooth="yes"/>
      <point x="198.0" y="225.0"/>
      <point x="215.0" y="241.0"/>
      <point x="236.0" y="241.0" type="curve" smooth="yes"/>
      <point x="247.0" y="241.0"/>
      <point x="260.0" y="234.0"/>
      <point x="266.0" y="225.0" type="curve" smooth="yes"/>
      <point x="335.0" y="128.0"/>
      <point x="452.0" y="65.0"/>
      <point x="578.0" y="65.0" type="curve" smooth="yes"/>
      <point x="765.0" y="65.0"/>
      <point x="927.0" y="209.0"/>
      <point x="927.0" y="393.0" type="curve" smooth="yes"/>
      <point x="927.0" y="583.0"/>
      <point x="791.0" y="643.0"/>
      <point x="609.0" y="655.0" type="curve" smooth="yes"/>
      <point x="586.0" y="657.0" type="line" smooth="yes"/>
      <point x="567.0" y="658.0"/>
      <point x="550.0" y="674.0"/>
      <point x="550.0" y="694.0" type="curve" smooth="yes"/>
      <point x="550.0" y="712.0"/>
      <point x="565.0" y="728.0"/>
      <point x="583.0" y="731.0" type="curve" smooth="yes"/>
    </contour>
  </outline>
</glyph>
<glyph name="four" format="2">
  <advance width="1200"/>
  <unicode hex="0034"/>
  <outline>
    <contour>
      <point x="789.0" y="-11.0" type="curve" smooth="yes"/>
      <point x="768.0" y="-11.0"/>
      <point x="752.0" y="5.0"/>
      <point x="752.0" y="26.0" type="curve" smooth="yes"/>
      <point x="752.0" y="27.0" type="line"/>
      <point x="751.0" y="352.0" type="line"/>
      <point x="94.0" y="354.0" type="line" smooth="yes"/>
      <point x="73.0" y="354.0"/>
      <point x="57.0" y="371.0"/>
      <point x="57.0" y="392.0" type="curve" smooth="yes"/>
      <point x="57.0" y="399.0"/>
      <point x="60.0" y="409.0"/>
      <point x="64.0" y="414.0" type="curve" smooth="yes"/>
      <point x="755.0" y="1358.0" type="line" smooth="yes"/>
      <point x="761.0" y="1366.0"/>
      <point x="775.0" y="1373.0"/>
      <point x="785.0" y="1373.0" type="curve" smooth="yes"/>
      <point x="806.0" y="1373.0"/>
      <point x="823.0" y="1357.0"/>
      <point x="823.0" y="1336.0" type="curve" smooth="yes"/>
      <point x="826.0" y="427.0" type="line"/>
      <point x="1105.0" y="426.0" type="line"/>
      <point x="1106.0" y="426.0" type="line" smooth="yes"/>
      <point x="1127.0" y="426.0"/>
      <point x="1143.0" y="409.0"/>
      <point x="1143.0" y="388.0" type="curve" smooth="yes"/>
      <point x="1143.0" y="367.0"/>
      <point x="1127.0" y="351.0"/>
      <point x="1106.0" y="351.0" type="curve" smooth="yes"/>
      <point x="1105.0" y="351.0" type="line"/>
      <point x="826.0" y="352.0" type="line"/>
      <point x="827.0" y="27.0" type="line"/>
      <point x="827.0" y="26.0" type="line" smooth="yes"/>
      <point x="827.0" y="5.0"/>
      <point x="810.0" y="-11.0"/>
    </contour>
    <contour>
      <point x="751.0" y="427.0" type="line"/>
      <point x="748.0" y="1223.0" type="line"/>
      <point x="169.0" y="429.0" type="line"/>
    </contour>
  </outline>
</glyph>
<glyph name="five" format="2">
  <advance width="1200"/>
  <unicode hex="0035"/>
  <outline>
    <contour>
      <point x="597.0" y="835.0" type="curve" smooth="yes"/>
      <point x="475.0" y="835.0"/>
      <point x="353.0" y="771.0"/>
      <point x="284.0" y="670.0" type="curve" smooth="yes"/>
      <point x="278.0" y="661.0"/>
      <point x="264.0" y="653.0"/>
      <point x="253.0" y="653.0" type="curve" smooth="yes"/>
      <point x="232.0" y="653.0"/>
      <point x="215.0" y="670.0"/>
      <point x="215.0" y="691.0" type="curve" smooth="yes"/>
      <point x="215.0" y="693.0"/>
      <point x="216.0" y="695.0"/>
      <point x="216.0" y="697.0" type="curve"/>
      <point x="322.0" y="1332.0" type="line" smooth="yes"/>
      <point x="325.0" y="1349.0"/>
      <point x="341.0" y="1363.0"/>
      <point x="359.0" y="1363.0" type="curve" smooth="yes"/>
      <point x="995.0" y="1363.0" type="line" smooth="yes"/>
      <point x="1016.0" y="1363.0"/>
      <point x="1033.0" y="1347.0"/>
      <point x="1033.0" y="1326.0" type="curve" smooth="yes"/>
      <point x="1033.0" y="1305.0"/>
      <point x="1016.0" y="1288.0"/>
      <point x="995.0" y="1288.0" type="curve" smooth="yes"/>
      <point x="390.0" y="1288.0" type="line"/>
      <point x="310.0" y="807.0" type="line"/>
      <point x="391.0" y="872.0"/>
      <point x="493.0" y="910.0"/>
      <point x="597.0" y="910.0" type="curve" smooth="yes"/>
      <point x="889.0" y="910.0"/>
      <point x="1038.0" y="679.0"/>
      <point x="1038.0" y="448.0" type="curve" smooth="yes"/>
      <point x="1038.0" y="218.0"/>
      <point x="890.0" y="-12.0"/>
      <point x="586.0" y="-12.0" type="curve" smooth="yes"/>
      <point x="385.0" y="-12.0"/>
      <point x="235.0" y="109.0"/>
      <point x="166.0" y="251.0" type="curve" smooth="yes"/>
      <point x="164.0" y="255.0"/>
      <point x="162.0" y="263.0"/>
      <point x="162.0" y="268.0" type="curve" smooth="yes"/>
      <point x="162.0" y="289.0"/>
      <point x="179.0" y="306.0"/>
      <point x="200.0" y="306.0" type="curve" smooth="yes"/>
      <point x="213.0" y="306.0"/>
      <point x="227.0" y="296.0"/>
      <point x="233.0" y="284.0" type="curve" smooth="yes"/>
      <point x="291.0" y="165.0"/>
      <point x="416.0" y="63.0"/>
      <point x="585.0" y="63.0" type="curve" smooth="yes"/>
      <point x="838.0" y="63.0"/>
      <point x="963.0" y="257.0"/>
      <point x="963.0" y="451.0" type="curve" smooth="yes"/>
      <point x="963.0" y="643.0"/>
      <point x="840.0" y="835.0"/>
    </contour>
  </outline>
</glyph>
<glyph name="six" format="2">
	<unicode hex="0036"/>
	<advance width="1160"/>
	<outline>
		<contour>
			<point x="618" y="868" type="curve" smooth="yes"/>
			<point x="861" y="868"/>
			<point x="1060" y="671"/>
			<point x="1060" y="426" type="curve" smooth="yes"/>
			<point x="1060" y="187"/>
			<point x="866" y="-10"/>
			<point x="631" y="-10" type="curve" smooth="yes"/>
			<point x="270" y="-10"/>
			<point x="100" y="352"/>
			<point x="100" y="696" type="curve" smooth="yes"/>
			<point x="100" y="1032"/>
			<point x="276" y="1375"/>
			<point x="627" y="1375" type="curve" smooth="yes"/>
			<point x="800" y="1375"/>
			<point x="931" y="1277"/>
			<point x="999" y="1162" type="curve" smooth="yes"/>
			<point x="1002" y="1157"/>
			<point x="1004" y="1149"/>
			<point x="1004" y="1143" type="curve" smooth="yes"/>
			<point x="1004" y="1122"/>
			<point x="988" y="1106"/>
			<point x="967" y="1106" type="curve" smooth="yes"/>
			<point x="955" y="1106"/>
			<point x="940" y="1115"/>
			<point x="934" y="1125" type="curve" smooth="yes"/>
			<point x="878" y="1220"/>
			<point x="770" y="1300"/>
			<point x="627" y="1300" type="curve" smooth="yes"/>
			<point x="322" y="1300"/>
			<point x="175" y="992"/>
			<point x="175" y="696" type="curve" smooth="yes"/>
			<point x="175" y="636"/>
			<point x="180" y="584"/>
			<point x="189" y="529" type="curve"/>
			<point x="235" y="725"/>
			<point x="415" y="868"/>
		</contour>
		<contour>
			<point x="618" y="793" type="curve" smooth="yes"/>
			<point x="426" y="793"/>
			<point x="252" y="636"/>
			<point x="252" y="424" type="curve" smooth="yes"/>
			<point x="252" y="215"/>
			<point x="429" y="65"/>
			<point x="630" y="65" type="curve" smooth="yes"/>
			<point x="825" y="65"/>
			<point x="985" y="229"/>
			<point x="985" y="427" type="curve" smooth="yes"/>
			<point x="985" y="630"/>
			<point x="819" y="793"/>
		</contour>
	</outline>
</glyph>
<glyph name="seven" format="2">
	<unicode hex="0037"/>
	<advance width="1192"/>
	<outline>
		<contour>
			<point x="522" y="-14" type="line" smooth="yes"/>
			<point x="502" y="-13"/>
			<point x="486" y="4"/>
			<point x="486" y="24" type="curve" smooth="yes"/>
			<point x="486" y="27"/>
			<point x="487" y="32"/>
			<point x="488" y="35" type="curve" smooth="yes"/>
			<point x="629" y="476"/>
			<point x="799" y="892"/>
			<point x="994" y="1286" type="curve"/>
			<point x="138" y="1286" type="line" smooth="yes"/>
			<point x="117" y="1286"/>
			<point x="100" y="1302"/>
			<point x="100" y="1323" type="curve" smooth="yes"/>
			<point x="100" y="1344"/>
			<point x="117" y="1361"/>
			<point x="138" y="1361" type="curve" smooth="yes"/>
			<point x="1054" y="1361" type="line" smooth="yes"/>
			<point x="1075" y="1361"/>
			<point x="1092" y="1344"/>
			<point x="1092" y="1323" type="curve" smooth="yes"/>
			<point x="1092" y="1318"/>
			<point x="1090" y="1310"/>
			<point x="1088" y="1306" type="curve" smooth="yes"/>
			<point x="884" y="897"/>
			<point x="707" y="470"/>
			<point x="559" y="13" type="curve"/>
			<point x="555" y="-2"/>
			<point x="538" y="-14"/>
			<point x="523" y="-14" type="curve" smooth="yes"/>
		</contour>
	</outline>
</glyph>
<glyph name="eight" format="2">
	<unicode hex="0038"/>
	<advance width="1036"/>
	<outline>
		<contour>
			<point x="146" y="1018" type="curve" smooth="yes"/>
			<point x="146" y="1215"/>
			<point x="319" y="1372"/>
			<point x="518" y="1372" type="curve" smooth="yes"/>
			<point x="716" y="1372"/>
			<point x="892" y="1217"/>
			<point x="892" y="1018" type="curve" smooth="yes"/>
			<point x="892" y="879"/>
			<point x="802" y="759"/>
			<point x="692" y="705" type="curve"/>
			<point x="823" y="652"/>
			<point x="936" y="521"/>
			<point x="936" y="362" type="curve" smooth="yes"/>
			<point x="936" y="145"/>
			<point x="734" y="-11"/>
			<point x="518" y="-11" type="curve" smooth="yes"/>
			<point x="301" y="-11"/>
			<point x="100" y="145"/>
			<point x="100" y="363" type="curve" smooth="yes"/>
			<point x="100" y="521"/>
			<point x="212" y="653"/>
			<point x="344" y="706" type="curve"/>
			<point x="235" y="761"/>
			<point x="146" y="880"/>
		</contour>
		<contour>
			<point x="816" y="1018" type="curve" smooth="yes"/>
			<point x="816" y="1175"/>
			<point x="676" y="1297"/>
			<point x="518" y="1297" type="curve" smooth="yes"/>
			<point x="359" y="1297"/>
			<point x="222" y="1174"/>
			<point x="222" y="1018" type="curve" smooth="yes"/>
			<point x="222" y="862"/>
			<point x="363" y="740"/>
			<point x="520" y="740" type="curve" smooth="yes"/>
			<point x="677" y="740"/>
			<point x="816" y="862"/>
		</contour>
		<contour>
			<point x="862" y="362" type="curve" smooth="yes"/>
			<point x="862" y="538"/>
			<point x="694" y="663"/>
			<point x="516" y="663" type="curve" smooth="yes"/>
			<point x="338" y="663"/>
			<point x="174" y="537"/>
			<point x="174" y="363" type="curve" smooth="yes"/>
			<point x="174" y="188"/>
			<point x="341" y="64"/>
			<point x="518" y="64" type="curve" smooth="yes"/>
			<point x="694" y="64"/>
			<point x="862" y="188"/>
		</contour>
	</outline>
</glyph>
<glyph name="semicolon" format="2">
  <advance width="425"/>
  <unicode hex="003B"/>
  <outline>
    <contour>
      <point x="113.0" y="647.0" type="curve" smooth="yes"/>
      <point x="113.0" y="701.0"/>
      <point x="157.0" y="745.0"/>
      <point x="211.0" y="745.0" type="curve" smooth="yes"/>
      <point x="265.0" y="745.0"/>
      <point x="309.0" y="701.0"/>
      <point x="309.0" y="647.0" type="curve" smooth="yes"/>
      <point x="309.0" y="593.0"/>
      <point x="265.0" y="549.0"/>
      <point x="211.0" y="549.0" type="curve" smooth="yes"/>
      <point x="157.0" y="549.0"/>
      <point x="113.0" y="593.0"/>
    </contour>
    <contour>
      <point x="211.0" y="241.0" type="curve" smooth="yes"/>
      <point x="286.0" y="241.0"/>
      <point x="341.0" y="175.0"/>
      <point x="341.0" y="89.0" type="curve" smooth="yes"/>
      <point x="341.0" y="-112.0"/>
      <point x="239.0" y="-248.0"/>
      <point x="108.0" y="-333.0" type="curve" smooth="yes"/>
      <point x="101.0" y="-338.0"/>
      <point x="95.0" y="-340.0"/>
      <point x="88.0" y="-340.0" type="curve" smooth="yes"/>
      <point x="67.0" y="-340.0"/>
      <point x="50.0" y="-320.0"/>
      <point x="50.0" y="-300.0" type="curve" smooth="yes"/>
      <point x="50.0" y="-289.0"/>
      <point x="55.0" y="-278.0"/>
      <point x="67.0" y="-270.0" type="curve" smooth="yes"/>
      <point x="161.0" y="-209.0"/>
      <point x="229.0" y="-113.0"/>
      <point x="245.0" y="15.0" type="curve"/>
      <point x="234.0" y="11.0"/>
      <point x="223.0" y="9.0"/>
      <point x="211.0" y="9.0" type="curve" smooth="yes"/>
      <point x="150.0" y="9.0"/>
      <point x="100.0" y="61.0"/>
      <point x="100.0" y="125.0" type="curve" smooth="yes"/>
      <point x="100.0" y="189.0"/>
      <point x="150.0" y="241.0"/>
    </contour>
  </outline>
</glyph>
<glyph name="less" format="2">
	<unicode hex="003C"/>
	<advance width="995"/>
	<outline>
		<contour>
			<point x="864" y="902" type="line" smooth="yes"/>
			<point x="868" y="904"/>
			<point x="876" y="906"/>
			<point x="881" y="906" type="curve" smooth="yes"/>
			<point x="900" y="906"/>
			<point x="916" y="890"/>
			<point x="916" y="871" type="curve" smooth="yes"/>
			<point x="916" y="859"/>
			<point x="908" y="845"/>
			<point x="897" y="840" type="curve"/>
			<point x="189" y="464" type="line"/>
			<point x="897" y="73" type="line" smooth="yes"/>
			<point x="907" y="68"/>
			<point x="916" y="54"/>
			<point x="916" y="42" type="curve" smooth="yes"/>
			<point x="916" y="23"/>
			<point x="899" y="7"/>
			<point x="880" y="7" type="curve" smooth="yes"/>
			<point x="875" y="7"/>
			<point x="867" y="9"/>
			<point x="863" y="12" type="curve"/>
			<point x="98" y="434" type="line" smooth="yes"/>
			<point x="88" y="440"/>
			<point x="80" y="454"/>
			<point x="80" y="465" type="curve" smooth="yes"/>
			<point x="80" y="477"/>
			<point x="89" y="491"/>
			<point x="99" y="496" type="curve" smooth="yes"/>
		</contour>
	</outline>
</glyph>
<glyph name="equal" format="2">
  <advance width="1002"/>
  <unicode hex="003D"/>
  <outline>
    <contour>
      <point x="865.0" y="407.0" type="line" smooth="yes"/>
      <point x="886.0" y="407.0"/>
      <point x="902.0" y="391.0"/>
      <point x="902.0" y="370.0" type="curve" smooth="yes"/>
      <point x="902.0" y="349.0"/>
      <point x="886.0" y="332.0"/>
      <point x="865.0" y="332.0" type="curve" smooth="yes"/>
      <point x="138.0" y="332.0" type="line" smooth="yes"/>
      <point x="117.0" y="332.0"/>
      <point x="100.0" y="349.0"/>
      <point x="100.0" y="370.0" type="curve" smooth="yes"/>
      <point x="100.0" y="391.0"/>
      <point x="117.0" y="407.0"/>
      <point x="138.0" y="407.0" type="curve" smooth="yes"/>
    </contour>
    <contour>
      <point x="865.0" y="407.0" type="line" smooth="yes"/>
      <point x="886.0" y="407.0"/>
      <point x="902.0" y="391.0"/>
      <point x="902.0" y="370.0" type="curve" smooth="yes"/>
      <point x="902.0" y="349.0"/>
      <point x="886.0" y="332.0"/>
      <point x="865.0" y="332.0" type="curve" smooth="yes"/>
      <point x="138.0" y="332.0" type="line" smooth="yes"/>
      <point x="117.0" y="332.0"/>
      <point x="100.0" y="349.0"/>
      <point x="100.0" y="370.0" type="curve" smooth="yes"/>
      <point x="100.0" y="391.0"/>
      <point x="117.0" y="407.0"/>
      <point x="138.0" y="407.0" type="curve" smooth="yes"/>
    </contour>
    <contour>
      <point x="865.0" y="407.0" type="line" smooth="yes"/>
      <point x="886.0" y="407.0"/>
      <point x="902.0" y="391.0"/>
      <point x="902.0" y="370.0" type="curve" smooth="yes"/>
      <point x="902.0" y="349.0"/>
      <point x="886.0" y="332.0"/>
      <point x="865.0" y="332.0" type="curve" smooth="yes"/>
      <point x="138.0" y="332.0" type="line" smooth="yes"/>
      <point x="117.0" y="332.0"/>
      <point x="100.0" y="349.0"/>
      <point x="100.0" y="370.0" type="curve" smooth="yes"/>
      <point x="100.0" y="391.0"/>
      <point x="117.0" y="407.0"/>
      <point x="138.0" y="407.0" type="curve" smooth="yes"/>
    </contour>
    <contour>
      <point x="865.0" y="658.0" type="line" smooth="yes"/>
      <point x="886.0" y="658.0"/>
      <point x="902.0" y="641.0"/>
      <point x="902.0" y="620.0" type="curve" smooth="yes"/>
      <point x="902.0" y="599.0"/>
      <point x="886.0" y="583.0"/>
      <point x="865.0" y="583.0" type="curve" smooth="yes"/>
      <point x="138.0" y="583.0" type="line" smooth="yes"/>
      <point x="117.0" y="583.0"/>
      <point x="100.0" y="599.0"/>
      <point x="100.0" y="620.0" type="curve" smooth="yes"/>
      <point x="100.0" y="641.0"/>
      <point x="117.0" y="658.0"/>
      <point x="138.0" y="658.0" type="curve" smooth="yes"/>
    </contour>
  </outline>
</glyph>
<glyph name="greater" format="2">
  <advance width="996"/>
  <unicode hex="003E"/>
  <outline>
    <contour>
      <point x="132.0" y="902.0" type="curve" smooth="yes"/>
      <point x="897.0" y="496.0" type="line" smooth="yes"/>
      <point x="907.0" y="491.0"/>
      <point x="916.0" y="477.0"/>
      <point x="916.0" y="465.0" type="curve" smooth="yes"/>
      <point x="916.0" y="454.0"/>
      <point x="908.0" y="440.0"/>
      <point x="898.0" y="434.0" type="curve" smooth="yes"/>
      <point x="133.0" y="12.0" type="line"/>
      <point x="129.0" y="9.0"/>
      <point x="121.0" y="7.0"/>
      <point x="116.0" y="7.0" type="curve" smooth="yes"/>
      <point x="97.0" y="7.0"/>
      <point x="80.0" y="23.0"/>
      <point x="80.0" y="42.0" type="curve" smooth="yes"/>
      <point x="80.0" y="54.0"/>
      <point x="89.0" y="68.0"/>
      <point x="99.0" y="73.0" type="curve" smooth="yes"/>
      <point x="807.0" y="464.0" type="line"/>
      <point x="99.0" y="840.0" type="line"/>
      <point x="88.0" y="845.0"/>
      <point x="80.0" y="859.0"/>
      <point x="80.0" y="871.0" type="curve" smooth="yes"/>
      <point x="80.0" y="890.0"/>
      <point x="96.0" y="906.0"/>
      <point x="115.0" y="906.0" type="curve" smooth="yes"/>
      <point x="120.0" y="906.0"/>
      <point x="128.0" y="904.0"/>
    </contour>
  </outline>
</glyph>
<glyph name="question" format="2">
  <advance width="994"/>
  <unicode hex="003F"/>
  <outline>
    <contour>
      <point x="100.0" y="899.0" type="curve" smooth="yes"/>
      <point x="100.0" y="1113.0"/>
      <point x="273.0" y="1251.0"/>
      <point x="479.0" y="1251.0" type="curve" smooth="yes"/>
      <point x="703.0" y="1251.0"/>
      <point x="895.0" y="1116.0"/>
      <point x="895.0" y="890.0" type="curve" smooth="yes"/>
      <point x="895.0" y="689.0"/>
      <point x="750.0" y="580.0"/>
      <point x="644.0" y="486.0" type="curve" smooth="yes"/>
      <point x="577.0" y="427.0"/>
      <point x="510.0" y="367.0"/>
      <point x="510.0" y="255.0" type="curve" smooth="yes"/>
      <point x="510.0" y="234.0"/>
      <point x="517.0" y="213.0"/>
      <point x="517.0" y="192.0" type="curve" smooth="yes"/>
      <point x="517.0" y="170.0"/>
      <point x="499.0" y="152.0"/>
      <point x="477.0" y="152.0" type="curve" smooth="yes"/>
      <point x="433.0" y="152.0"/>
      <point x="428.0" y="213.0"/>
      <point x="428.0" y="256.0" type="curve" smooth="yes"/>
      <point x="428.0" y="394.0"/>
      <point x="516.0" y="482.0"/>
      <point x="590.0" y="547.0" type="curve" smooth="yes"/>
      <point x="690.0" y="635.0"/>
      <point x="814.0" y="720.0"/>
      <point x="814.0" y="890.0" type="curve" smooth="yes"/>
      <point x="814.0" y="1067.0"/>
      <point x="656.0" y="1170.0"/>
      <point x="480.0" y="1170.0" type="curve" smooth="yes"/>
      <point x="317.0" y="1170.0"/>
      <point x="181.0" y="1067.0"/>
      <point x="181.0" y="899.0" type="curve" smooth="yes"/>
      <point x="181.0" y="890.0"/>
      <point x="183.0" y="881.0"/>
      <point x="183.0" y="872.0" type="curve" smooth="yes"/>
      <point x="183.0" y="850.0"/>
      <point x="164.0" y="831.0"/>
      <point x="142.0" y="831.0" type="curve" smooth="yes"/>
      <point x="107.0" y="831.0"/>
      <point x="100.0" y="862.0"/>
    </contour>
    <contour>
      <point x="544.0" y="36.0" type="curve" smooth="yes"/>
      <point x="544.0" y="3.0"/>
      <point x="517.0" y="-25.0"/>
      <point x="484.0" y="-25.0" type="curve" smooth="yes"/>
      <point x="451.0" y="-25.0"/>
      <point x="423.0" y="3.0"/>
      <point x="423.0" y="36.0" type="curve" smooth="yes"/>
      <point x="423.0" y="69.0"/>
      <point x="451.0" y="96.0"/>
      <point x="484.0" y="96.0" type="curve" smooth="yes"/>
      <point x="517.0" y="96.0"/>
      <point x="544.0" y="69.0"/>
    </contour>
  </outline>
</glyph>
<glyph name="at" format="2">
	<unicode hex="0040"/>
	<advance width="1827"/>
	<outline>
		<contour>
			<point x="125" y="399" type="curve" smooth="yes"/>
			<point x="125" y="832"/>
			<point x="479" y="1181"/>
			<point x="907" y="1181" type="curve" smooth="yes"/>
			<point x="1344" y="1181"/>
			<point x="1703" y="827"/>
			<point x="1703" y="397" type="curve" smooth="yes"/>
			<point x="1703" y="212"/>
			<point x="1602" y="31"/>
			<point x="1413" y="31" type="curve" smooth="yes"/>
			<point x="1308" y="31"/>
			<point x="1216" y="102"/>
			<point x="1185" y="195" type="curve"/>
			<point x="1121" y="105"/>
			<point x="1004" y="38"/>
			<point x="882" y="38" type="curve" smooth="yes"/>
			<point x="675" y="38"/>
			<point x="511" y="211"/>
			<point x="511" y="417" type="curve" smooth="yes"/>
			<point x="511" y="622"/>
			<point x="679" y="795"/>
			<point x="883" y="795" type="curve" smooth="yes"/>
			<point x="999" y="795"/>
			<point x="1111" y="735"/>
			<point x="1176" y="650" type="curve"/>
			<point x="1175" y="758" type="line"/>
			<point x="1175" y="759" type="line" smooth="yes"/>
			<point x="1175" y="780"/>
			<point x="1192" y="797"/>
			<point x="1213" y="797" type="curve" smooth="yes"/>
			<point x="1234" y="797"/>
			<point x="1250" y="780"/>
			<point x="1250" y="759" type="curve" smooth="yes"/>
			<point x="1251" y="595"/>
			<point x="1251" y="432"/>
			<point x="1251" y="273" type="curve" smooth="yes"/>
			<point x="1251" y="179"/>
			<point x="1324" y="106"/>
			<point x="1413" y="106" type="curve" smooth="yes"/>
			<point x="1558" y="106"/>
			<point x="1628" y="254"/>
			<point x="1628" y="398" type="curve" smooth="yes"/>
			<point x="1628" y="787"/>
			<point x="1299" y="1106"/>
			<point x="906" y="1106" type="curve" smooth="yes"/>
			<point x="519" y="1106"/>
			<point x="200" y="791"/>
			<point x="200" y="399" type="curve" smooth="yes"/>
			<point x="200" y="24"/>
			<point x="500" y="-297"/>
			<point x="902" y="-297" type="curve" smooth="yes"/>
			<point x="984" y="-297"/>
			<point x="1066" y="-283"/>
			<point x="1143" y="-254" type="curve"/>
			<point x="1147" y="-253"/>
			<point x="1153" y="-251"/>
			<point x="1157" y="-251" type="curve" smooth="yes"/>
			<point x="1178" y="-251"/>
			<point x="1194" y="-268"/>
			<point x="1194" y="-289" type="curve" smooth="yes"/>
			<point x="1194" y="-304"/>
			<point x="1183" y="-319"/>
			<point x="1169" y="-324" type="curve" smooth="yes"/>
			<point x="1083" y="-356"/>
			<point x="992" y="-372"/>
			<point x="901" y="-372" type="curve" smooth="yes"/>
			<point x="457" y="-372"/>
			<point x="125" y="-17"/>
		</contour>
		<contour>
			<point x="883" y="720" type="curve" smooth="yes"/>
			<point x="720" y="720"/>
			<point x="586" y="580"/>
			<point x="586" y="416" type="curve" smooth="yes"/>
			<point x="586" y="252"/>
			<point x="718" y="113"/>
			<point x="882" y="113" type="curve" smooth="yes"/>
			<point x="1074" y="113"/>
			<point x="1170" y="264"/>
			<point x="1170" y="415" type="curve" smooth="yes"/>
			<point x="1170" y="567"/>
			<point x="1073" y="720"/>
		</contour>
	</outline>
</glyph>
<glyph name="A" format="2">
	<unicode hex="0041"/>
	<advance width="1318"/>
	<outline>
		<contour>
			<point x="624" y="1351" type="line" smooth="yes"/>
			<point x="629" y="1363"/>
			<point x="645" y="1374"/>
			<point x="659" y="1374" type="curve" smooth="yes"/>
			<point x="673" y="1374"/>
			<point x="688" y="1364"/>
			<point x="693" y="1352" type="curve" smooth="yes"/>
			<point x="1265" y="43" type="line"/>
			<point x="1267" y="39"/>
			<point x="1268" y="31"/>
			<point x="1268" y="27" type="curve" smooth="yes"/>
			<point x="1268" y="6"/>
			<point x="1252" y="-10"/>
			<point x="1231" y="-10" type="curve" smooth="yes"/>
			<point x="1217" y="-10"/>
			<point x="1201" y="0"/>
			<point x="1196" y="13" type="curve" smooth="yes"/>
			<point x="991" y="482" type="line"/>
			<point x="331" y="489" type="line"/>
			<point x="122" y="11" type="line" smooth="yes"/>
			<point x="117" y="-2"/>
			<point x="102" y="-12"/>
			<point x="88" y="-12" type="curve" smooth="yes"/>
			<point x="67" y="-12"/>
			<point x="50" y="4"/>
			<point x="50" y="25" type="curve" smooth="yes"/>
			<point x="50" y="29"/>
			<point x="51" y="36"/>
			<point x="53" y="40" type="curve"/>
		</contour>
		<contour>
			<point x="659" y="1243" type="line"/>
			<point x="363" y="564" type="line"/>
			<point x="958" y="558" type="line"/>
		</contour>
	</outline>
</glyph>
<glyph name="B" format="2">
	<unicode hex="0042"/>
	<advance width="1179"/>
	<outline>
		<contour>
			<point x="889" y="732" type="curve"/>
			<point x="1014" y="681"/>
			<point x="1099" y="565"/>
			<point x="1099" y="396" type="curve" smooth="yes"/>
			<point x="1099" y="135"/>
			<point x="954" y="2"/>
			<point x="690" y="2" type="curve" smooth="yes"/>
			<point x="160" y="0" type="line"/>
			<point x="159" y="0" type="line" smooth="yes"/>
			<point x="138" y="0"/>
			<point x="122" y="17"/>
			<point x="122" y="38" type="curve" smooth="yes"/>
			<point x="120" y="1329" type="line" smooth="yes"/>
			<point x="120" y="1349"/>
			<point x="137" y="1366"/>
			<point x="157" y="1366" type="curve" smooth="yes"/>
			<point x="500" y="1370" type="line" smooth="yes"/>
			<point x="770" y="1370"/>
			<point x="1041" y="1276"/>
			<point x="1041" y="1001" type="curve" smooth="yes"/>
			<point x="1041" y="884"/>
			<point x="973" y="782"/>
		</contour>
		<contour>
			<point x="966" y="1002" type="curve" smooth="yes"/>
			<point x="966" y="1233"/>
			<point x="724" y="1295"/>
			<point x="494" y="1295" type="curve" smooth="yes"/>
			<point x="195" y="1292" type="line"/>
			<point x="196" y="754" type="line"/>
			<point x="671" y="762" type="line" smooth="yes"/>
			<point x="834" y="762"/>
			<point x="966" y="833"/>
		</contour>
		<contour>
			<point x="1024" y="396" type="curve" smooth="yes"/>
			<point x="1024" y="609"/>
			<point x="889" y="687"/>
			<point x="672" y="687" type="curve" smooth="yes"/>
			<point x="196" y="679" type="line"/>
			<point x="197" y="75" type="line"/>
			<point x="690" y="77" type="line" smooth="yes"/>
			<point x="910" y="78"/>
			<point x="1024" y="176"/>
		</contour>
	</outline>
</glyph>
<glyph name="C" format="2">
	<unicode hex="0043"/>
	<advance width="1452"/>
	<outline>
		<contour>
			<point x="80" y="679" type="curve" smooth="yes"/>
			<point x="80" y="1058"/>
			<point x="378" y="1372"/>
			<point x="761" y="1372" type="curve" smooth="yes"/>
			<point x="1054" y="1372"/>
			<point x="1269" y="1196"/>
			<point x="1367" y="990" type="curve" smooth="yes"/>
			<point x="1369" y="986"/>
			<point x="1370" y="979"/>
			<point x="1370" y="974" type="curve" smooth="yes"/>
			<point x="1370" y="953"/>
			<point x="1354" y="936"/>
			<point x="1333" y="936" type="curve" smooth="yes"/>
			<point x="1320" y="936"/>
			<point x="1305" y="946"/>
			<point x="1299" y="958" type="curve" smooth="yes"/>
			<point x="1212" y="1141"/>
			<point x="1020" y="1297"/>
			<point x="760" y="1297" type="curve" smooth="yes"/>
			<point x="419" y="1297"/>
			<point x="155" y="1016"/>
			<point x="155" y="679" type="curve" smooth="yes"/>
			<point x="155" y="341"/>
			<point x="416" y="62"/>
			<point x="758" y="62" type="curve" smooth="yes"/>
			<point x="1024" y="62"/>
			<point x="1216" y="223"/>
			<point x="1301" y="412" type="curve" smooth="yes"/>
			<point x="1306" y="424"/>
			<point x="1321" y="434"/>
			<point x="1335" y="434" type="curve" smooth="yes"/>
			<point x="1356" y="434"/>
			<point x="1373" y="418"/>
			<point x="1373" y="397" type="curve" smooth="yes"/>
			<point x="1373" y="392"/>
			<point x="1371" y="385"/>
			<point x="1369" y="381" type="curve" smooth="yes"/>
			<point x="1273" y="168"/>
			<point x="1057" y="-13"/>
			<point x="758" y="-13" type="curve" smooth="yes"/>
			<point x="373" y="-13"/>
			<point x="80" y="299"/>
		</contour>
	</outline>
</glyph>
<glyph name="D" format="2">
	<unicode hex="0044"/>
	<advance width="1333"/>
	<outline>
		<contour>
			<point x="443" y="1369" type="line" smooth="yes"/>
			<point x="916" y="1369"/>
			<point x="1254" y="1149"/>
			<point x="1254" y="681" type="curve" smooth="yes"/>
			<point x="1254" y="222"/>
			<point x="924" y="-7"/>
			<point x="460" y="-7" type="curve" smooth="yes"/>
			<point x="358" y="-7"/>
			<point x="258" y="-5"/>
			<point x="157" y="-4" type="curve" smooth="yes"/>
			<point x="137" y="-4"/>
			<point x="120" y="14"/>
			<point x="120" y="34" type="curve" smooth="yes"/>
			<point x="127" y="1330" type="line" smooth="yes"/>
			<point x="127" y="1350"/>
			<point x="144" y="1368"/>
			<point x="164" y="1368" type="curve" smooth="yes"/>
		</contour>
		<contour>
			<point x="202" y="1293" type="line"/>
			<point x="195" y="71" type="line"/>
			<point x="282" y="70"/>
			<point x="368" y="68"/>
			<point x="457" y="68" type="curve" smooth="yes"/>
			<point x="881" y="68"/>
			<point x="1179" y="263"/>
			<point x="1179" y="681" type="curve" smooth="yes"/>
			<point x="1179" y="1108"/>
			<point x="874" y="1294"/>
			<point x="441" y="1294" type="curve" smooth="yes"/>
		</contour>
	</outline>
</glyph>
<glyph name="E" format="2">
	<unicode hex="0045"/>
	<advance width="1123"/>
	<outline>
		<contour>
			<point x="158" y="1375" type="curve" smooth="yes"/>
			<point x="1035" y="1374" type="line"/>
			<point x="1036" y="1374" type="line" smooth="yes"/>
			<point x="1057" y="1374"/>
			<point x="1073" y="1357"/>
			<point x="1073" y="1336" type="curve" smooth="yes"/>
			<point x="1073" y="1315"/>
			<point x="1057" y="1298"/>
			<point x="1036" y="1298" type="curve"/>
			<point x="1035" y="1299" type="line"/>
			<point x="195" y="1300" type="line"/>
			<point x="197" y="725" type="line"/>
			<point x="958" y="721" type="line" smooth="yes"/>
			<point x="979" y="721"/>
			<point x="996" y="705"/>
			<point x="996" y="684" type="curve" smooth="yes"/>
			<point x="996" y="662"/>
			<point x="979" y="646"/>
			<point x="957" y="646" type="curve" smooth="yes"/>
			<point x="197" y="653" type="line"/>
			<point x="198" y="74" type="line"/>
			<point x="1035" y="75" type="line"/>
			<point x="1036" y="75" type="line" smooth="yes"/>
			<point x="1057" y="75"/>
			<point x="1073" y="58"/>
			<point x="1073" y="37" type="curve" smooth="yes"/>
			<point x="1073" y="16"/>
			<point x="1057" y="0"/>
			<point x="1036" y="0" type="curve" smooth="yes"/>
			<point x="1035" y="0" type="line"/>
			<point x="161" y="-1" type="line" smooth="yes"/>
			<point x="140" y="-1"/>
			<point x="123" y="15"/>
			<point x="123" y="36" type="curve" smooth="yes"/>
			<point x="120" y="1337" type="line" smooth="yes"/>
			<point x="120" y="1358"/>
			<point x="137" y="1375"/>
		</contour>
	</outline>
</glyph>
<glyph name="F" format="2">
	<unicode hex="0046"/>
	<advance width="1059"/>
	<outline>
		<contour>
			<point x="197" y="677" type="line"/>
			<point x="198" y="27" type="line" smooth="yes"/>
			<point x="198" y="6"/>
			<point x="182" y="-11"/>
			<point x="161" y="-11" type="curve" smooth="yes"/>
			<point x="140" y="-11"/>
			<point x="123" y="6"/>
			<point x="123" y="27" type="curve" smooth="yes"/>
			<point x="120" y="1321" type="line" smooth="yes"/>
			<point x="120" y="1342"/>
			<point x="136" y="1359"/>
			<point x="157" y="1359" type="curve" smooth="yes"/>
			<point x="971" y="1360" type="line" smooth="yes"/>
			<point x="992" y="1360"/>
			<point x="1009" y="1343"/>
			<point x="1009" y="1322" type="curve" smooth="yes"/>
			<point x="1009" y="1301"/>
			<point x="992" y="1285"/>
			<point x="971" y="1285" type="curve" smooth="yes"/>
			<point x="195" y="1284" type="line"/>
			<point x="196" y="751" type="line"/>
			<point x="785" y="757" type="line"/>
			<point x="786" y="757" type="line" smooth="yes"/>
			<point x="807" y="757"/>
			<point x="823" y="741"/>
			<point x="823" y="720" type="curve" smooth="yes"/>
			<point x="823" y="699"/>
			<point x="807" y="682"/>
			<point x="786" y="682" type="curve" smooth="yes"/>
		</contour>
	</outline>
</glyph>
<glyph name="G" format="2">
  <advance width="1392"/>
  <unicode hex="0047"/>
  <outline>
    <contour>
      <point x="80.0" y="661.0" type="curve" smooth="yes"/>
      <point x="80.0" y="1051.0"/>
      <point x="367.0" y="1373.0"/>
      <point x="783.0" y="1373.0" type="curve" smooth="yes"/>
      <point x="973.0" y="1373.0"/>
      <point x="1120.0" y="1318.0"/>
      <point x="1256.0" y="1222.0" type="curve" smooth="yes"/>
      <point x="1265.0" y="1216.0"/>
      <point x="1272.0" y="1202.0"/>
      <point x="1272.0" y="1191.0" type="curve" smooth="yes"/>
      <point x="1272.0" y="1170.0"/>
      <point x="1256.0" y="1154.0"/>
      <point x="1235.0" y="1154.0" type="curve" smooth="yes"/>
      <point x="1228.0" y="1154.0"/>
      <point x="1218.0" y="1157.0"/>
      <point x="1213.0" y="1161.0" type="curve"/>
      <point x="1091.0" y="1247.0"/>
      <point x="954.0" y="1298.0"/>
      <point x="784.0" y="1298.0" type="curve" smooth="yes"/>
      <point x="412.0" y="1298.0"/>
      <point x="155.0" y="1012.0"/>
      <point x="155.0" y="661.0" type="curve" smooth="yes"/>
      <point x="155.0" y="299.0"/>
      <point x="405.0" y="65.0"/>
      <point x="768.0" y="65.0" type="curve" smooth="yes"/>
      <point x="919.0" y="65.0"/>
      <point x="1058.0" y="101.0"/>
      <point x="1174.0" y="146.0" type="curve"/>
      <point x="1170.0" y="609.0" type="line"/>
      <point x="785.0" y="609.0" type="line" smooth="yes"/>
      <point x="764.0" y="609.0"/>
      <point x="747.0" y="626.0"/>
      <point x="747.0" y="647.0" type="curve" smooth="yes"/>
      <point x="747.0" y="668.0"/>
      <point x="764.0" y="684.0"/>
      <point x="785.0" y="684.0" type="curve" smooth="yes"/>
      <point x="1208.0" y="684.0" type="line" smooth="yes"/>
      <point x="1229.0" y="684.0"/>
      <point x="1245.0" y="668.0"/>
      <point x="1245.0" y="647.0" type="curve" smooth="yes"/>
      <point x="1249.0" y="121.0" type="line" smooth="yes"/>
      <point x="1249.0" y="107.0"/>
      <point x="1239.0" y="91.0"/>
      <point x="1226.0" y="86.0" type="curve" smooth="yes"/>
      <point x="1094.0" y="32.0"/>
      <point x="942.0" y="-10.0"/>
      <point x="768.0" y="-10.0" type="curve" smooth="yes"/>
      <point x="363.0" y="-10.0"/>
      <point x="80.0" y="257.0"/>
    </contour>
  </outline>
</glyph>
<glyph name="H" format="2">
  <advance width="1200"/>
  <unicode hex="0048"/>
  <outline>
    <contour>
      <point x="1062.0" y="1374.0" type="curve" smooth="yes"/>
      <point x="1083.0" y="1374.0"/>
      <point x="1100.0" y="1357.0"/>
      <point x="1100.0" y="1336.0" type="curve" smooth="yes"/>
      <point x="1100.0" y="899.0"/>
      <point x="1099.0" y="461.0"/>
      <point x="1099.0" y="24.0" type="curve" smooth="yes"/>
      <point x="1099.0" y="3.0"/>
      <point x="1082.0" y="-13.0"/>
      <point x="1061.0" y="-13.0" type="curve" smooth="yes"/>
      <point x="1040.0" y="-13.0"/>
      <point x="1024.0" y="3.0"/>
      <point x="1024.0" y="24.0" type="curve" smooth="yes"/>
      <point x="1024.0" y="677.0" type="line"/>
      <point x="197.0" y="676.0" type="line"/>
      <point x="198.0" y="26.0" type="line" smooth="yes"/>
      <point x="198.0" y="5.0"/>
      <point x="182.0" y="-12.0"/>
      <point x="161.0" y="-12.0" type="curve" smooth="yes"/>
      <point x="140.0" y="-12.0"/>
      <point x="123.0" y="-3.0"/>
      <point x="123.0" y="18.0" type="curve" smooth="yes"/>
      <point x="123.0" y="26.0" type="line"/>
      <point x="120.0" y="1336.0" type="line" smooth="yes"/>
      <point x="120.0" y="1356.0"/>
      <point x="137.0" y="1374.0"/>
      <point x="158.0" y="1374.0" type="curve" smooth="yes"/>
      <point x="179.0" y="1374.0"/>
      <point x="195.0" y="1357.0"/>
      <point x="195.0" y="1336.0" type="curve" smooth="yes"/>
      <point x="196.0" y="751.0" type="line"/>
      <point x="197.0" y="751.0" type="line"/>
      <point x="1024.0" y="752.0" type="line"/>
      <point x="1025.0" y="1336.0" type="line" smooth="yes"/>
      <point x="1025.0" y="1357.0"/>
      <point x="1041.0" y="1374.0"/>
    </contour>
  </outline>
</glyph>
<glyph name="I" format="2">
	<unicode hex="0049"/>
	<advance width="316"/>
	<outline>
		<contour>
			<point x="158" y="1373" type="curve" smooth="yes"/>
			<point x="179" y="1373"/>
			<point x="195" y="1356"/>
			<point x="195" y="1335" type="curve" smooth="yes"/>
			<point x="196" y="26" type="line"/>
			<point x="196" y="25" type="line" smooth="yes"/>
			<point x="196" y="4"/>
			<point x="180" y="-13"/>
			<point x="159" y="-13" type="curve" smooth="yes"/>
			<point x="138" y="-13"/>
			<point x="121" y="4"/>
			<point x="121" y="25" type="curve" smooth="yes"/>
			<point x="120" y="1335" type="line" smooth="yes"/>
			<point x="120" y="1355"/>
			<point x="137" y="1373"/>
		</contour>
	</outline>
</glyph>
<glyph name="J" format="2">
	<unicode hex="004A"/>
	<advance width="858"/>
	<outline>
		<contour>
			<point x="651" y="1336" type="line" smooth="yes"/>
			<point x="651" y="1356"/>
			<point x="668" y="1373"/>
			<point x="689" y="1373" type="curve" smooth="yes"/>
			<point x="710" y="1373"/>
			<point x="726" y="1357"/>
			<point x="726" y="1336" type="curve" smooth="yes"/>
			<point x="737" y="597" type="line" smooth="yes"/>
			<point x="737" y="285"/>
			<point x="655" y="-12"/>
			<point x="336" y="-12" type="curve" smooth="yes"/>
			<point x="201" y="-12"/>
			<point x="98" y="63"/>
			<point x="45" y="153" type="curve" smooth="yes"/>
			<point x="16" y="203"/>
			<point x="0" y="261"/>
			<point x="0" y="319" type="curve" smooth="yes"/>
			<point x="0" y="340"/>
			<point x="17" y="357"/>
			<point x="38" y="357" type="curve" smooth="yes"/>
			<point x="59" y="357"/>
			<point x="75" y="340"/>
			<point x="75" y="319" type="curve" smooth="yes"/>
			<point x="75" y="181"/>
			<point x="191" y="62"/>
			<point x="334" y="62" type="curve" smooth="yes"/>
			<point x="603" y="62"/>
			<point x="662" y="327"/>
			<point x="662" y="596" type="curve" smooth="yes"/>
			<point x="651" y="1335" type="line"/>
		</contour>
	</outline>
</glyph>
<glyph name="K" format="2">
	<unicode hex="004B"/>
	<advance width="1183"/>
	<outline>
		<contour>
			<point x="128" y="1336" type="curve" smooth="yes"/>
			<point x="128" y="1356"/>
			<point x="145" y="1373"/>
			<point x="165" y="1373" type="curve" smooth="yes"/>
			<point x="166" y="1373" type="line" smooth="yes"/>
			<point x="187" y="1373"/>
			<point x="203" y="1357"/>
			<point x="203" y="1336" type="curve" smooth="yes"/>
			<point x="203" y="1335" type="line"/>
			<point x="203" y="1335"/>
			<point x="202" y="978"/>
			<point x="200" y="634" type="curve"/>
			<point x="1031" y="1363" type="line" smooth="yes"/>
			<point x="1037" y="1368"/>
			<point x="1048" y="1373"/>
			<point x="1056" y="1373" type="curve" smooth="yes"/>
			<point x="1058" y="1373" type="line" smooth="yes"/>
			<point x="1078" y="1372"/>
			<point x="1094" y="1356"/>
			<point x="1094" y="1336" type="curve" smooth="yes"/>
			<point x="1094" y="1326"/>
			<point x="1088" y="1313"/>
			<point x="1081" y="1307" type="curve" smooth="yes"/>
			<point x="439" y="744" type="line"/>
			<point x="1122" y="52" type="line" smooth="yes"/>
			<point x="1128" y="46"/>
			<point x="1133" y="34"/>
			<point x="1133" y="25" type="curve" smooth="yes"/>
			<point x="1133" y="4"/>
			<point x="1117" y="-12"/>
			<point x="1096" y="-12" type="curve" smooth="yes"/>
			<point x="1087" y="-12"/>
			<point x="1075" y="-7"/>
			<point x="1069" y="-1" type="curve" smooth="yes"/>
			<point x="382" y="694" type="line"/>
			<point x="199" y="534" type="line"/>
			<point x="198" y="299"/>
			<point x="196" y="87"/>
			<point x="195" y="23" type="curve"/>
			<point x="195" y="2"/>
			<point x="179" y="-14"/>
			<point x="158" y="-14" type="curve" smooth="yes"/>
			<point x="137" y="-14"/>
			<point x="120" y="2"/>
			<point x="120" y="23" type="curve" smooth="yes"/>
			<point x="120" y="25" type="line" smooth="yes"/>
			<point x="122" y="174"/>
			<point x="128" y="1331"/>
		</contour>
	</outline>
</glyph>
<glyph name="L" format="2">
	<unicode hex="004C"/>
	<advance width="1228"/>
	<outline>
		<contour>
			<point x="158" y="1373" type="curve" smooth="yes"/>
			<point x="179" y="1373"/>
			<point x="195" y="1356"/>
			<point x="195" y="1335" type="curve" smooth="yes"/>
			<point x="198" y="74" type="line"/>
			<point x="1140" y="76" type="line"/>
			<point x="1141" y="76" type="line" smooth="yes"/>
			<point x="1162" y="76"/>
			<point x="1179" y="60"/>
			<point x="1179" y="39" type="curve" smooth="yes"/>
			<point x="1179" y="18"/>
			<point x="1162" y="1"/>
			<point x="1141" y="1" type="curve" smooth="yes"/>
			<point x="161" y="-1" type="line" smooth="yes"/>
			<point x="140" y="-1"/>
			<point x="123" y="15"/>
			<point x="123" y="36" type="curve" smooth="yes"/>
			<point x="120" y="1335" type="line" smooth="yes"/>
			<point x="120" y="1355"/>
			<point x="137" y="1373"/>
		</contour>
	</outline>
</glyph>
<glyph name="M" format="2">
  <advance width="1601"/>
  <unicode hex="004D"/>
  <outline>
    <contour>
      <point x="158.0" y="1373.0" type="curve" smooth="yes"/>
      <point x="171.0" y="1373.0"/>
      <point x="186.0" y="1364.0"/>
      <point x="192.0" y="1352.0" type="curve"/>
      <point x="825.0" y="317.0" type="line"/>
      <point x="1411.0" y="1357.0" type="line"/>
      <point x="1418.0" y="1368.0"/>
      <point x="1430.0" y="1376.0"/>
      <point x="1444.0" y="1376.0" type="curve" smooth="yes"/>
      <point x="1465.0" y="1376.0"/>
      <point x="1481.0" y="1360.0"/>
      <point x="1481.0" y="1339.0" type="curve" smooth="yes"/>
      <point x="1482.0" y="26.0" type="line" smooth="yes"/>
      <point x="1482.0" y="5.0"/>
      <point x="1465.0" y="-12.0"/>
      <point x="1444.0" y="-12.0" type="curve" smooth="yes"/>
      <point x="1423.0" y="-12.0"/>
      <point x="1407.0" y="5.0"/>
      <point x="1407.0" y="26.0" type="curve" smooth="yes"/>
      <point x="1406.0" y="1198.0" type="line"/>
      <point x="859.0" y="225.0" type="line" smooth="yes"/>
      <point x="853.0" y="214.0"/>
      <point x="838.0" y="205.0"/>
      <point x="826.0" y="205.0" type="curve" smooth="yes"/>
      <point x="814.0" y="205.0"/>
      <point x="800.0" y="213.0"/>
      <point x="794.0" y="223.0" type="curve" smooth="yes"/>
      <point x="196.0" y="1202.0" type="line"/>
      <point x="199.0" y="31.0" type="line"/>
      <point x="199.0" y="30.0" type="line" smooth="yes"/>
      <point x="199.0" y="9.0"/>
      <point x="182.0" y="-7.0"/>
      <point x="161.0" y="-7.0" type="curve" smooth="yes"/>
      <point x="140.0" y="-7.0"/>
      <point x="124.0" y="9.0"/>
      <point x="124.0" y="30.0" type="curve" smooth="yes"/>
      <point x="123.0" y="465.0"/>
      <point x="121.0" y="901.0"/>
      <point x="120.0" y="1336.0" type="curve" smooth="yes"/>
      <point x="120.0" y="1356.0"/>
      <point x="136.0" y="1373.0"/>
    </contour>
  </outline>
</glyph>
<glyph name="N" format="2">
	<unicode hex="004E"/>
	<advance width="1310"/>
	<outline>
		<contour>
			<point x="158" y="1375" type="curve" smooth="yes"/>
			<point x="169" y="1375"/>
			<point x="182" y="1368"/>
			<point x="188" y="1360" type="curve" smooth="yes"/>
			<point x="1115" y="136" type="line"/>
			<point x="1116" y="1336" type="line"/>
			<point x="1116" y="1337" type="line" smooth="yes"/>
			<point x="1116" y="1358"/>
			<point x="1132" y="1374"/>
			<point x="1153" y="1374" type="curve" smooth="yes"/>
			<point x="1174" y="1374"/>
			<point x="1191" y="1358"/>
			<point x="1191" y="1337" type="curve" smooth="yes"/>
			<point x="1191" y="1336" type="line"/>
			<point x="1190" y="24" type="line"/>
			<point x="1190" y="3"/>
			<point x="1173" y="-14"/>
			<point x="1152" y="-14" type="curve" smooth="yes"/>
			<point x="1142" y="-14"/>
			<point x="1128" y="-7"/>
			<point x="1122" y="1" type="curve" smooth="yes"/>
			<point x="195" y="1225" type="line"/>
			<point x="195" y="25" type="line" smooth="yes"/>
			<point x="195" y="4"/>
			<point x="179" y="-12"/>
			<point x="158" y="-12" type="curve" smooth="yes"/>
			<point x="137" y="-12"/>
			<point x="120" y="4"/>
			<point x="120" y="25" type="curve" smooth="yes"/>
			<point x="120" y="1337" type="line" smooth="yes"/>
			<point x="120" y="1358"/>
			<point x="137" y="1375"/>
		</contour>
	</outline>
</glyph>
<glyph name="O" format="2">
  <advance width="1522"/>
  <unicode hex="004F"/>
  <outline>
    <contour>
      <point x="80.0" y="681.0" type="curve" smooth="yes"/>
      <point x="80.0" y="1060.0"/>
      <point x="384.0" y="1372.0"/>
      <point x="761.0" y="1372.0" type="curve" smooth="yes"/>
      <point x="1138.0" y="1372.0"/>
      <point x="1443.0" y="1053.0"/>
      <point x="1443.0" y="681.0" type="curve" smooth="yes"/>
      <point x="1443.0" y="307.0"/>
      <point x="1135.0" y="-11.0"/>
      <point x="760.0" y="-11.0" type="curve" smooth="yes"/>
      <point x="387.0" y="-11.0"/>
      <point x="80.0" y="301.0"/>
    </contour>
    <contour>
      <point x="761.0" y="1297.0" type="curve" smooth="yes"/>
      <point x="426.0" y="1297.0"/>
      <point x="155.0" y="1018.0"/>
      <point x="155.0" y="682.0" type="curve" smooth="yes"/>
      <point x="155.0" y="344.0"/>
      <point x="429.0" y="64.0"/>
      <point x="760.0" y="64.0" type="curve" smooth="yes"/>
      <point x="1093.0" y="64.0"/>
      <point x="1368.0" y="349.0"/>
      <point x="1368.0" y="681.0" type="curve" smooth="yes"/>
      <point x="1368.0" y="1013.0"/>
      <point x="1097.0" y="1297.0"/>
    </contour>
  </outline>
</glyph>
<glyph name="P" format="2">
	<unicode hex="0050"/>
	<advance width="1046"/>
	<outline>
		<contour>
			<point x="967" y="963" type="curve" smooth="yes"/>
			<point x="967" y="653"/>
			<point x="728" y="528"/>
			<point x="420" y="522" type="curve" smooth="yes"/>
			<point x="196" y="517" type="line"/>
			<point x="197" y="26" type="line" smooth="yes"/>
			<point x="197" y="5"/>
			<point x="180" y="-12"/>
			<point x="159" y="-12" type="curve" smooth="yes"/>
			<point x="138" y="-12"/>
			<point x="122" y="5"/>
			<point x="122" y="26" type="curve" smooth="yes"/>
			<point x="120" y="1324" type="line" smooth="yes"/>
			<point x="120" y="1344"/>
			<point x="137" y="1361"/>
			<point x="157" y="1361" type="curve" smooth="yes"/>
			<point x="264" y="1363"/>
			<point x="370" y="1365"/>
			<point x="478" y="1366" type="curve" smooth="yes"/>
			<point x="758" y="1366"/>
			<point x="967" y="1240"/>
		</contour>
		<contour>
			<point x="893" y="963" type="curve" smooth="yes"/>
			<point x="893" y="1195"/>
			<point x="714" y="1291"/>
			<point x="478" y="1291" type="curve" smooth="yes"/>
			<point x="383" y="1291"/>
			<point x="289" y="1288"/>
			<point x="195" y="1287" type="curve"/>
			<point x="196" y="592" type="line"/>
			<point x="419" y="597" type="line" smooth="yes"/>
			<point x="685" y="603"/>
			<point x="893" y="701"/>
		</contour>
	</outline>
</glyph>
<glyph name="Q" format="2">
  <advance width="1528"/>
  <unicode hex="0051"/>
  <outline>
    <contour>
      <point x="80.0" y="678.0" type="curve" smooth="yes"/>
      <point x="80.0" y="1058.0"/>
      <point x="385.0" y="1371.0"/>
      <point x="763.0" y="1372.0" type="curve" smooth="yes"/>
      <point x="764.0" y="1372.0" type="line" smooth="yes"/>
      <point x="1143.0" y="1372.0"/>
      <point x="1449.0" y="1052.0"/>
      <point x="1449.0" y="678.0" type="curve" smooth="yes"/>
      <point x="1449.0" y="314.0"/>
      <point x="1163.0" y="10.0"/>
      <point x="812.0" y="-16.0" type="curve"/>
      <point x="859.0" y="-120.0"/>
      <point x="981.0" y="-168.0"/>
      <point x="1178.0" y="-168.0" type="curve" smooth="yes"/>
      <point x="1215.0" y="-168.0"/>
      <point x="1256.0" y="-166.0"/>
      <point x="1301.0" y="-161.0" type="curve"/>
      <point x="1306.0" y="-161.0" type="line" smooth="yes"/>
      <point x="1327.0" y="-161.0"/>
      <point x="1343.0" y="-177.0"/>
      <point x="1343.0" y="-198.0" type="curve" smooth="yes"/>
      <point x="1343.0" y="-217.0"/>
      <point x="1328.0" y="-234.0"/>
      <point x="1309.0" y="-236.0" type="curve" smooth="yes"/>
      <point x="1262.0" y="-241.0"/>
      <point x="1219.0" y="-243.0"/>
      <point x="1179.0" y="-243.0" type="curve" smooth="yes"/>
      <point x="953.0" y="-243.0"/>
      <point x="782.0" y="-175.0"/>
      <point x="739.0" y="-32.0" type="curve" smooth="yes"/>
      <point x="738.0" y="-29.0"/>
      <point x="737.0" y="-24.0"/>
      <point x="737.0" y="-21.0" type="curve" smooth="yes"/>
      <point x="737.0" y="-17.0" type="line"/>
      <point x="381.0" y="-4.0"/>
      <point x="80.0" y="303.0"/>
    </contour>
    <contour>
      <point x="763.0" y="1297.0" type="curve" smooth="yes"/>
      <point x="427.0" y="1297.0"/>
      <point x="155.0" y="1017.0"/>
      <point x="155.0" y="679.0" type="curve" smooth="yes"/>
      <point x="155.0" y="340.0"/>
      <point x="430.0" y="57.0"/>
      <point x="763.0" y="57.0" type="curve" smooth="yes"/>
      <point x="1099.0" y="57.0"/>
      <point x="1374.0" y="343.0"/>
      <point x="1374.0" y="678.0" type="curve" smooth="yes"/>
      <point x="1374.0" y="1012.0"/>
      <point x="1102.0" y="1297.0"/>
    </contour>
  </outline>
</glyph>
<glyph name="R" format="2">
	<unicode hex="0052"/>
	<advance width="1213"/>
	<outline>
		<contour>
			<point x="710" y="607" type="curve"/>
			<point x="821" y="537"/>
			<point x="873" y="401"/>
			<point x="932" y="297" type="curve" smooth="yes"/>
			<point x="986" y="202"/>
			<point x="1060" y="118"/>
			<point x="1148" y="53" type="curve" smooth="yes"/>
			<point x="1157" y="47"/>
			<point x="1164" y="33"/>
			<point x="1164" y="22" type="curve" smooth="yes"/>
			<point x="1164" y="1"/>
			<point x="1147" y="-16"/>
			<point x="1126" y="-16" type="curve" smooth="yes"/>
			<point x="1119" y="-16"/>
			<point x="1110" y="-12"/>
			<point x="1104" y="-8" type="curve" smooth="yes"/>
			<point x="1007" y="63"/>
			<point x="925" y="155"/>
			<point x="866" y="260" type="curve" smooth="yes"/>
			<point x="781" y="410"/>
			<point x="725" y="593"/>
			<point x="520" y="593" type="curve" smooth="yes"/>
			<point x="197" y="593" type="line"/>
			<point x="199" y="23" type="line"/>
			<point x="199" y="22" type="line" smooth="yes"/>
			<point x="199" y="1"/>
			<point x="182" y="-15"/>
			<point x="161" y="-15" type="curve" smooth="yes"/>
			<point x="140" y="-15"/>
			<point x="124" y="1"/>
			<point x="124" y="22" type="curve" smooth="yes"/>
			<point x="124" y="23" type="line"/>
			<point x="120" y="1325" type="line" smooth="yes"/>
			<point x="120" y="1345"/>
			<point x="137" y="1362"/>
			<point x="157" y="1362" type="curve" smooth="yes"/>
			<point x="518" y="1368" type="line" smooth="yes"/>
			<point x="807" y="1368"/>
			<point x="1077" y="1274"/>
			<point x="1077" y="989" type="curve" smooth="yes"/>
			<point x="1077" y="769"/>
			<point x="900" y="640"/>
		</contour>
		<contour>
			<point x="1003" y="990" type="curve" smooth="yes"/>
			<point x="1003" y="1229"/>
			<point x="762" y="1293"/>
			<point x="520" y="1293" type="curve" smooth="yes"/>
			<point x="195" y="1288" type="line"/>
			<point x="197" y="668" type="line"/>
			<point x="519" y="670" type="line" smooth="yes"/>
			<point x="770" y="672"/>
			<point x="1003" y="743"/>
		</contour>
	</outline>
</glyph>
<glyph name="S" format="2">
  <advance width="1227"/>
  <unicode hex="0053"/>
  <outline>
    <contour>
      <point x="628.0" y="1370.0" type="curve" smooth="yes"/>
      <point x="836.0" y="1370.0"/>
      <point x="1004.0" y="1255.0"/>
      <point x="1079.0" y="1091.0" type="curve" smooth="yes"/>
      <point x="1081.0" y="1087.0"/>
      <point x="1082.0" y="1080.0"/>
      <point x="1082.0" y="1076.0" type="curve" smooth="yes"/>
      <point x="1082.0" y="1057.0"/>
      <point x="1066.0" y="1041.0"/>
      <point x="1047.0" y="1041.0" type="curve" smooth="yes"/>
      <point x="1034.0" y="1041.0"/>
      <point x="1020.0" y="1050.0"/>
      <point x="1015.0" y="1062.0" type="curve" smooth="yes"/>
      <point x="950.0" y="1204.0"/>
      <point x="811.0" y="1300.0"/>
      <point x="628.0" y="1300.0" type="curve" smooth="yes"/>
      <point x="425.0" y="1300.0"/>
      <point x="189.0" y="1195.0"/>
      <point x="189.0" y="981.0" type="curve" smooth="yes"/>
      <point x="189.0" y="879.0"/>
      <point x="253.0" y="814.0"/>
      <point x="323.0" y="780.0" type="curve" smooth="yes"/>
      <point x="501.0" y="693.0"/>
      <point x="744.0" y="739.0"/>
      <point x="934.0" y="661.0" type="curve" smooth="yes"/>
      <point x="1036.0" y="619.0"/>
      <point x="1127.0" y="528.0"/>
      <point x="1127.0" y="383.0" type="curve" smooth="yes"/>
      <point x="1127.0" y="119.0"/>
      <point x="886.0" y="-15.0"/>
      <point x="628.0" y="-15.0" type="curve" smooth="yes"/>
      <point x="382.0" y="-15.0"/>
      <point x="189.0" y="100.0"/>
      <point x="103.0" y="295.0" type="curve" smooth="yes"/>
      <point x="101.0" y="299.0"/>
      <point x="100.0" y="305.0"/>
      <point x="100.0" y="309.0" type="curve" smooth="yes"/>
      <point x="100.0" y="328.0"/>
      <point x="116.0" y="344.0"/>
      <point x="135.0" y="344.0" type="curve" smooth="yes"/>
      <point x="148.0" y="344.0"/>
      <point x="162.0" y="335.0"/>
      <point x="167.0" y="323.0" type="curve" smooth="yes"/>
      <point x="242.0" y="151.0"/>
      <point x="406.0" y="55.0"/>
      <point x="628.0" y="55.0" type="curve" smooth="yes"/>
      <point x="848.0" y="55.0"/>
      <point x="1057.0" y="161.0"/>
      <point x="1057.0" y="383.0" type="curve" smooth="yes"/>
      <point x="1057.0" y="496.0"/>
      <point x="987.0" y="563.0"/>
      <point x="907.0" y="596.0" type="curve" smooth="yes"/>
      <point x="716.0" y="675.0"/>
      <point x="476.0" y="627.0"/>
      <point x="292.0" y="717.0" type="curve" smooth="yes"/>
      <point x="202.0" y="761.0"/>
      <point x="119.0" y="848.0"/>
      <point x="119.0" y="981.0" type="curve" smooth="yes"/>
      <point x="119.0" y="1240.0"/>
      <point x="386.0" y="1370.0"/>
    </contour>
  </outline>
</glyph>
<glyph name="T" format="2">
  <advance width="1235"/>
  <unicode hex="0054"/>
  <outline>
    <contour>
      <point x="88.0" y="1361.0" type="curve" smooth="yes"/>
      <point x="512.0" y="1361.0"/>
      <point x="805.0" y="1363.0"/>
      <point x="1148.0" y="1363.0" type="curve" smooth="yes"/>
      <point x="1169.0" y="1363.0"/>
      <point x="1185.0" y="1347.0"/>
      <point x="1185.0" y="1326.0" type="curve" smooth="yes"/>
      <point x="1185.0" y="1305.0"/>
      <point x="1169.0" y="1288.0"/>
      <point x="1148.0" y="1288.0" type="curve" smooth="yes"/>
      <point x="1147.0" y="1288.0" type="line"/>
      <point x="657.0" y="1287.0" type="line"/>
      <point x="651.0" y="25.0" type="line"/>
      <point x="651.0" y="4.0"/>
      <point x="634.0" y="-12.0"/>
      <point x="613.0" y="-12.0" type="curve" smooth="yes"/>
      <point x="591.0" y="-12.0"/>
      <point x="576.0" y="4.0"/>
      <point x="576.0" y="26.0" type="curve" smooth="yes"/>
      <point x="582.0" y="1287.0" type="line"/>
      <point x="88.0" y="1286.0" type="line" smooth="yes"/>
      <point x="67.0" y="1286.0"/>
      <point x="50.0" y="1303.0"/>
      <point x="50.0" y="1324.0" type="curve" smooth="yes"/>
      <point x="50.0" y="1345.0"/>
      <point x="67.0" y="1361.0"/>
    </contour>
  </outline>
</glyph>
<glyph name="U" format="2">
  <advance width="1351"/>
  <unicode hex="0055"/>
  <outline>
    <contour>
      <point x="1155.0" y="1335.0" type="line" smooth="yes"/>
      <point x="1155.0" y="1355.0"/>
      <point x="1171.0" y="1373.0"/>
      <point x="1192.0" y="1373.0" type="curve" smooth="yes"/>
      <point x="1213.0" y="1373.0"/>
      <point x="1230.0" y="1356.0"/>
      <point x="1230.0" y="1335.0" type="curve" smooth="yes"/>
      <point x="1232.0" y="605.0" type="line" smooth="yes"/>
      <point x="1232.0" y="226.0"/>
      <point x="1047.0" y="-12.0"/>
      <point x="673.0" y="-12.0" type="curve" smooth="yes"/>
      <point x="290.0" y="-12.0"/>
      <point x="133.0" y="254.0"/>
      <point x="128.0" y="635.0" type="curve" smooth="yes"/>
      <point x="120.0" y="1333.0" type="line"/>
      <point x="120.0" y="1334.0" type="line" smooth="yes"/>
      <point x="120.0" y="1355.0"/>
      <point x="137.0" y="1372.0"/>
      <point x="158.0" y="1372.0" type="curve" smooth="yes"/>
      <point x="179.0" y="1372.0"/>
      <point x="195.0" y="1355.0"/>
      <point x="195.0" y="1334.0" type="curve" smooth="yes"/>
      <point x="203.0" y="636.0" type="line" smooth="yes"/>
      <point x="212.0" y="-102.0"/>
      <point x="1157.0" y="-123.0"/>
      <point x="1157.0" y="620.0" type="curve" smooth="yes"/>
      <point x="1155.0" y="1334.0" type="line"/>
    </contour>
  </outline>
</glyph>
<glyph name="V" format="2">
	<unicode hex="0056"/>
	<advance width="1263"/>
	<outline>
		<contour>
			<point x="87" y="1374" type="curve" smooth="yes"/>
			<point x="101" y="1374"/>
			<point x="116" y="1364"/>
			<point x="121" y="1351" type="curve" smooth="yes"/>
			<point x="659" y="122" type="line"/>
			<point x="1142" y="1350" type="line" smooth="yes"/>
			<point x="1147" y="1363"/>
			<point x="1163" y="1374"/>
			<point x="1177" y="1374" type="curve" smooth="yes"/>
			<point x="1197" y="1374"/>
			<point x="1214" y="1357"/>
			<point x="1214" y="1337" type="curve" smooth="yes"/>
			<point x="1214" y="1333"/>
			<point x="1212" y="1327"/>
			<point x="1211" y="1323" type="curve"/>
			<point x="695" y="11" type="line" smooth="yes"/>
			<point x="690" y="-2"/>
			<point x="675" y="-12"/>
			<point x="661" y="-12" type="curve" smooth="yes"/>
			<point x="648" y="-12"/>
			<point x="632" y="-2"/>
			<point x="627" y="10" type="curve" smooth="yes"/>
			<point x="53" y="1322" type="line"/>
			<point x="51" y="1326"/>
			<point x="50" y="1333"/>
			<point x="50" y="1337" type="curve" smooth="yes"/>
			<point x="50" y="1358"/>
			<point x="66" y="1374"/>
		</contour>
	</outline>
</glyph>
<glyph name="W" format="2">
  <advance width="1812"/>
  <unicode hex="0057"/>
  <outline>
    <contour>
      <point x="873.0" y="1350.0" type="line" smooth="yes"/>
      <point x="878.0" y="1364.0"/>
      <point x="894.0" y="1375.0"/>
      <point x="909.0" y="1375.0" type="curve" smooth="yes"/>
      <point x="924.0" y="1375.0"/>
      <point x="939.0" y="1364.0"/>
      <point x="944.0" y="1350.0" type="curve" smooth="yes"/>
      <point x="1338.0" y="150.0" type="line"/>
      <point x="1689.0" y="1343.0" type="line" smooth="yes"/>
      <point x="1693.0" y="1358.0"/>
      <point x="1709.0" y="1370.0"/>
      <point x="1725.0" y="1370.0" type="curve" smooth="yes"/>
      <point x="1746.0" y="1370.0"/>
      <point x="1762.0" y="1354.0"/>
      <point x="1762.0" y="1333.0" type="curve" smooth="yes"/>
      <point x="1762.0" y="1330.0"/>
      <point x="1762.0" y="1325.0"/>
      <point x="1761.0" y="1322.0" type="curve" smooth="yes"/>
      <point x="1376.0" y="13.0" type="line" smooth="yes"/>
      <point x="1372.0" y="-2.0"/>
      <point x="1356.0" y="-14.0"/>
      <point x="1340.0" y="-14.0" type="curve" smooth="yes"/>
      <point x="1325.0" y="-14.0"/>
      <point x="1309.0" y="-3.0"/>
      <point x="1304.0" y="11.0" type="curve" smooth="yes"/>
      <point x="908.0" y="1220.0" type="line"/>
      <point x="488.0" y="11.0" type="line" smooth="yes"/>
      <point x="483.0" y="-3.0"/>
      <point x="468.0" y="-15.0"/>
      <point x="453.0" y="-15.0" type="curve" smooth="yes"/>
      <point x="437.0" y="-15.0"/>
      <point x="421.0" y="-2.0"/>
      <point x="417.0" y="13.0" type="curve" smooth="yes"/>
      <point x="52.0" y="1325.0" type="line"/>
      <point x="51.0" y="1328.0"/>
      <point x="50.0" y="1333.0"/>
      <point x="50.0" y="1336.0" type="curve" smooth="yes"/>
      <point x="50.0" y="1357.0"/>
      <point x="67.0" y="1373.0"/>
      <point x="88.0" y="1373.0" type="curve" smooth="yes"/>
      <point x="104.0" y="1373.0"/>
      <point x="120.0" y="1360.0"/>
      <point x="124.0" y="1345.0" type="curve" smooth="yes"/>
      <point x="457.0" y="149.0" type="line"/>
    </contour>
  </outline>
</glyph>
<glyph name="X" format="2">
  <advance width="1184"/>
  <unicode hex="0058"/>
  <outline>
    <contour>
      <point x="104.0" y="1379.0" type="line" smooth="yes"/>
      <point x="114.0" y="1379.0"/>
      <point x="126.0" y="1372.0"/>
      <point x="132.0" y="1364.0" type="curve" smooth="yes"/>
      <point x="590.0" y="758.0" type="line"/>
      <point x="1044.0" y="1361.0" type="line" smooth="yes"/>
      <point x="1050.0" y="1369.0"/>
      <point x="1063.0" y="1376.0"/>
      <point x="1074.0" y="1376.0" type="curve" smooth="yes"/>
      <point x="1076.0" y="1376.0" type="line" smooth="yes"/>
      <point x="1096.0" y="1375.0"/>
      <point x="1112.0" y="1359.0"/>
      <point x="1112.0" y="1339.0" type="curve" smooth="yes"/>
      <point x="1112.0" y="1332.0"/>
      <point x="1108.0" y="1322.0"/>
      <point x="1104.0" y="1316.0" type="curve"/>
      <point x="637.0" y="696.0" type="line"/>
      <point x="1126.0" y="48.0" type="line"/>
      <point x="1130.0" y="42.0"/>
      <point x="1134.0" y="32.0"/>
      <point x="1134.0" y="25.0" type="curve" smooth="yes"/>
      <point x="1134.0" y="4.0"/>
      <point x="1118.0" y="-12.0"/>
      <point x="1097.0" y="-12.0" type="curve" smooth="yes"/>
      <point x="1086.0" y="-12.0"/>
      <point x="1072.0" y="-5.0"/>
      <point x="1066.0" y="3.0" type="curve" smooth="yes"/>
      <point x="590.0" y="633.0" type="line"/>
      <point x="118.0" y="5.0" type="line" smooth="yes"/>
      <point x="112.0" y="-3.0"/>
      <point x="99.0" y="-11.0"/>
      <point x="88.0" y="-11.0" type="curve" smooth="yes"/>
      <point x="67.0" y="-11.0"/>
      <point x="50.0" y="6.0"/>
      <point x="50.0" y="27.0" type="curve" smooth="yes"/>
      <point x="50.0" y="34.0"/>
      <point x="54.0" y="44.0"/>
      <point x="58.0" y="50.0" type="curve"/>
      <point x="543.0" y="695.0" type="line"/>
      <point x="73.0" y="1318.0" type="line"/>
      <point x="69.0" y="1324.0"/>
      <point x="65.0" y="1334.0"/>
      <point x="65.0" y="1341.0" type="curve" smooth="yes"/>
      <point x="65.0" y="1362.0"/>
      <point x="81.0" y="1379.0"/>
      <point x="102.0" y="1379.0" type="curve" smooth="yes"/>
    </contour>
  </outline>
</glyph>
<glyph name="Y" format="2">
  <advance width="1107"/>
  <unicode hex="0059"/>
  <outline>
    <contour>
      <point x="1020.0" y="1375.0" type="curve" smooth="yes"/>
      <point x="1041.0" y="1375.0"/>
      <point x="1057.0" y="1357.0"/>
      <point x="1057.0" y="1337.0" type="curve" smooth="yes"/>
      <point x="1057.0" y="1331.0"/>
      <point x="1054.0" y="1322.0"/>
      <point x="1051.0" y="1317.0" type="curve" smooth="yes"/>
      <point x="591.0" y="575.0" type="line"/>
      <point x="583.0" y="24.0" type="line"/>
      <point x="583.0" y="3.0"/>
      <point x="567.0" y="-13.0"/>
      <point x="546.0" y="-13.0" type="curve" smooth="yes"/>
      <point x="525.0" y="-13.0"/>
      <point x="508.0" y="3.0"/>
      <point x="508.0" y="24.0" type="curve" smooth="yes"/>
      <point x="508.0" y="25.0" type="line"/>
      <point x="516.0" y="583.0" type="line"/>
      <point x="56.0" y="1317.0" type="line" smooth="yes"/>
      <point x="53.0" y="1322.0"/>
      <point x="50.0" y="1332.0"/>
      <point x="50.0" y="1338.0" type="curve" smooth="yes"/>
      <point x="50.0" y="1359.0"/>
      <point x="67.0" y="1375.0"/>
      <point x="88.0" y="1375.0" type="curve" smooth="yes"/>
      <point x="100.0" y="1375.0"/>
      <point x="114.0" y="1367.0"/>
      <point x="120.0" y="1357.0" type="curve" smooth="yes"/>
      <point x="556.0" y="660.0" type="line"/>
      <point x="988.0" y="1357.0" type="line" smooth="yes"/>
      <point x="994.0" y="1367.0"/>
      <point x="1008.0" y="1375.0"/>
    </contour>
  </outline>
</glyph>
<glyph name="Z" format="2">
	<unicode hex="005A"/>
	<advance width="1270"/>
	<outline>
		<contour>
			<point x="1184" y="1367" type="line" smooth="yes"/>
			<point x="1204" y="1367"/>
			<point x="1220" y="1351"/>
			<point x="1220" y="1331" type="curve" smooth="yes"/>
			<point x="1220" y="1324"/>
			<point x="1217" y="1313"/>
			<point x="1212" y="1307" type="curve" smooth="yes"/>
			<point x="184" y="73" type="line"/>
			<point x="1168" y="73" type="line" smooth="yes"/>
			<point x="1188" y="73"/>
			<point x="1205" y="57"/>
			<point x="1205" y="37" type="curve" smooth="yes"/>
			<point x="1205" y="17"/>
			<point x="1188" y="1"/>
			<point x="1168" y="1" type="curve" smooth="yes"/>
			<point x="106" y="0" type="line" smooth="yes"/>
			<point x="86" y="0"/>
			<point x="70" y="17"/>
			<point x="70" y="37" type="curve" smooth="yes"/>
			<point x="70" y="44"/>
			<point x="74" y="54"/>
			<point x="79" y="60" type="curve" smooth="yes"/>
			<point x="1107" y="1294" type="line"/>
			<point x="86" y="1294" type="line" smooth="yes"/>
			<point x="66" y="1294"/>
			<point x="50" y="1310"/>
			<point x="50" y="1330" type="curve" smooth="yes"/>
			<point x="50" y="1350"/>
			<point x="66" y="1366"/>
			<point x="86" y="1366" type="curve" smooth="yes"/>
			<point x="87" y="1366" type="line"/>
		</contour>
	</outline>
</glyph>
<glyph name="bracketleft" format="2">
  <advance width="624"/>
  <unicode hex="005B"/>
  <outline>
    <contour>
      <point x="135.0" y="1373.0" type="curve" smooth="yes"/>
      <point x="489.0" y="1373.0" type="line" smooth="yes"/>
      <point x="509.0" y="1373.0"/>
      <point x="524.0" y="1358.0"/>
      <point x="524.0" y="1338.0" type="curve" smooth="yes"/>
      <point x="524.0" y="1318.0"/>
      <point x="509.0" y="1303.0"/>
      <point x="489.0" y="1303.0" type="curve" smooth="yes"/>
      <point x="171.0" y="1303.0" type="line"/>
      <point x="171.0" y="-290.0" type="line"/>
      <point x="487.0" y="-291.0" type="line"/>
      <point x="488.0" y="-291.0" type="line" smooth="yes"/>
      <point x="508.0" y="-291.0"/>
      <point x="523.0" y="-306.0"/>
      <point x="523.0" y="-326.0" type="curve" smooth="yes"/>
      <point x="523.0" y="-346.0"/>
      <point x="508.0" y="-361.0"/>
      <point x="488.0" y="-361.0" type="curve" smooth="yes"/>
      <point x="487.0" y="-361.0" type="line"/>
      <point x="137.0" y="-360.0" type="line" smooth="yes"/>
      <point x="117.0" y="-360.0"/>
      <point x="102.0" y="-345.0"/>
      <point x="102.0" y="-325.0" type="curve" smooth="yes"/>
      <point x="100.0" y="1338.0" type="line" smooth="yes"/>
      <point x="100.0" y="1358.0"/>
      <point x="115.0" y="1373.0"/>
    </contour>
  </outline>
</glyph>
<glyph name="backslash" format="2">
  <advance width="698.0"/>
  <unicode hex="005C"/>
  <outline>
    <contour>
      <point x="575.0" y="10.0" type="curve" smooth="yes"/>
      <point x="53.0" y="1320.0" type="line"/>
      <point x="51.0" y="1324.0"/>
      <point x="50.0" y="1330.0"/>
      <point x="50.0" y="1334.0" type="curve" smooth="yes"/>
      <point x="50.0" y="1355.0"/>
      <point x="66.0" y="1371.0"/>
      <point x="87.0" y="1371.0" type="curve" smooth="yes"/>
      <point x="101.0" y="1371.0"/>
      <point x="117.0" y="1360.0"/>
      <point x="122.0" y="1347.0" type="curve" smooth="yes"/>
      <point x="645.0" y="38.0" type="line"/>
      <point x="647.0" y="34.0"/>
      <point x="648.0" y="27.0"/>
      <point x="648.0" y="23.0" type="curve" smooth="yes"/>
      <point x="648.0" y="2.0"/>
      <point x="631.0" y="-14.0"/>
      <point x="610.0" y="-14.0" type="curve" smooth="yes"/>
      <point x="595.0" y="-14.0"/>
      <point x="580.0" y="-3.0"/>
    </contour>
  </outline>
</glyph>
<glyph name="bracketright" format="2">
	<unicode hex="005D"/>
	<advance width="735"/>
	<outline>
		<contour>
			<point x="601" y="1373" type="line" smooth="yes"/>
			<point x="621" y="1373"/>
			<point x="636" y="1358"/>
			<point x="636" y="1338" type="curve" smooth="yes"/>
			<point x="634" y="-325" type="line" smooth="yes"/>
			<point x="634" y="-345"/>
			<point x="619" y="-360"/>
			<point x="599" y="-360" type="curve" smooth="yes"/>
			<point x="249" y="-361" type="line"/>
			<point x="248" y="-361" type="line" smooth="yes"/>
			<point x="228" y="-361"/>
			<point x="213" y="-346"/>
			<point x="213" y="-326" type="curve" smooth="yes"/>
			<point x="213" y="-306"/>
			<point x="228" y="-291"/>
			<point x="248" y="-291" type="curve" smooth="yes"/>
			<point x="249" y="-291" type="line"/>
			<point x="565" y="-290" type="line"/>
			<point x="565" y="1303" type="line"/>
			<point x="247" y="1303" type="line" smooth="yes"/>
			<point x="227" y="1303"/>
			<point x="212" y="1318"/>
			<point x="212" y="1338" type="curve" smooth="yes"/>
			<point x="212" y="1358"/>
			<point x="227" y="1373"/>
			<point x="247" y="1373" type="curve" smooth="yes"/>
		</contour>
	</outline>
</glyph>
<glyph name="asciicircum" format="2">
	<unicode hex="005E"/>
	<advance width="761"/>
	<outline>
		<contour>
			<point x="349" y="1389" type="line" smooth="yes"/>
			<point x="353" y="1393"/>
			<point x="367" y="1399"/>
			<point x="373" y="1399" type="curve" smooth="yes"/>
			<point x="378" y="1399"/>
			<point x="396" y="1392"/>
			<point x="398" y="1390" type="curve" smooth="yes"/>
			<point x="715" y="1085" type="line" smooth="yes"/>
			<point x="723.671" y="1076.66"/>
			<point x="727" y="1064"/>
			<point x="727" y="1060" type="curve" smooth="yes"/>
			<point x="727" y="1040"/>
			<point x="712" y="1025"/>
			<point x="692" y="1025" type="curve" smooth="yes"/>
			<point x="687" y="1025"/>
			<point x="675.177" y="1027.19"/>
			<point x="667" y="1035" type="curve" smooth="yes"/>
			<point x="374" y="1315" type="line"/>
			<point x="96" y="1032" type="line" smooth="yes"/>
			<point x="87.5897" y="1023.44"/>
			<point x="76" y="1021"/>
			<point x="70" y="1021" type="curve" smooth="yes"/>
			<point x="50" y="1021"/>
			<point x="35" y="1036"/>
			<point x="35" y="1056" type="curve" smooth="yes"/>
			<point x="35" y="1062"/>
			<point x="39.0395" y="1074.96"/>
			<point x="45" y="1081" type="curve" smooth="yes"/>
		</contour>
	</outline>
</glyph>
<glyph name="underscore" format="2">
	<unicode hex="005F"/>
	<advance width="687"/>
	<outline>
		<contour>
			<point x="118" y="75" type="curve" smooth="yes"/>
			<point x="570" y="75" type="line" smooth="yes"/>
			<point x="591" y="75"/>
			<point x="607" y="59"/>
			<point x="607" y="38" type="curve" smooth="yes"/>
			<point x="607" y="17"/>
			<point x="591" y="0"/>
			<point x="570" y="0" type="curve" smooth="yes"/>
			<point x="118" y="0" type="line" smooth="yes"/>
			<point x="97" y="0"/>
			<point x="80" y="17"/>
			<point x="80" y="38" type="curve" smooth="yes"/>
			<point x="80" y="59"/>
			<point x="97" y="75"/>
		</contour>
		<contour>
			<point x="118" y="75" type="curve" smooth="yes"/>
			<point x="570" y="75" type="line" smooth="yes"/>
			<point x="591" y="75"/>
			<point x="607" y="59"/>
			<point x="607" y="38" type="curve" smooth="yes"/>
			<point x="607" y="17"/>
			<point x="591" y="0"/>
			<point x="570" y="0" type="curve" smooth="yes"/>
			<point x="118" y="0" type="line" smooth="yes"/>
			<point x="97" y="0"/>
			<point x="80" y="17"/>
			<point x="80" y="38" type="curve" smooth="yes"/>
			<point x="80" y="59"/>
			<point x="97" y="75"/>
		</contour>
		<contour>
			<point x="118" y="75" type="curve" smooth="yes"/>
			<point x="570" y="75" type="line" smooth="yes"/>
			<point x="591" y="75"/>
			<point x="607" y="59"/>
			<point x="607" y="38" type="curve" smooth="yes"/>
			<point x="607" y="17"/>
			<point x="591" y="0"/>
			<point x="570" y="0" type="curve" smooth="yes"/>
			<point x="118" y="0" type="line" smooth="yes"/>
			<point x="97" y="0"/>
			<point x="80" y="17"/>
			<point x="80" y="38" type="curve" smooth="yes"/>
			<point x="80" y="59"/>
			<point x="97" y="75"/>
		</contour>
	</outline>
</glyph>
<glyph name="grave" format="2">
  <advance width="459"/>
  <unicode hex="0060"/>
  <outline>
    <contour>
      <point x="35.0" y="1364.0" type="curve" smooth="yes"/>
      <point x="35.0" y="1383.0"/>
      <point x="51.0" y="1399.0"/>
      <point x="70.0" y="1399.0" type="curve" smooth="yes"/>
      <point x="75.0" y="1399.0"/>
      <point x="91.0" y="1392.0"/>
      <point x="94.0" y="1389.0" type="curve" smooth="yes"/>
      <point x="410.0" y="1071.0" type="line" smooth="yes"/>
      <point x="432.0" y="1047.0"/>
      <point x="426.0" y="1047.0"/>
      <point x="416.0" y="1035.0" type="curve"/>
      <point x="413.0" y="1032.0"/>
      <point x="399.0" y="1036.0"/>
      <point x="379.0" y="1052.0" type="curve" smooth="yes"/>
      <point x="45.0" y="1339.0" type="line"/>
      <point x="41.0" y="1343.0"/>
      <point x="35.0" y="1359.0"/>
    </contour>
  </outline>
</glyph>
<glyph name="a" format="2">
	<unicode hex="0061"/>
	<advance width="1153"/>
	<outline>
		<contour>
			<point x="995" y="1015" type="curve" smooth="yes"/>
			<point x="1017" y="1015"/>
			<point x="1033" y="999"/>
			<point x="1033" y="977" type="curve"/>
			<point x="1030" y="24" type="line"/>
			<point x="1031" y="24" type="line"/>
			<point x="1031" y="3"/>
			<point x="1014" y="-14"/>
			<point x="993" y="-14" type="curve" smooth="yes"/>
			<point x="972" y="-14"/>
			<point x="955" y="3"/>
			<point x="955" y="24" type="curve" smooth="yes"/>
			<point x="955" y="25" type="line"/>
			<point x="956" y="234" type="line"/>
			<point x="879" y="98"/>
			<point x="724" y="-11"/>
			<point x="552" y="-11" type="curve" smooth="yes"/>
			<point x="285" y="-11"/>
			<point x="80" y="233"/>
			<point x="80" y="500" type="curve" smooth="yes"/>
			<point x="80" y="767"/>
			<point x="283" y="1014"/>
			<point x="557" y="1014" type="curve" smooth="yes"/>
			<point x="738" y="1014"/>
			<point x="882" y="866"/>
			<point x="957" y="731" type="curve"/>
			<point x="958" y="977" type="line" smooth="yes"/>
			<point x="958" y="999"/>
			<point x="973" y="1015"/>
		</contour>
		<contour>
			<point x="950" y="503" type="curve" smooth="yes"/>
			<point x="950" y="732"/>
			<point x="786" y="938"/>
			<point x="558" y="939" type="curve" smooth="yes"/>
			<point x="327" y="939"/>
			<point x="155" y="728"/>
			<point x="155" y="500" type="curve" smooth="yes"/>
			<point x="155" y="272"/>
			<point x="326" y="64"/>
			<point x="552" y="64" type="curve" smooth="yes"/>
			<point x="779" y="64"/>
			<point x="950" y="273"/>
		</contour>
	</outline>
</glyph>
<glyph name="b" format="2">
	<unicode hex="0062"/>
	<advance width="1119"/>
	<outline>
		<contour>
			<point x="577" y="1012" type="curve" smooth="yes"/>
			<point x="405" y="1012"/>
			<point x="246" y="885"/>
			<point x="195" y="748" type="curve"/>
			<point x="195" y="1337" type="line" smooth="yes"/>
			<point x="195" y="1358"/>
			<point x="179" y="1374"/>
			<point x="158" y="1374" type="curve" smooth="yes"/>
			<point x="137" y="1374"/>
			<point x="120" y="1358"/>
			<point x="120" y="1337" type="curve" smooth="yes"/>
			<point x="120" y="26" type="line" smooth="yes"/>
			<point x="120" y="5"/>
			<point x="137" y="-11"/>
			<point x="158" y="-11" type="curve" smooth="yes"/>
			<point x="179" y="-11"/>
			<point x="195" y="5"/>
			<point x="195" y="26" type="curve" smooth="yes"/>
			<point x="195" y="249" type="line"/>
			<point x="256" y="116"/>
			<point x="400" y="-12"/>
			<point x="587" y="-12" type="curve" smooth="yes"/>
			<point x="857" y="-12"/>
			<point x="1039" y="225"/>
			<point x="1039" y="493" type="curve" smooth="yes"/>
			<point x="1039" y="762"/>
			<point x="848" y="1012"/>
		</contour>
		<contour>
			<point x="964" y="494" type="curve" smooth="yes"/>
			<point x="964" y="265"/>
			<point x="813" y="63"/>
			<point x="586" y="63" type="curve" smooth="yes"/>
			<point x="345" y="63"/>
			<point x="195" y="275"/>
			<point x="195" y="504" type="curve" smooth="yes"/>
			<point x="195" y="731"/>
			<point x="353" y="937"/>
			<point x="577" y="937" type="curve" smooth="yes"/>
			<point x="804" y="937"/>
			<point x="964" y="722"/>
		</contour>
	</outline>
</glyph>
<glyph name="c" format="2">
  <advance width="1073"/>
  <unicode hex="0063"/>
  <outline>
    <contour>
      <point x="80.0" y="505.0" type="curve" smooth="yes"/>
      <point x="80.0" y="780.0"/>
      <point x="294.0" y="1020.0"/>
      <point x="569.0" y="1020.0" type="curve" smooth="yes"/>
      <point x="770.0" y="1020.0"/>
      <point x="923.0" y="895.0"/>
      <point x="989.0" y="750.0" type="curve" smooth="yes"/>
      <point x="991.0" y="746.0"/>
      <point x="992.0" y="739.0"/>
      <point x="992.0" y="734.0" type="curve" smooth="yes"/>
      <point x="992.0" y="713.0"/>
      <point x="976.0" y="697.0"/>
      <point x="955.0" y="697.0" type="curve" smooth="yes"/>
      <point x="941.0" y="697.0"/>
      <point x="925.0" y="707.0"/>
      <point x="920.0" y="719.0" type="curve" smooth="yes"/>
      <point x="865.0" y="840.0"/>
      <point x="737.0" y="945.0"/>
      <point x="569.0" y="945.0" type="curve" smooth="yes"/>
      <point x="336.0" y="945.0"/>
      <point x="155.0" y="740.0"/>
      <point x="155.0" y="505.0" type="curve" smooth="yes"/>
      <point x="155.0" y="270.0"/>
      <point x="336.0" y="63.0"/>
      <point x="570.0" y="63.0" type="curve" smooth="yes"/>
      <point x="738.0" y="63.0"/>
      <point x="867.0" y="168.0"/>
      <point x="922.0" y="289.0" type="curve" smooth="yes"/>
      <point x="927.0" y="301.0"/>
      <point x="942.0" y="311.0"/>
      <point x="956.0" y="311.0" type="curve" smooth="yes"/>
      <point x="977.0" y="311.0"/>
      <point x="994.0" y="295.0"/>
      <point x="994.0" y="274.0" type="curve" smooth="yes"/>
      <point x="994.0" y="269.0"/>
      <point x="992.0" y="262.0"/>
      <point x="990.0" y="258.0" type="curve" smooth="yes"/>
      <point x="924.0" y="113.0"/>
      <point x="771.0" y="-12.0"/>
      <point x="570.0" y="-12.0" type="curve" smooth="yes"/>
      <point x="294.0" y="-12.0"/>
      <point x="80.0" y="229.0"/>
    </contour>
  </outline>
</glyph>
<glyph name="d" format="2">
	<unicode hex="0064"/>
	<advance width="1119"/>
	<outline>
		<contour>
			<point x="542" y="1010" type="curve" smooth="yes"/>
			<point x="714" y="1010"/>
			<point x="873" y="883"/>
			<point x="924" y="746" type="curve"/>
			<point x="924" y="1335" type="line" smooth="yes"/>
			<point x="924" y="1356"/>
			<point x="940" y="1372"/>
			<point x="961" y="1372" type="curve" smooth="yes"/>
			<point x="982" y="1372"/>
			<point x="999" y="1356"/>
			<point x="999" y="1335" type="curve" smooth="yes"/>
			<point x="999" y="24" type="line" smooth="yes"/>
			<point x="999" y="3"/>
			<point x="982" y="-13"/>
			<point x="961" y="-13" type="curve" smooth="yes"/>
			<point x="940" y="-13"/>
			<point x="924" y="3"/>
			<point x="924" y="24" type="curve" smooth="yes"/>
			<point x="924" y="247" type="line"/>
			<point x="863" y="114"/>
			<point x="719" y="-14"/>
			<point x="532" y="-14" type="curve" smooth="yes"/>
			<point x="262" y="-14"/>
			<point x="80" y="223"/>
			<point x="80" y="491" type="curve" smooth="yes"/>
			<point x="80" y="760"/>
			<point x="271" y="1010"/>
		</contour>
		<contour>
			<point x="155" y="492" type="curve" smooth="yes"/>
			<point x="155" y="263"/>
			<point x="306" y="61"/>
			<point x="533" y="61" type="curve" smooth="yes"/>
			<point x="774" y="61"/>
			<point x="924" y="273"/>
			<point x="924" y="502" type="curve" smooth="yes"/>
			<point x="924" y="729"/>
			<point x="766" y="935"/>
			<point x="542" y="935" type="curve" smooth="yes"/>
			<point x="315" y="935"/>
			<point x="155" y="720"/>
		</contour>
	</outline>
</glyph>
<glyph name="e" format="2">
  <advance width="1118"/>
  <unicode hex="0065"/>
  <outline>
    <contour>
      <point x="599.0" y="-21.0" type="curve" smooth="yes"/>
      <point x="309.0" y="-21.0"/>
      <point x="80.0" y="221.0"/>
      <point x="80.0" y="510.0" type="curve" smooth="yes"/>
      <point x="80.0" y="783.0"/>
      <point x="295.0" y="1023.0"/>
      <point x="572.0" y="1023.0" type="curve" smooth="yes"/>
      <point x="826.0" y="1023.0"/>
      <point x="1038.0" y="815.0"/>
      <point x="1038.0" y="556.0" type="curve" smooth="yes"/>
      <point x="1038.0" y="518.0"/>
      <point x="1037.0" y="478.0"/>
      <point x="999.0" y="478.0" type="curve" smooth="yes"/>
      <point x="156.0" y="477.0" type="line"/>
      <point x="173.0" y="249.0"/>
      <point x="358.0" y="54.0"/>
      <point x="598.0" y="54.0" type="curve" smooth="yes"/>
      <point x="726.0" y="54.0"/>
      <point x="855.0" y="114.0"/>
      <point x="936.0" y="213.0" type="curve" smooth="yes"/>
      <point x="942.0" y="221.0"/>
      <point x="956.0" y="227.0"/>
      <point x="966.0" y="227.0" type="curve" smooth="yes"/>
      <point x="987.0" y="227.0"/>
      <point x="1003.0" y="210.0"/>
      <point x="1003.0" y="189.0" type="curve" smooth="yes"/>
      <point x="1003.0" y="181.0"/>
      <point x="999.0" y="171.0"/>
      <point x="994.0" y="165.0" type="curve" smooth="yes"/>
      <point x="898.0" y="48.0"/>
      <point x="750.0" y="-21.0"/>
    </contour>
    <contour>
      <point x="963.0" y="555.0" type="line" smooth="yes"/>
      <point x="963.0" y="773.0"/>
      <point x="785.0" y="948.0"/>
      <point x="571.0" y="948.0" type="curve" smooth="yes"/>
      <point x="347.0" y="948.0"/>
      <point x="177.0" y="764.0"/>
      <point x="157.0" y="552.0" type="curve"/>
      <point x="963.0" y="553.0" type="line"/>
    </contour>
  </outline>
</glyph>
<glyph name="f" format="2">
	<unicode hex="0066"/>
	<advance width="739"/>
	<outline>
		<contour>
			<point x="249" y="1089" type="line" smooth="yes"/>
			<point x="249" y="1283"/>
			<point x="344" y="1374"/>
			<point x="536" y="1374" type="curve" smooth="yes"/>
			<point x="652" y="1371" type="line" smooth="yes"/>
			<point x="672" y="1371"/>
			<point x="689" y="1353"/>
			<point x="689" y="1333" type="curve" smooth="yes"/>
			<point x="689" y="1312"/>
			<point x="673" y="1296"/>
			<point x="652" y="1296" type="curve" smooth="yes"/>
			<point x="650" y="1296" type="line"/>
			<point x="534" y="1299" type="line" smooth="yes"/>
			<point x="384" y="1299"/>
			<point x="324" y="1238"/>
			<point x="324" y="1085" type="curve" smooth="yes"/>
			<point x="324" y="958" type="line"/>
			<point x="546" y="958" type="line" smooth="yes"/>
			<point x="567" y="958"/>
			<point x="584" y="941"/>
			<point x="584" y="920" type="curve" smooth="yes"/>
			<point x="584" y="899"/>
			<point x="567" y="883"/>
			<point x="546" y="883" type="curve" smooth="yes"/>
			<point x="324" y="883" type="line"/>
			<point x="327" y="27" type="line"/>
			<point x="327" y="26" type="line" smooth="yes"/>
			<point x="327" y="5"/>
			<point x="310" y="-11"/>
			<point x="289" y="-11" type="curve" smooth="yes"/>
			<point x="268" y="-11"/>
			<point x="252" y="5"/>
			<point x="252" y="26" type="curve" smooth="yes"/>
			<point x="252" y="27" type="line"/>
			<point x="249" y="883" type="line"/>
			<point x="88" y="884" type="line" smooth="yes"/>
			<point x="67" y="884"/>
			<point x="50" y="901"/>
			<point x="50" y="922" type="curve" smooth="yes"/>
			<point x="50" y="943"/>
			<point x="67" y="959"/>
			<point x="88" y="959" type="curve" smooth="yes"/>
			<point x="249" y="958" type="line"/>
		</contour>
	</outline>
</glyph>
<glyph name="g" format="2">
  <advance width="1176"/>
  <unicode hex="0067"/>
  <outline>
    <contour>
      <point x="578.0" y="1014.0" type="curve" smooth="yes"/>
      <point x="762.0" y="1014.0"/>
      <point x="941.0" y="876.0"/>
      <point x="993.0" y="735.0" type="curve"/>
      <point x="995.0" y="979.0" type="line" smooth="yes"/>
      <point x="995.0" y="1000.0"/>
      <point x="1011.0" y="1017.0"/>
      <point x="1032.0" y="1017.0" type="curve" smooth="yes"/>
      <point x="1054.0" y="1017.0"/>
      <point x="1070.0" y="1000.0"/>
      <point x="1070.0" y="978.0" type="curve"/>
      <point x="1062.0" y="-5.0" type="line" smooth="yes"/>
      <point x="1060.0" y="-279.0"/>
      <point x="813.0" y="-510.0"/>
      <point x="526.0" y="-510.0" type="curve" smooth="yes"/>
      <point x="364.0" y="-510.0"/>
      <point x="206.0" y="-434.0"/>
      <point x="105.0" y="-307.0" type="curve" smooth="yes"/>
      <point x="100.0" y="-301.0"/>
      <point x="96.0" y="-290.0"/>
      <point x="96.0" y="-283.0" type="curve" smooth="yes"/>
      <point x="96.0" y="-262.0"/>
      <point x="113.0" y="-246.0"/>
      <point x="134.0" y="-246.0" type="curve" smooth="yes"/>
      <point x="144.0" y="-246.0"/>
      <point x="158.0" y="-252.0"/>
      <point x="164.0" y="-260.0" type="curve" smooth="yes"/>
      <point x="250.0" y="-368.0"/>
      <point x="388.0" y="-435.0"/>
      <point x="526.0" y="-435.0" type="curve" smooth="yes"/>
      <point x="773.0" y="-435.0"/>
      <point x="985.0" y="-235.0"/>
      <point x="987.0" y="-1.0" type="curve" smooth="yes"/>
      <point x="989.0" y="222.0" type="line"/>
      <point x="911.0" y="85.0"/>
      <point x="752.0" y="-25.0"/>
      <point x="576.0" y="-25.0" type="curve" smooth="yes"/>
      <point x="302.0" y="-25.0"/>
      <point x="92.0" y="219.0"/>
      <point x="92.0" y="494.0" type="curve" smooth="yes"/>
      <point x="92.0" y="768.0"/>
      <point x="303.0" y="1014.0"/>
    </contour>
    <contour>
      <point x="985.0" y="495.0" type="curve" smooth="yes"/>
      <point x="985.0" y="728.0"/>
      <point x="811.0" y="939.0"/>
      <point x="579.0" y="939.0" type="curve" smooth="yes"/>
      <point x="345.0" y="939.0"/>
      <point x="167.0" y="728.0"/>
      <point x="167.0" y="494.0" type="curve" smooth="yes"/>
      <point x="167.0" y="260.0"/>
      <point x="344.0" y="50.0"/>
      <point x="576.0" y="50.0" type="curve" smooth="yes"/>
      <point x="808.0" y="50.0"/>
      <point x="985.0" y="261.0"/>
    </contour>
  </outline>
</glyph>
<glyph name="h" format="2">
  <advance width="1039"/>
  <unicode hex="0068"/>
  <outline>
    <contour>
      <point x="100.0" y="1339.0" type="line" smooth="yes"/>
      <point x="100.0" y="1363.0"/>
      <point x="119.0" y="1375.0"/>
      <point x="138.0" y="1375.0" type="curve" smooth="yes"/>
      <point x="157.0" y="1375.0"/>
      <point x="176.0" y="1363.0"/>
      <point x="175.0" y="1338.0" type="curve"/>
      <point x="175.0" y="723.0" type="line"/>
      <point x="222.0" y="813.0"/>
      <point x="284.0" y="892.0"/>
      <point x="368.0" y="947.0" type="curve" smooth="yes"/>
      <point x="429.0" y="987.0"/>
      <point x="498.0" y="1012.0"/>
      <point x="574.0" y="1012.0" type="curve" smooth="yes"/>
      <point x="844.0" y="1012.0"/>
      <point x="940.0" y="773.0"/>
      <point x="940.0" y="499.0" type="curve"/>
      <point x="939.0" y="24.0" type="line"/>
      <point x="939.0" y="0.0"/>
      <point x="921.0" y="-12.0"/>
      <point x="902.0" y="-12.0" type="curve" smooth="yes"/>
      <point x="883.0" y="-12.0"/>
      <point x="863.0" y="0.0"/>
      <point x="864.0" y="25.0" type="curve" smooth="yes"/>
      <point x="865.0" y="499.0" type="line" smooth="yes"/>
      <point x="865.0" y="728.0"/>
      <point x="799.0" y="936.0"/>
      <point x="575.0" y="936.0" type="curve" smooth="yes"/>
      <point x="517.0" y="936.0"/>
      <point x="459.0" y="917.0"/>
      <point x="409.0" y="884.0" type="curve" smooth="yes"/>
      <point x="288.0" y="804.0"/>
      <point x="175.0" y="642.0"/>
      <point x="175.0" y="476.0" type="curve" smooth="yes"/>
      <point x="175.0" y="24.0" type="line" smooth="yes"/>
      <point x="175.0" y="3.0"/>
      <point x="159.0" y="-14.0"/>
      <point x="138.0" y="-14.0" type="curve" smooth="yes"/>
      <point x="117.0" y="-14.0"/>
      <point x="100.0" y="3.0"/>
      <point x="100.0" y="24.0" type="curve" smooth="yes"/>
    </contour>
  </outline>
</glyph>
<glyph name="i" format="2">
	<unicode hex="0069"/>
	<advance width="320"/>
	<outline>
		<contour>
			<point x="163" y="1013" type="curve" smooth="yes"/>
			<point x="184" y="1013"/>
			<point x="200" y="996"/>
			<point x="200" y="975" type="curve"/>
			<point x="195" y="26" type="line"/>
			<point x="195" y="25" type="line" smooth="yes"/>
			<point x="195" y="4"/>
			<point x="179" y="-12"/>
			<point x="158" y="-12" type="curve" smooth="yes"/>
			<point x="136" y="-12"/>
			<point x="120" y="4"/>
			<point x="120" y="26" type="curve" smooth="yes"/>
			<point x="125" y="975" type="line" smooth="yes"/>
			<point x="125" y="996"/>
			<point x="142" y="1013"/>
		</contour>
		<contour>
			<point x="125" y="1336" type="line" smooth="yes"/>
			<point x="125" y="1356"/>
			<point x="141" y="1373"/>
			<point x="162" y="1373" type="curve" smooth="yes"/>
			<point x="183" y="1373"/>
			<point x="200" y="1357"/>
			<point x="200" y="1336" type="curve" smooth="yes"/>
			<point x="200" y="1271" type="line" smooth="yes"/>
			<point x="200" y="1250"/>
			<point x="183" y="1233"/>
			<point x="162" y="1233" type="curve" smooth="yes"/>
			<point x="141" y="1233"/>
			<point x="125" y="1250"/>
			<point x="125" y="1271" type="curve" smooth="yes"/>
		</contour>
	</outline>
</glyph>
<glyph name="j" format="2">
	<unicode hex="006A"/>
	<advance width="475"/>
	<outline>
		<contour>
			<point x="314" y="1013" type="curve" smooth="yes"/>
			<point x="335" y="1013"/>
			<point x="351" y="996"/>
			<point x="351" y="975" type="curve" smooth="yes"/>
			<point x="355" y="29" type="line" smooth="yes"/>
			<point x="355" y="-233"/>
			<point x="258" y="-464"/>
			<point x="-1" y="-464" type="curve" smooth="yes"/>
			<point x="-42" y="-464"/>
			<point x="-84" y="-456"/>
			<point x="-127" y="-438" type="curve" smooth="yes"/>
			<point x="-140" y="-433"/>
			<point x="-150" y="-417"/>
			<point x="-150" y="-403" type="curve" smooth="yes"/>
			<point x="-150" y="-382"/>
			<point x="-133" y="-366"/>
			<point x="-112" y="-366" type="curve" smooth="yes"/>
			<point x="-108" y="-366"/>
			<point x="-101" y="-367"/>
			<point x="-97" y="-369" type="curve"/>
			<point x="-64" y="-383"/>
			<point x="-31" y="-389"/>
			<point x="0" y="-389" type="curve" smooth="yes"/>
			<point x="215" y="-389"/>
			<point x="280" y="-191"/>
			<point x="280" y="29" type="curve" smooth="yes"/>
			<point x="276" y="975" type="line" smooth="yes"/>
			<point x="276" y="995"/>
			<point x="293" y="1013"/>
		</contour>
		<contour>
			<point x="266" y="1336" type="line" smooth="yes"/>
			<point x="266" y="1356"/>
			<point x="283" y="1373"/>
			<point x="304" y="1373" type="curve" smooth="yes"/>
			<point x="324" y="1373"/>
			<point x="341" y="1356"/>
			<point x="341" y="1336" type="curve" smooth="yes"/>
			<point x="343" y="1261" type="line"/>
			<point x="343" y="1260" type="line" smooth="yes"/>
			<point x="343" y="1239"/>
			<point x="326" y="1222"/>
			<point x="305" y="1222" type="curve" smooth="yes"/>
			<point x="285" y="1222"/>
			<point x="268" y="1239"/>
			<point x="268" y="1259" type="curve" smooth="yes"/>
			<point x="266" y="1334" type="line"/>
		</contour>
	</outline>
</glyph>
<glyph name="k" format="2">
  <advance width="827"/>
  <unicode hex="006B"/>
  <outline>
    <contour>
      <point x="747.0" y="1007.0" type="curve" smooth="yes"/>
      <point x="749.0" y="1007.0" type="line" smooth="yes"/>
      <point x="768.0" y="1007.0"/>
      <point x="784.0" y="991.0"/>
      <point x="784.0" y="972.0" type="curve" smooth="yes"/>
      <point x="784.0" y="964.0"/>
      <point x="780.0" y="953.0"/>
      <point x="774.0" y="947.0" type="curve" smooth="yes"/>
      <point x="393.0" y="538.0" type="line"/>
      <point x="769.0" y="46.0" type="line" smooth="yes"/>
      <point x="773.0" y="41.0"/>
      <point x="777.0" y="32.0"/>
      <point x="777.0" y="25.0" type="curve" smooth="yes"/>
      <point x="777.0" y="6.0"/>
      <point x="761.0" y="-10.0"/>
      <point x="742.0" y="-10.0" type="curve" smooth="yes"/>
      <point x="732.0" y="-10.0"/>
      <point x="720.0" y="-4.0"/>
      <point x="714.0" y="4.0" type="curve" smooth="yes"/>
      <point x="347.0" y="487.0" type="line"/>
      <point x="334.0" y="493.0"/>
      <point x="207.0" y="344.0"/>
      <point x="190.0" y="327.0" type="curve"/>
      <point x="190.0" y="28.0" type="line" smooth="yes"/>
      <point x="190.0" y="9.0"/>
      <point x="174.0" y="-7.0"/>
      <point x="155.0" y="-7.0" type="curve" smooth="yes"/>
      <point x="136.0" y="-7.0"/>
      <point x="120.0" y="9.0"/>
      <point x="120.0" y="28.0" type="curve" smooth="yes"/>
      <point x="120.0" y="1337.0" type="line" smooth="yes"/>
      <point x="120.0" y="1356.0"/>
      <point x="135.0" y="1372.0"/>
      <point x="154.0" y="1372.0" type="curve" smooth="yes"/>
      <point x="155.0" y="1372.0" type="line" smooth="yes"/>
      <point x="174.0" y="1372.0"/>
      <point x="190.0" y="1356.0"/>
      <point x="190.0" y="1337.0" type="curve" smooth="yes"/>
      <point x="190.0" y="428.0" type="line"/>
      <point x="723.0" y="996.0" type="line"/>
      <point x="728.0" y="1002.0"/>
      <point x="739.0" y="1007.0"/>
    </contour>
  </outline>
</glyph>
<glyph name="l" format="2">
  <advance width="315"/>
  <unicode hex="006C"/>
  <outline>
    <contour>
      <point x="158.0" y="1373.0" type="curve" smooth="yes"/>
      <point x="179.0" y="1373.0"/>
      <point x="195.0" y="1356.0"/>
      <point x="195.0" y="1335.0" type="curve" smooth="yes"/>
      <point x="195.0" y="26.0" type="line" smooth="yes"/>
      <point x="195.0" y="5.0"/>
      <point x="179.0" y="-12.0"/>
      <point x="158.0" y="-12.0" type="curve" smooth="yes"/>
      <point x="137.0" y="-12.0"/>
      <point x="120.0" y="5.0"/>
      <point x="120.0" y="26.0" type="curve" smooth="yes"/>
      <point x="120.0" y="1335.0" type="line" smooth="yes"/>
      <point x="120.0" y="1356.0"/>
      <point x="137.0" y="1373.0"/>
    </contour>
  </outline>
</glyph>
<glyph name="m" format="2">
  <advance width="1613"/>
  <unicode hex="006D"/>
  <outline>
    <contour>
      <point x="120.0" y="984.0" type="line" smooth="yes"/>
      <point x="120.0" y="1003.0"/>
      <point x="136.0" y="1019.0"/>
      <point x="155.0" y="1019.0" type="curve" smooth="yes"/>
      <point x="174.0" y="1019.0"/>
      <point x="190.0" y="1003.0"/>
      <point x="190.0" y="984.0" type="curve" smooth="yes"/>
      <point x="190.0" y="733.0" type="line"/>
      <point x="230.0" y="867.0"/>
      <point x="353.0" y="1011.0"/>
      <point x="543.0" y="1011.0" type="curve" smooth="yes"/>
      <point x="728.0" y="1011.0"/>
      <point x="840.0" y="888.0"/>
      <point x="838.0" y="714.0" type="curve"/>
      <point x="876.0" y="865.0"/>
      <point x="992.0" y="1014.0"/>
      <point x="1198.0" y="1012.0" type="curve" smooth="yes"/>
      <point x="1419.0" y="1010.0"/>
      <point x="1492.0" y="775.0"/>
      <point x="1492.0" y="561.0" type="curve" smooth="yes"/>
      <point x="1493.0" y="23.0" type="line" smooth="yes"/>
      <point x="1493.0" y="4.0"/>
      <point x="1477.0" y="-12.0"/>
      <point x="1458.0" y="-12.0" type="curve" smooth="yes"/>
      <point x="1439.0" y="-12.0"/>
      <point x="1423.0" y="4.0"/>
      <point x="1423.0" y="23.0" type="curve" smooth="yes"/>
      <point x="1422.0" y="561.0" type="line" smooth="yes"/>
      <point x="1422.0" y="739.0"/>
      <point x="1377.0" y="942.0"/>
      <point x="1198.0" y="942.0" type="curve" smooth="yes"/>
      <point x="954.0" y="942.0"/>
      <point x="842.0" y="715.0"/>
      <point x="842.0" y="446.0" type="curve" smooth="yes"/>
      <point x="842.0" y="26.0" type="line" smooth="yes"/>
      <point x="842.0" y="7.0"/>
      <point x="826.0" y="-9.0"/>
      <point x="807.0" y="-9.0" type="curve" smooth="yes"/>
      <point x="788.0" y="-9.0"/>
      <point x="772.0" y="7.0"/>
      <point x="772.0" y="26.0" type="curve" smooth="yes"/>
      <point x="772.0" y="584.0" type="line" smooth="yes"/>
      <point x="772.0" y="765.0"/>
      <point x="725.0" y="941.0"/>
      <point x="543.0" y="941.0" type="curve" smooth="yes"/>
      <point x="294.0" y="941.0"/>
      <point x="190.0" y="721.0"/>
      <point x="191.0" y="456.0" type="curve" smooth="yes"/>
      <point x="192.0" y="24.0" type="line" smooth="yes"/>
      <point x="192.0" y="5.0"/>
      <point x="176.0" y="-11.0"/>
      <point x="157.0" y="-11.0" type="curve" smooth="yes"/>
      <point x="138.0" y="-11.0"/>
      <point x="122.0" y="5.0"/>
      <point x="122.0" y="24.0" type="curve" smooth="yes"/>
      <point x="120.0" y="983.0" type="line"/>
    </contour>
  </outline>
</glyph>
<glyph name="n" format="2">
  <advance width="1089"/>
  <unicode hex="006E"/>
  <outline>
    <contour>
      <point x="120.0" y="973.0" type="line"/>
      <point x="120.0" y="974.0" type="line" smooth="yes"/>
      <point x="120.0" y="998.0"/>
      <point x="139.0" y="1010.0"/>
      <point x="158.0" y="1010.0" type="curve" smooth="yes"/>
      <point x="177.0" y="1010.0"/>
      <point x="195.0" y="998.0"/>
      <point x="195.0" y="974.0" type="curve" smooth="yes"/>
      <point x="195.0" y="746.0" type="line"/>
      <point x="274.0" y="901.0"/>
      <point x="406.0" y="1012.0"/>
      <point x="572.0" y="1012.0" type="curve" smooth="yes"/>
      <point x="848.0" y="1012.0"/>
      <point x="969.0" y="797.0"/>
      <point x="969.0" y="525.0" type="curve" smooth="yes"/>
      <point x="969.0" y="25.0" type="line" smooth="yes"/>
      <point x="969.0" y="1.0"/>
      <point x="951.0" y="-11.0"/>
      <point x="932.0" y="-11.0" type="curve" smooth="yes"/>
      <point x="913.0" y="-11.0"/>
      <point x="894.0" y="1.0"/>
      <point x="894.0" y="25.0" type="curve" smooth="yes"/>
      <point x="894.0" y="525.0" type="line" smooth="yes"/>
      <point x="894.0" y="754.0"/>
      <point x="805.0" y="936.0"/>
      <point x="577.0" y="936.0" type="curve" smooth="yes"/>
      <point x="366.0" y="936.0"/>
      <point x="195.0" y="728.0"/>
      <point x="195.0" y="527.0" type="curve" smooth="yes"/>
      <point x="197.0" y="23.0" type="line" smooth="yes"/>
      <point x="197.0" y="-1.0"/>
      <point x="178.0" y="-14.0"/>
      <point x="159.0" y="-14.0" type="curve" smooth="yes"/>
      <point x="140.0" y="-14.0"/>
      <point x="122.0" y="-1.0"/>
      <point x="122.0" y="23.0" type="curve" smooth="yes"/>
    </contour>
  </outline>
</glyph>
<glyph name="o" format="2">
	<unicode hex="006F"/>
	<advance width="1166"/>
	<outline>
		<contour>
			<point x="583" y="1012" type="curve" smooth="yes"/>
			<point x="860" y="1012"/>
			<point x="1086" y="776"/>
			<point x="1086" y="500" type="curve" smooth="yes"/>
			<point x="1086" y="223"/>
			<point x="859" y="-12"/>
			<point x="583" y="-12" type="curve" smooth="yes"/>
			<point x="306" y="-12"/>
			<point x="80" y="223"/>
			<point x="80" y="500" type="curve" smooth="yes"/>
			<point x="80" y="777"/>
			<point x="306" y="1012"/>
		</contour>
		<contour>
			<point x="583" y="937" type="curve" smooth="yes"/>
			<point x="347" y="937"/>
			<point x="155" y="736"/>
			<point x="155" y="500" type="curve" smooth="yes"/>
			<point x="155" y="264"/>
			<point x="347" y="63"/>
			<point x="583" y="63" type="curve" smooth="yes"/>
			<point x="818" y="63"/>
			<point x="1011" y="264"/>
			<point x="1011" y="500" type="curve" smooth="yes"/>
			<point x="1011" y="735"/>
			<point x="818" y="937"/>
		</contour>
	</outline>
</glyph>
<glyph name="p" format="2">
	<unicode hex="0070"/>
	<advance width="1119"/>
	<outline>
		<contour>
			<point x="577" y="-9" type="curve" smooth="yes"/>
			<point x="405" y="-9"/>
			<point x="246" y="118"/>
			<point x="195" y="255" type="curve"/>
			<point x="195" y="-334" type="line" smooth="yes"/>
			<point x="195" y="-355"/>
			<point x="179" y="-371"/>
			<point x="158" y="-371" type="curve" smooth="yes"/>
			<point x="137" y="-371"/>
			<point x="120" y="-355"/>
			<point x="120" y="-334" type="curve" smooth="yes"/>
			<point x="120" y="977" type="line" smooth="yes"/>
			<point x="120" y="998"/>
			<point x="137" y="1014"/>
			<point x="158" y="1014" type="curve" smooth="yes"/>
			<point x="179" y="1014"/>
			<point x="195" y="998"/>
			<point x="195" y="977" type="curve" smooth="yes"/>
			<point x="195" y="754" type="line"/>
			<point x="256" y="887"/>
			<point x="400" y="1015"/>
			<point x="587" y="1015" type="curve" smooth="yes"/>
			<point x="857" y="1015"/>
			<point x="1039" y="778"/>
			<point x="1039" y="510" type="curve" smooth="yes"/>
			<point x="1039" y="241"/>
			<point x="848" y="-9"/>
		</contour>
		<contour>
			<point x="964" y="509" type="curve" smooth="yes"/>
			<point x="964" y="738"/>
			<point x="813" y="940"/>
			<point x="586" y="940" type="curve" smooth="yes"/>
			<point x="345" y="940"/>
			<point x="195" y="728"/>
			<point x="195" y="499" type="curve" smooth="yes"/>
			<point x="195" y="272"/>
			<point x="353" y="66"/>
			<point x="577" y="66" type="curve" smooth="yes"/>
			<point x="804" y="66"/>
			<point x="964" y="281"/>
		</contour>
	</outline>
</glyph>
<glyph name="q" format="2">
	<unicode hex="0071"/>
	<advance width="1119"/>
	<outline>
		<contour>
			<point x="542" y="-14" type="curve" smooth="yes"/>
			<point x="271" y="-14"/>
			<point x="80" y="236"/>
			<point x="80" y="505" type="curve" smooth="yes"/>
			<point x="80" y="773"/>
			<point x="262" y="1010"/>
			<point x="532" y="1010" type="curve" smooth="yes"/>
			<point x="719" y="1010"/>
			<point x="863" y="882"/>
			<point x="924" y="749" type="curve"/>
			<point x="924" y="972" type="line" smooth="yes"/>
			<point x="924" y="993"/>
			<point x="940" y="1009"/>
			<point x="961" y="1009" type="curve" smooth="yes"/>
			<point x="982" y="1009"/>
			<point x="999" y="993"/>
			<point x="999" y="972" type="curve" smooth="yes"/>
			<point x="999" y="-339" type="line" smooth="yes"/>
			<point x="999" y="-360"/>
			<point x="982" y="-376"/>
			<point x="961" y="-376" type="curve" smooth="yes"/>
			<point x="940" y="-376"/>
			<point x="924" y="-360"/>
			<point x="924" y="-339" type="curve" smooth="yes"/>
			<point x="924" y="250" type="line"/>
			<point x="873" y="113"/>
			<point x="714" y="-14"/>
		</contour>
		<contour>
			<point x="155" y="504" type="curve" smooth="yes"/>
			<point x="155" y="276"/>
			<point x="315" y="61"/>
			<point x="542" y="61" type="curve" smooth="yes"/>
			<point x="766" y="61"/>
			<point x="924" y="267"/>
			<point x="924" y="494" type="curve" smooth="yes"/>
			<point x="924" y="723"/>
			<point x="774" y="935"/>
			<point x="533" y="935" type="curve" smooth="yes"/>
			<point x="306" y="935"/>
			<point x="155" y="733"/>
		</contour>
	</outline>
</glyph>
<glyph name="r" format="2">
	<unicode hex="0072"/>
	<advance width="632"/>
	<outline>
		<contour>
			<point x="196" y="771" type="line"/>
			<point x="252" y="898"/>
			<point x="380" y="1016"/>
			<point x="558" y="1016" type="curve" smooth="yes"/>
			<point x="593" y="1016"/>
			<point x="622" y="1010"/>
			<point x="622" y="977" type="curve" smooth="yes"/>
			<point x="622" y="956"/>
			<point x="606" y="940"/>
			<point x="585" y="940" type="curve" smooth="yes"/>
			<point x="572" y="940"/>
			<point x="560" y="942"/>
			<point x="548" y="942" type="curve" smooth="yes"/>
			<point x="327" y="942"/>
			<point x="196" y="700"/>
			<point x="196" y="477" type="curve" smooth="yes"/>
			<point x="196" y="26" type="line" smooth="yes"/>
			<point x="196" y="5"/>
			<point x="179" y="-12"/>
			<point x="158" y="-12" type="curve" smooth="yes"/>
			<point x="137" y="-12"/>
			<point x="120" y="5"/>
			<point x="120" y="26" type="curve" smooth="yes"/>
			<point x="120" y="969" type="line" smooth="yes"/>
			<point x="120" y="990"/>
			<point x="137" y="1006"/>
			<point x="158" y="1006" type="curve" smooth="yes"/>
			<point x="179" y="1006"/>
			<point x="196" y="990"/>
			<point x="196" y="969" type="curve" smooth="yes"/>
		</contour>
	</outline>
</glyph>
<glyph name="s" format="2">
  <advance width="1094"/>
  <unicode hex="0073"/>
  <outline>
    <contour>
      <point x="557.0" y="1014.0" type="curve" smooth="yes"/>
      <point x="731.0" y="1014.0"/>
      <point x="882.0" y="937.0"/>
      <point x="951.0" y="809.0" type="curve" smooth="yes"/>
      <point x="953.0" y="805.0"/>
      <point x="955.0" y="797.0"/>
      <point x="955.0" y="792.0" type="curve" smooth="yes"/>
      <point x="955.0" y="773.0"/>
      <point x="939.0" y="757.0"/>
      <point x="920.0" y="757.0" type="curve" smooth="yes"/>
      <point x="908.0" y="757.0"/>
      <point x="894.0" y="766.0"/>
      <point x="889.0" y="776.0" type="curve" smooth="yes"/>
      <point x="833.0" y="883.0"/>
      <point x="706.0" y="944.0"/>
      <point x="557.0" y="944.0" type="curve" smooth="yes"/>
      <point x="402.0" y="944.0"/>
      <point x="186.0" y="882.0"/>
      <point x="186.0" y="723.0" type="curve" smooth="yes"/>
      <point x="186.0" y="650.0"/>
      <point x="243.0" y="608.0"/>
      <point x="297.0" y="586.0" type="curve" smooth="yes"/>
      <point x="452.0" y="522.0"/>
      <point x="658.0" y="555.0"/>
      <point x="823.0" y="498.0" type="curve" smooth="yes"/>
      <point x="909.0" y="468.0"/>
      <point x="994.0" y="403.0"/>
      <point x="994.0" y="287.0" type="curve" smooth="yes"/>
      <point x="994.0" y="76.0"/>
      <point x="770.0" y="-11.0"/>
      <point x="562.0" y="-11.0" type="curve" smooth="yes"/>
      <point x="357.0" y="-11.0"/>
      <point x="182.0" y="66.0"/>
      <point x="104.0" y="217.0" type="curve" smooth="yes"/>
      <point x="102.0" y="221.0"/>
      <point x="100.0" y="228.0"/>
      <point x="100.0" y="233.0" type="curve" smooth="yes"/>
      <point x="100.0" y="252.0"/>
      <point x="116.0" y="268.0"/>
      <point x="135.0" y="268.0" type="curve" smooth="yes"/>
      <point x="147.0" y="268.0"/>
      <point x="161.0" y="260.0"/>
      <point x="166.0" y="249.0" type="curve" smooth="yes"/>
      <point x="232.0" y="120.0"/>
      <point x="381.0" y="59.0"/>
      <point x="562.0" y="59.0" type="curve" smooth="yes"/>
      <point x="731.0" y="59.0"/>
      <point x="924.0" y="120.0"/>
      <point x="924.0" y="287.0" type="curve" smooth="yes"/>
      <point x="924.0" y="368.0"/>
      <point x="862.0" y="410.0"/>
      <point x="800.0" y="432.0" type="curve" smooth="yes"/>
      <point x="634.0" y="490.0"/>
      <point x="431.0" y="456.0"/>
      <point x="270.0" y="521.0" type="curve" smooth="yes"/>
      <point x="194.0" y="552.0"/>
      <point x="116.0" y="617.0"/>
      <point x="116.0" y="723.0" type="curve" smooth="yes"/>
      <point x="116.0" y="930.0"/>
      <point x="360.0" y="1014.0"/>
    </contour>
  </outline>
</glyph>
<glyph name="t" format="2">
  <advance width="726"/>
  <unicode hex="0074"/>
  <outline>
    <contour>
      <point x="500.0" y="-12.0" type="curve" smooth="yes"/>
      <point x="361.0" y="-12.0"/>
      <point x="290.0" y="85.0"/>
      <point x="290.0" y="225.0" type="curve" smooth="yes"/>
      <point x="290.0" y="232.0" type="line"/>
      <point x="292.0" y="937.0" type="line"/>
      <point x="88.0" y="937.0" type="line" smooth="yes"/>
      <point x="67.0" y="937.0"/>
      <point x="50.0" y="953.0"/>
      <point x="50.0" y="974.0" type="curve" smooth="yes"/>
      <point x="50.0" y="995.0"/>
      <point x="67.0" y="1012.0"/>
      <point x="88.0" y="1012.0" type="curve" smooth="yes"/>
      <point x="293.0" y="1012.0" type="line"/>
      <point x="293.0" y="1271.0" type="line" smooth="yes"/>
      <point x="293.0" y="1292.0"/>
      <point x="310.0" y="1309.0"/>
      <point x="331.0" y="1309.0" type="curve" smooth="yes"/>
      <point x="352.0" y="1309.0"/>
      <point x="368.0" y="1292.0"/>
      <point x="368.0" y="1271.0" type="curve" smooth="yes"/>
      <point x="368.0" y="1012.0" type="line"/>
      <point x="578.0" y="1012.0" type="line" smooth="yes"/>
      <point x="599.0" y="1012.0"/>
      <point x="615.0" y="996.0"/>
      <point x="615.0" y="975.0" type="curve" smooth="yes"/>
      <point x="615.0" y="954.0"/>
      <point x="599.0" y="937.0"/>
      <point x="578.0" y="937.0" type="curve" smooth="yes"/>
      <point x="367.0" y="937.0" type="line"/>
      <point x="365.0" y="232.0" type="line"/>
      <point x="365.0" y="231.0" type="line" smooth="yes"/>
      <point x="365.0" y="133.0"/>
      <point x="399.0" y="64.0"/>
      <point x="493.0" y="64.0" type="curve" smooth="yes"/>
      <point x="542.0" y="64.0"/>
      <point x="582.0" y="79.0"/>
      <point x="616.0" y="105.0" type="curve"/>
      <point x="622.0" y="109.0"/>
      <point x="632.0" y="113.0"/>
      <point x="639.0" y="113.0" type="curve" smooth="yes"/>
      <point x="660.0" y="113.0"/>
      <point x="677.0" y="96.0"/>
      <point x="677.0" y="75.0" type="curve" smooth="yes"/>
      <point x="677.0" y="65.0"/>
      <point x="669.0" y="51.0"/>
      <point x="661.0" y="45.0" type="curve" smooth="yes"/>
      <point x="618.0" y="12.0"/>
      <point x="562.0" y="-12.0"/>
    </contour>
  </outline>
</glyph>
<glyph name="u" format="2">
	<unicode hex="0075"/>
	<advance width="1089"/>
	<outline>
		<contour>
			<point x="969" y="29" type="line"/>
			<point x="969" y="28" type="line" smooth="yes"/>
			<point x="969" y="4"/>
			<point x="950" y="-8"/>
			<point x="931" y="-8" type="curve" smooth="yes"/>
			<point x="912" y="-8"/>
			<point x="894" y="4"/>
			<point x="894" y="28" type="curve" smooth="yes"/>
			<point x="894" y="256" type="line"/>
			<point x="815" y="101"/>
			<point x="683" y="-10"/>
			<point x="517" y="-10" type="curve" smooth="yes"/>
			<point x="241" y="-10"/>
			<point x="120" y="205"/>
			<point x="120" y="477" type="curve" smooth="yes"/>
			<point x="120" y="977" type="line" smooth="yes"/>
			<point x="120" y="1001"/>
			<point x="138" y="1013"/>
			<point x="157" y="1013" type="curve" smooth="yes"/>
			<point x="176" y="1013"/>
			<point x="195" y="1001"/>
			<point x="195" y="977" type="curve" smooth="yes"/>
			<point x="195" y="477" type="line" smooth="yes"/>
			<point x="195" y="248"/>
			<point x="284" y="66"/>
			<point x="512" y="66" type="curve" smooth="yes"/>
			<point x="723" y="66"/>
			<point x="894" y="274"/>
			<point x="894" y="475" type="curve" smooth="yes"/>
			<point x="892" y="979" type="line" smooth="yes"/>
			<point x="892" y="1003"/>
			<point x="911" y="1016"/>
			<point x="930" y="1016" type="curve" smooth="yes"/>
			<point x="949" y="1016"/>
			<point x="967" y="1003"/>
			<point x="967" y="979" type="curve" smooth="yes"/>
		</contour>
	</outline>
</glyph>
<glyph name="v" format="2">
  <advance width="1059"/>
  <unicode hex="0076"/>
  <outline>
    <contour>
      <point x="87.0" y="1018.0" type="curve" smooth="yes"/>
      <point x="88.0" y="1018.0" type="line" smooth="yes"/>
      <point x="102.0" y="1018.0"/>
      <point x="117.0" y="1007.0"/>
      <point x="122.0" y="994.0" type="curve" smooth="yes"/>
      <point x="497.0" y="114.0" type="line"/>
      <point x="938.0" y="993.0" type="line" smooth="yes"/>
      <point x="944.0" y="1005.0"/>
      <point x="959.0" y="1014.0"/>
      <point x="972.0" y="1014.0" type="curve" smooth="yes"/>
      <point x="993.0" y="1014.0"/>
      <point x="1009.0" y="997.0"/>
      <point x="1009.0" y="976.0" type="curve" smooth="yes"/>
      <point x="1009.0" y="971.0"/>
      <point x="1007.0" y="963.0"/>
      <point x="1005.0" y="959.0" type="curve" smooth="yes"/>
      <point x="528.0" y="7.0" type="line" smooth="yes"/>
      <point x="522.0" y="-5.0"/>
      <point x="507.0" y="-13.0"/>
      <point x="494.0" y="-13.0" type="curve" smooth="yes"/>
      <point x="480.0" y="-13.0"/>
      <point x="465.0" y="-3.0"/>
      <point x="460.0" y="10.0" type="curve" smooth="yes"/>
      <point x="53.0" y="966.0" type="line"/>
      <point x="51.0" y="970.0"/>
      <point x="50.0" y="976.0"/>
      <point x="50.0" y="980.0" type="curve" smooth="yes"/>
      <point x="50.0" y="1000.0"/>
      <point x="67.0" y="1018.0"/>
    </contour>
  </outline>
</glyph>
<glyph name="w" format="2">
  <advance width="1473"/>
  <unicode hex="0077"/>
  <outline>
    <contour>
      <point x="1384.0" y="1018.0" type="curve"/>
      <point x="1386.0" y="1018.0" type="line" smooth="yes"/>
      <point x="1407.0" y="1018.0"/>
      <point x="1423.0" y="1002.0"/>
      <point x="1423.0" y="981.0" type="curve" smooth="yes"/>
      <point x="1423.0" y="978.0"/>
      <point x="1423.0" y="973.0"/>
      <point x="1422.0" y="970.0" type="curve" smooth="yes"/>
      <point x="1149.0" y="12.0" type="line" smooth="yes"/>
      <point x="1145.0" y="-3.0"/>
      <point x="1128.0" y="-15.0"/>
      <point x="1112.0" y="-15.0" type="curve" smooth="yes"/>
      <point x="1098.0" y="-15.0"/>
      <point x="1082.0" y="-4.0"/>
      <point x="1077.0" y="9.0" type="curve" smooth="yes"/>
      <point x="751.0" y="873.0" type="line"/>
      <point x="422.0" y="8.0" type="line" smooth="yes"/>
      <point x="417.0" y="-5.0"/>
      <point x="401.0" y="-16.0"/>
      <point x="387.0" y="-16.0" type="curve" smooth="yes"/>
      <point x="372.0" y="-16.0"/>
      <point x="356.0" y="-5.0"/>
      <point x="351.0" y="10.0" type="curve" smooth="yes"/>
      <point x="52.0" y="962.0" type="line" smooth="yes"/>
      <point x="51.0" y="965.0"/>
      <point x="50.0" y="970.0"/>
      <point x="50.0" y="973.0" type="curve" smooth="yes"/>
      <point x="50.0" y="994.0"/>
      <point x="67.0" y="1011.0"/>
      <point x="88.0" y="1011.0" type="curve" smooth="yes"/>
      <point x="103.0" y="1011.0"/>
      <point x="119.0" y="999.0"/>
      <point x="123.0" y="984.0" type="curve" smooth="yes"/>
      <point x="390.0" y="137.0" type="line"/>
      <point x="716.0" y="993.0" type="line" smooth="yes"/>
      <point x="721.0" y="1006.0"/>
      <point x="737.0" y="1017.0"/>
      <point x="751.0" y="1017.0" type="curve" smooth="yes"/>
      <point x="765.0" y="1017.0"/>
      <point x="781.0" y="1006.0"/>
      <point x="786.0" y="993.0" type="curve" smooth="yes"/>
      <point x="1107.0" y="142.0" type="line"/>
      <point x="1349.0" y="991.0" type="line" smooth="yes"/>
      <point x="1353.0" y="1006.0"/>
      <point x="1369.0" y="1017.0"/>
    </contour>
  </outline>
</glyph>
<glyph name="x" format="2">
  <advance width="1038"/>
  <unicode hex="0078"/>
  <outline>
    <contour>
      <point x="58.0" y="977.0" type="curve" smooth="yes"/>
      <point x="58.0" y="997.0"/>
      <point x="74.0" y="1015.0"/>
      <point x="95.0" y="1015.0" type="curve" smooth="yes"/>
      <point x="104.0" y="1015.0"/>
      <point x="117.0" y="1009.0"/>
      <point x="124.0" y="1002.0" type="curve"/>
      <point x="522.0" y="559.0" type="line"/>
      <point x="923.0" y="1002.0" type="line" smooth="yes"/>
      <point x="929.0" y="1009.0"/>
      <point x="942.0" y="1014.0"/>
      <point x="951.0" y="1014.0" type="curve" smooth="yes"/>
      <point x="972.0" y="1014.0"/>
      <point x="989.0" y="997.0"/>
      <point x="989.0" y="977.0" type="curve" smooth="yes"/>
      <point x="989.0" y="969.0"/>
      <point x="985.0" y="957.0"/>
      <point x="979.0" y="951.0" type="curve" smooth="yes"/>
      <point x="572.0" y="503.0" type="line"/>
      <point x="979.0" y="50.0" type="line"/>
      <point x="985.0" y="44.0"/>
      <point x="989.0" y="33.0"/>
      <point x="989.0" y="25.0" type="curve" smooth="yes"/>
      <point x="989.0" y="4.0"/>
      <point x="972.0" y="-13.0"/>
      <point x="951.0" y="-13.0" type="curve" smooth="yes"/>
      <point x="942.0" y="-13.0"/>
      <point x="929.0" y="-7.0"/>
      <point x="923.0" y="-0.0" type="curve" smooth="yes"/>
      <point x="521.0" y="447.0" type="line"/>
      <point x="116.0" y="-0.0" type="line" smooth="yes"/>
      <point x="110.0" y="-7.0"/>
      <point x="97.0" y="-13.0"/>
      <point x="88.0" y="-13.0" type="curve" smooth="yes"/>
      <point x="67.0" y="-13.0"/>
      <point x="50.0" y="4.0"/>
      <point x="50.0" y="25.0" type="curve" smooth="yes"/>
      <point x="50.0" y="33.0"/>
      <point x="54.0" y="44.0"/>
      <point x="60.0" y="50.0" type="curve" smooth="yes"/>
      <point x="471.0" y="503.0" type="line"/>
      <point x="68.0" y="952.0" type="line" smooth="yes"/>
      <point x="63.0" y="958.0"/>
      <point x="58.0" y="969.0"/>
    </contour>
  </outline>
</glyph>
<glyph name="y" format="2">
	<unicode hex="0079"/>
	<advance width="1028"/>
	<outline>
		<contour>
			<point x="88" y="1014" type="curve" smooth="yes"/>
			<point x="102" y="1014"/>
			<point x="117" y="1003"/>
			<point x="122" y="991" type="curve" smooth="yes"/>
			<point x="544" y="87" type="line"/>
			<point x="906" y="990" type="line" smooth="yes"/>
			<point x="911" y="1003"/>
			<point x="926" y="1014"/>
			<point x="941" y="1014" type="curve" smooth="yes"/>
			<point x="962" y="1014"/>
			<point x="978" y="998"/>
			<point x="978" y="977" type="curve" smooth="yes"/>
			<point x="978" y="973"/>
			<point x="977" y="966"/>
			<point x="975" y="962" type="curve"/>
			<point x="505" y="-209" type="line" smooth="yes"/>
			<point x="447" y="-352"/>
			<point x="342" y="-515"/>
			<point x="147" y="-515" type="curve" smooth="yes"/>
			<point x="126" y="-515"/>
			<point x="110" y="-499"/>
			<point x="110" y="-478" type="curve" smooth="yes"/>
			<point x="110" y="-457"/>
			<point x="126" y="-440"/>
			<point x="147" y="-440" type="curve" smooth="yes"/>
			<point x="308" y="-440"/>
			<point x="386" y="-305"/>
			<point x="436" y="-181" type="curve" smooth="yes"/>
			<point x="505" y="-8" type="line"/>
			<point x="54" y="960" type="line" smooth="yes"/>
			<point x="52" y="964"/>
			<point x="50" y="971"/>
			<point x="50" y="976" type="curve" smooth="yes"/>
			<point x="50" y="997"/>
			<point x="67" y="1014"/>
		</contour>
	</outline>
</glyph>
<glyph name="z" format="2">
  <advance width="1037"/>
  <unicode hex="007A"/>
  <outline>
    <contour>
      <point x="943.0" y="1006.0" type="line" smooth="yes"/>
      <point x="964.0" y="1006.0"/>
      <point x="981.0" y="989.0"/>
      <point x="981.0" y="968.0" type="curve" smooth="yes"/>
      <point x="981.0" y="960.0"/>
      <point x="976.0" y="949.0"/>
      <point x="971.0" y="943.0" type="curve" smooth="yes"/>
      <point x="180.0" y="75.0" type="line"/>
      <point x="950.0" y="75.0" type="line" smooth="yes"/>
      <point x="971.0" y="75.0"/>
      <point x="988.0" y="59.0"/>
      <point x="988.0" y="38.0" type="curve" smooth="yes"/>
      <point x="988.0" y="17.0"/>
      <point x="971.0" y="0.0"/>
      <point x="950.0" y="0.0" type="curve" smooth="yes"/>
      <point x="95.0" y="0.0" type="line" smooth="yes"/>
      <point x="74.0" y="0.0"/>
      <point x="57.0" y="17.0"/>
      <point x="57.0" y="38.0" type="curve" smooth="yes"/>
      <point x="57.0" y="46.0"/>
      <point x="62.0" y="57.0"/>
      <point x="67.0" y="63.0" type="curve" smooth="yes"/>
      <point x="858.0" y="930.0" type="line"/>
      <point x="88.0" y="924.0" type="line" smooth="yes"/>
      <point x="67.0" y="924.0"/>
      <point x="50.0" y="940.0"/>
      <point x="50.0" y="961.0" type="curve" smooth="yes"/>
      <point x="50.0" y="982.0"/>
      <point x="67.0" y="999.0"/>
      <point x="88.0" y="999.0" type="curve" smooth="yes"/>
    </contour>
  </outline>
</glyph>
<glyph name="braceleft" format="2">
	<unicode hex="007B"/>
	<advance width="545"/>
	<outline>
		<contour>
			<point x="88" y="411" type="curve" smooth="yes"/>
			<point x="67" y="411"/>
			<point x="50" y="427"/>
			<point x="50" y="448" type="curve" smooth="yes"/>
			<point x="50" y="467"/>
			<point x="65" y="484"/>
			<point x="85" y="486" type="curve" smooth="yes"/>
			<point x="173" y="492"/>
			<point x="225" y="561"/>
			<point x="225" y="662" type="curve" smooth="yes"/>
			<point x="231" y="1129" type="line" smooth="yes"/>
			<point x="233" y="1260"/>
			<point x="289" y="1372"/>
			<point x="421" y="1372" type="curve" smooth="yes"/>
			<point x="456" y="1372"/>
			<point x="496" y="1365"/>
			<point x="496" y="1330" type="curve" smooth="yes"/>
			<point x="496" y="1309"/>
			<point x="479" y="1292"/>
			<point x="458" y="1292" type="curve" smooth="yes"/>
			<point x="446" y="1292"/>
			<point x="435" y="1297"/>
			<point x="422" y="1297" type="curve" smooth="yes"/>
			<point x="333" y="1297"/>
			<point x="307" y="1220"/>
			<point x="306" y="1128" type="curve" smooth="yes"/>
			<point x="300" y="661" type="line" smooth="yes"/>
			<point x="299" y="565"/>
			<point x="267" y="497"/>
			<point x="209" y="454" type="curve"/>
			<point x="276" y="411"/>
			<point x="306" y="338"/>
			<point x="306" y="235" type="curve"/>
			<point x="304" y="-198" type="line"/>
			<point x="304" y="-299"/>
			<point x="334" y="-387"/>
			<point x="432" y="-387" type="curve" smooth="yes"/>
			<point x="441" y="-387"/>
			<point x="449" y="-384"/>
			<point x="458" y="-384" type="curve" smooth="yes"/>
			<point x="479" y="-384"/>
			<point x="495" y="-401"/>
			<point x="495" y="-422" type="curve" smooth="yes"/>
			<point x="495" y="-454"/>
			<point x="465" y="-462"/>
			<point x="432" y="-462" type="curve" smooth="yes"/>
			<point x="290" y="-462"/>
			<point x="229" y="-340"/>
			<point x="229" y="-201" type="curve" smooth="yes"/>
			<point x="231" y="232" type="line" smooth="yes"/>
			<point x="231" y="340"/>
			<point x="193" y="411"/>
		</contour>
	</outline>
</glyph>
<glyph name="bar" format="2">
  <advance width="350"/>
  <unicode hex="007C"/>
  <outline>
    <contour>
      <point x="225.0" y="-295.0" type="line" smooth="yes"/>
      <point x="225.0" y="-319.0"/>
      <point x="199.0" y="-345.0"/>
      <point x="186.0" y="-345.0" type="curve" smooth="yes"/>
      <point x="138.0" y="-345.0"/>
      <point x="125.0" y="-330.0"/>
      <point x="125.0" y="-294.0" type="curve" smooth="yes"/>
      <point x="125.0" y="1211.0" type="line" smooth="yes"/>
      <point x="125.0" y="1239.0"/>
      <point x="147.0" y="1261.0"/>
      <point x="174.0" y="1261.0" type="curve" smooth="yes"/>
      <point x="175.0" y="1261.0" type="line" smooth="yes"/>
      <point x="202.0" y="1261.0"/>
      <point x="225.0" y="1238.0"/>
      <point x="225.0" y="1210.0" type="curve" smooth="yes"/>
    </contour>
  </outline>
</glyph>
<glyph name="asciitilde" format="2">
  <advance width="811"/>
  <unicode hex="007E"/>
  <outline>
    <contour>
      <point x="736.0" y="1399.0" type="curve" smooth="yes"/>
      <point x="736.0" y="1418.0"/>
      <point x="751.0" y="1434.0"/>
      <point x="771.0" y="1434.0" type="curve" smooth="yes"/>
      <point x="805.0" y="1434.0"/>
      <point x="811.0" y="1393.0"/>
      <point x="811.0" y="1359.0" type="curve" smooth="yes"/>
      <point x="811.0" y="1244.0"/>
      <point x="715.0" y="1150.0"/>
      <point x="602.0" y="1150.0" type="curve" smooth="yes"/>
      <point x="462.0" y="1150.0"/>
      <point x="396.0" y="1265.0"/>
      <point x="311.0" y="1322.0" type="curve" smooth="yes"/>
      <point x="281.0" y="1342.0"/>
      <point x="252.0" y="1358.0"/>
      <point x="212.0" y="1358.0" type="curve" smooth="yes"/>
      <point x="134.0" y="1358.0"/>
      <point x="70.0" y="1294.0"/>
      <point x="70.0" y="1216.0" type="curve" smooth="yes"/>
      <point x="70.0" y="1207.0"/>
      <point x="72.0" y="1198.0"/>
      <point x="72.0" y="1189.0" type="curve" smooth="yes"/>
      <point x="72.0" y="1170.0"/>
      <point x="56.0" y="1154.0"/>
      <point x="37.0" y="1154.0" type="curve" smooth="yes"/>
      <point x="6.0" y="1154.0"/>
      <point x="0.0" y="1185.0"/>
      <point x="0.0" y="1217.0" type="curve" smooth="yes"/>
      <point x="0.0" y="1332.0"/>
      <point x="96.0" y="1428.0"/>
      <point x="211.0" y="1428.0" type="curve" smooth="yes"/>
      <point x="352.0" y="1428.0"/>
      <point x="418.0" y="1311.0"/>
      <point x="504.0" y="1254.0" type="curve" smooth="yes"/>
      <point x="534.0" y="1234.0"/>
      <point x="562.0" y="1220.0"/>
      <point x="601.0" y="1220.0" type="curve" smooth="yes"/>
      <point x="678.0" y="1220.0"/>
      <point x="741.0" y="1281.0"/>
      <point x="741.0" y="1360.0" type="curve" smooth="yes"/>
      <point x="741.0" y="1373.0"/>
      <point x="736.0" y="1386.0"/>
    </contour>
  </outline>
</glyph>
<glyph name="pound" format="2">
	<unicode hex="00A3"/>
	<advance width="1057.2601"/>
	<outline>
		<contour>
			<point x="100.0081" y="608.31" type="line" smooth="yes"/>
			<point x="100.0027" y="608.576"/>
			<point x="100" y="608.841"/>
			<point x="100" y="609.105" type="curve" smooth="yes"/>
			<point x="100" y="629.819"/>
			<point x="116.5803" y="645.541"/>
			<point x="137.0181" y="645.81" type="curve" smooth="yes"/>
			<point x="308.1281" y="648.06" type="line"/>
			<point x="307.5481" y="847.188" type="line" smooth="yes"/>
			<point x="307.5461" y="847.88"/>
			<point x="307.5451" y="848.569"/>
			<point x="307.5451" y="849.257" type="curve" smooth="yes"/>
			<point x="307.5451" y="974.447"/>
			<point x="340.9691" y="1034.48"/>
			<point x="412.8881" y="1092.23" type="curve" smooth="yes"/>
			<point x="476.1811" y="1143.06"/>
			<point x="556.3211" y="1173.22"/>
			<point x="641.0861" y="1173.22" type="curve" smooth="yes"/>
			<point x="765.0581" y="1173.22"/>
			<point x="863.0881" y="1112.6"/>
			<point x="922.3281" y="1041.81" type="curve" smooth="yes"/>
			<point x="928.1551" y="1034.84"/>
			<point x="931.0681" y="1026.82"/>
			<point x="931.0681" y="1017.74" type="curve" smooth="yes"/>
			<point x="931.0681" y="997.652"/>
			<point x="914.6941" y="980.241"/>
			<point x="893.5781" y="980.241" type="curve" smooth="yes"/>
			<point x="881.8981" y="980.241"/>
			<point x="872.3111" y="984.719"/>
			<point x="864.8181" y="993.674" type="curve" smooth="yes"/>
			<point x="818.5311" y="1048.99"/>
			<point x="741.9211" y="1097.92"/>
			<point x="644.8481" y="1097.92" type="curve" smooth="yes"/>
			<point x="528.5241" y="1097.92"/>
			<point x="430.4441" y="1035.26"/>
			<point x="397.1881" y="953.289" type="curve" smooth="yes"/>
			<point x="387.4261" y="929.209"/>
			<point x="382.5451" y="894.534"/>
			<point x="382.5451" y="849.265" type="curve" smooth="yes"/>
			<point x="382.5451" y="848.647"/>
			<point x="382.5461" y="848.028"/>
			<point x="382.5481" y="847.406" type="curve" smooth="yes"/>
			<point x="383.1281" y="649.04" type="line"/>
			<point x="569.1481" y="651.48" type="line" smooth="yes"/>
			<point x="569.3551" y="651.483"/>
			<point x="569.5451" y="651.486"/>
			<point x="569.7181" y="651.49" type="curve" smooth="yes"/>
			<point x="589.9221" y="651.372"/>
			<point x="607.1381" y="634.747"/>
			<point x="607.1381" y="614.48" type="curve" smooth="yes"/>
			<point x="607.1381" y="613.99" type="line" smooth="yes"/>
			<point x="607.1381" y="593.627"/>
			<point x="590.2881" y="576.754"/>
			<point x="570.1381" y="576.49" type="curve" smooth="yes"/>
			<point x="383.3481" y="574.04" type="line"/>
			<point x="384.3281" y="236.36" type="line" smooth="yes"/>
			<point x="384.3301" y="235.725"/>
			<point x="384.3311" y="235.093"/>
			<point x="384.3311" y="234.463" type="curve" smooth="yes"/>
			<point x="384.3311" y="151.802"/>
			<point x="368.4821" y="108.013"/>
			<point x="329.0281" y="63.2" type="curve"/>
			<point x="920.8381" y="65.6602" type="line" smooth="yes"/>
			<point x="920.9011" y="65.6602"/>
			<point x="920.9651" y="65.6602"/>
			<point x="921.0281" y="65.6602" type="curve" smooth="yes"/>
			<point x="945.0641" y="65.6602"/>
			<point x="957.2601" y="46.749"/>
			<point x="957.2601" y="27.9189" type="curve" smooth="yes"/>
			<point x="957.2601" y="9.2998"/>
			<point x="945.3371" y="-9.23926"/>
			<point x="921.1481" y="-9.33984" type="curve" smooth="yes"/>
			<point x="173.8181" y="-12.45" type="line" smooth="yes"/>
			<point x="173.7671" y="-12.4502"/>
			<point x="173.7151" y="-12.4503"/>
			<point x="173.6641" y="-12.4503" type="curve" smooth="yes"/>
			<point x="153.1661" y="-12.4503"/>
			<point x="136.2881" y="4.57689"/>
			<point x="136.2881" y="25.06" type="curve" smooth="yes"/>
			<point x="136.2881" y="45.4983"/>
			<point x="151.9881" y="61.0856"/>
			<point x="171.0881" y="62.46" type="curve" smooth="yes"/>
			<point x="238.2331" y="67.0854"/>
			<point x="289.1761" y="113.771"/>
			<point x="303.8181" y="171.44" type="curve" smooth="yes"/>
			<point x="307.4941" y="185.936"/>
			<point x="309.3311" y="206.901"/>
			<point x="309.3311" y="234.333" type="curve" smooth="yes"/>
			<point x="309.3311" y="234.932"/>
			<point x="309.3301" y="235.535"/>
			<point x="309.3281" y="236.14" type="curve" smooth="yes"/>
			<point x="308.3481" y="573.05" type="line"/>
			<point x="138.0081" y="570.82" type="line"/>
			<point x="137.5081" y="570.81" type="line" smooth="yes"/>
			<point x="137.2711" y="570.805"/>
			<point x="137.0351" y="570.803"/>
			<point x="136.7991" y="570.803" type="curve" smooth="yes"/>
			<point x="116.6454" y="570.803"/>
			<point x="100.4218" y="588.038"/>
			<point x="100.0181" y="607.82" type="curve" smooth="yes"/>
		</contour>
	</outline>
</glyph>
<glyph name="currency" format="2">
	<unicode hex="00A4"/>
	<advance width="1168.1369318036"/>
	<outline>
		<contour>
			<point x="174.9643068736" y="1020.0356931264" type="curve" smooth="yes"/>
			<point x="342" y="853" type="line"/>
			<point x="280.7946917268" y="808.1392910952" type="line"/>
			<point x="342" y="853" type="line"/>
			<point x="280.7946917268" y="808.1392910952" type="line"/>
			<point x="121.9312982846" y="967.0026845374" type="line" smooth="yes"/>
			<point x="107.0820558796" y="981.8519269425"/>
			<point x="107.0820558797" y="1005.8935575027"/>
			<point x="121.9312982846" y="1020.7427999076" type="curve" smooth="yes"/>
			<point x="136.7805406895" y="1035.5920423125"/>
			<point x="160.1150644685" y="1034.8849355315"/>
			<point x="174.9643068736" y="1020.0356931264" type="curve" smooth="yes"/>
			<point x="342" y="853" type="line"/>
			<point x="280.7946917268" y="808.1392910952" type="line"/>
			<point x="121.9312982846" y="967.0026845374" type="line" smooth="yes"/>
			<point x="107.0820558796" y="981.8519269425"/>
			<point x="107.0820558797" y="1005.8935575027"/>
			<point x="121.9312982846" y="1020.7427999076" type="curve" smooth="yes"/>
			<point x="136.7805406895" y="1035.5920423125"/>
			<point x="160.1150644685" y="1034.8849355315"/>
			<point x="174.9643068736" y="1020.0356931264" type="curve" smooth="yes"/>
			<point x="342" y="853" type="line"/>
			<point x="280.7946917268" y="808.1392910952" type="line"/>
			<point x="121.9312982846" y="967.0026845374" type="line" smooth="yes"/>
			<point x="107.0820558796" y="981.8519269425"/>
			<point x="107.0820558797" y="1005.8935575027"/>
			<point x="121.9312982846" y="1020.7427999076" type="curve" smooth="yes"/>
			<point x="136.7805406895" y="1035.5920423125"/>
			<point x="160.1150644685" y="1034.8849355315"/>
		</contour>
		<contour>
			<point x="1046.0356931264" y="980.0356931264" type="curve" smooth="yes"/>
			<point x="879" y="813" type="line"/>
			<point x="834.1392910952" y="874.2053082732" type="line"/>
			<point x="879" y="813" type="line"/>
			<point x="834.1392910952" y="874.2053082732" type="line"/>
			<point x="993.0026845374" y="1033.0687017154" type="line" smooth="yes"/>
			<point x="1007.8519269421" y="1047.9179441201"/>
			<point x="1031.8935575027" y="1047.9179441203"/>
			<point x="1046.7427999076" y="1033.0687017154" type="curve" smooth="yes"/>
			<point x="1061.5920423125" y="1018.2194593105"/>
			<point x="1060.884935531" y="994.884935531"/>
			<point x="1046.0356931264" y="980.0356931264" type="curve" smooth="yes"/>
			<point x="879" y="813" type="line"/>
			<point x="834.1392910952" y="874.2053082732" type="line"/>
			<point x="993.0026845374" y="1033.0687017154" type="line" smooth="yes"/>
			<point x="1007.8519269421" y="1047.9179441201"/>
			<point x="1031.8935575027" y="1047.9179441203"/>
			<point x="1046.7427999076" y="1033.0687017154" type="curve" smooth="yes"/>
			<point x="1061.5920423125" y="1018.2194593105"/>
			<point x="1060.884935531" y="994.884935531"/>
			<point x="1046.0356931264" y="980.0356931264" type="curve" smooth="yes"/>
			<point x="879" y="813" type="line"/>
			<point x="834.1392910952" y="874.2053082732" type="line"/>
			<point x="993.0026845374" y="1033.0687017154" type="line" smooth="yes"/>
			<point x="1007.8519269421" y="1047.9179441201"/>
			<point x="1031.8935575027" y="1047.9179441203"/>
			<point x="1046.7427999076" y="1033.0687017154" type="curve" smooth="yes"/>
			<point x="1061.5920423125" y="1018.2194593105"/>
			<point x="1060.884935531" y="994.884935531"/>
		</contour>
		<contour>
			<point x="1023.966991411" y="-16.033008589" type="curve" smooth="yes"/>
			<point x="856.9312982846" y="151.0026845374" type="line"/>
			<point x="918.1366065578" y="195.8633934422" type="line"/>
			<point x="856.9312982846" y="151.0026845374" type="line"/>
			<point x="918.1366065578" y="195.8633934422" type="line"/>
			<point x="1077" y="37" type="line" smooth="yes"/>
			<point x="1091.8492424047" y="22.1507575953"/>
			<point x="1091.8492424049" y="-1.8908729653"/>
			<point x="1077" y="-16.7401153702" type="curve" smooth="yes"/>
			<point x="1062.1507575951" y="-31.5893577751"/>
			<point x="1038.8162338156" y="-30.8822509936"/>
			<point x="1023.966991411" y="-16.033008589" type="curve" smooth="yes"/>
			<point x="856.9312982846" y="151.0026845374" type="line"/>
			<point x="918.1366065578" y="195.8633934422" type="line"/>
			<point x="1077" y="37" type="line" smooth="yes"/>
			<point x="1091.8492424047" y="22.1507575953"/>
			<point x="1091.8492424049" y="-1.8908729653"/>
			<point x="1077" y="-16.7401153702" type="curve" smooth="yes"/>
			<point x="1062.1507575951" y="-31.5893577751"/>
			<point x="1038.8162338156" y="-30.8822509936"/>
			<point x="1023.966991411" y="-16.033008589" type="curve" smooth="yes"/>
			<point x="856.9312982846" y="151.0026845374" type="line"/>
			<point x="918.1366065578" y="195.8633934422" type="line"/>
			<point x="1077" y="37" type="line" smooth="yes"/>
			<point x="1091.8492424047" y="22.1507575953"/>
			<point x="1091.8492424049" y="-1.8908729653"/>
			<point x="1077" y="-16.7401153702" type="curve" smooth="yes"/>
			<point x="1062.1507575951" y="-31.5893577751"/>
			<point x="1038.8162338156" y="-30.8822509936"/>
		</contour>
		<contour>
			<point x="131.1165986665" y="-5.4466579323" type="curve" smooth="yes"/>
			<point x="298.1522917929" y="161.5890351941" type="line"/>
			<point x="343.0130006977" y="100.3837269209" type="line"/>
			<point x="298.1522917929" y="161.5890351941" type="line"/>
			<point x="343.0130006977" y="100.3837269209" type="line"/>
			<point x="184.1496072555" y="-58.4796665213" type="line" smooth="yes"/>
			<point x="169.3003648505" y="-73.3289089263"/>
			<point x="145.2587342903" y="-73.3289089262"/>
			<point x="130.4094918853" y="-58.4796665213" type="curve" smooth="yes"/>
			<point x="115.5602494804" y="-43.6304241164"/>
			<point x="116.2673562616" y="-20.2959003372"/>
			<point x="131.1165986665" y="-5.4466579323" type="curve" smooth="yes"/>
			<point x="298.1522917929" y="161.5890351941" type="line"/>
			<point x="343.0130006977" y="100.3837269209" type="line"/>
			<point x="184.1496072555" y="-58.4796665213" type="line" smooth="yes"/>
			<point x="169.3003648505" y="-73.3289089263"/>
			<point x="145.2587342903" y="-73.3289089262"/>
			<point x="130.4094918853" y="-58.4796665213" type="curve" smooth="yes"/>
			<point x="115.5602494804" y="-43.6304241164"/>
			<point x="116.2673562616" y="-20.2959003372"/>
			<point x="131.1165986665" y="-5.4466579323" type="curve" smooth="yes"/>
			<point x="298.1522917929" y="161.5890351941" type="line"/>
			<point x="343.0130006977" y="100.3837269209" type="line"/>
			<point x="184.1496072555" y="-58.4796665213" type="line" smooth="yes"/>
			<point x="169.3003648505" y="-73.3289089263"/>
			<point x="145.2587342903" y="-73.3289089262"/>
			<point x="130.4094918853" y="-58.4796665213" type="curve" smooth="yes"/>
			<point x="115.5602494804" y="-43.6304241164"/>
			<point x="116.2673562616" y="-20.2959003372"/>
		</contour>
		<contour>
			<point x="583" y="1005" type="curve" smooth="yes"/>
			<point x="860" y="1005"/>
			<point x="1086" y="769"/>
			<point x="1086" y="493" type="curve" smooth="yes"/>
			<point x="1086" y="216"/>
			<point x="859" y="-19"/>
			<point x="583" y="-19" type="curve" smooth="yes"/>
			<point x="306" y="-19"/>
			<point x="80" y="216"/>
			<point x="80" y="493" type="curve" smooth="yes"/>
			<point x="80" y="770"/>
			<point x="306" y="1005"/>
		</contour>
		<contour>
			<point x="583" y="930" type="curve" smooth="yes"/>
			<point x="347" y="930"/>
			<point x="155" y="729"/>
			<point x="155" y="493" type="curve" smooth="yes"/>
			<point x="155" y="257"/>
			<point x="347" y="56"/>
			<point x="583" y="56" type="curve" smooth="yes"/>
			<point x="818" y="56"/>
			<point x="1011" y="257"/>
			<point x="1011" y="493" type="curve" smooth="yes"/>
			<point x="1011" y="728"/>
			<point x="818" y="930"/>
		</contour>
	</outline>
</glyph>
<glyph name="brokenbar" format="2">
	<unicode hex="00A6"/>
	<advance width="239.4839400428"/>
	<outline>
		<contour>
			<point x="154.5331905782" y="254.4304068522" type="curve" smooth="yes"/>
			<point x="155" y="-468.9143468951" type="line" smooth="yes"/>
			<point x="155.0135523148" y="-489.9143425221"/>
			<point x="139" y="-505.9143468951"/>
			<point x="118" y="-505.9143468951" type="curve" smooth="yes"/>
			<point x="97" y="-505.9143468951"/>
			<point x="80.0135523148" y="-489.9143425221"/>
			<point x="80" y="-468.9143468951" type="curve" smooth="yes"/>
			<point x="79.5331905782" y="254.4304068522" type="line" smooth="yes"/>
			<point x="79.5196382634" y="275.4304024793"/>
			<point x="96.5331905782" y="292.4304068522"/>
			<point x="117.5331905782" y="292.4304068522" type="curve" smooth="yes"/>
			<point x="138.5331905782" y="292.4304068522"/>
			<point x="154.5196382633" y="275.4304024793"/>
		</contour>
		<contour>
			<point x="154.5331905782" y="254.4304068522" type="curve" smooth="yes"/>
			<point x="155" y="-468.9143468951" type="line" smooth="yes"/>
			<point x="155.0135523148" y="-489.9143425221"/>
			<point x="139" y="-505.9143468951"/>
			<point x="118" y="-505.9143468951" type="curve" smooth="yes"/>
			<point x="97" y="-505.9143468951"/>
			<point x="80.0135523148" y="-489.9143425221"/>
			<point x="80" y="-468.9143468951" type="curve" smooth="yes"/>
			<point x="79.5331905782" y="254.4304068522" type="line" smooth="yes"/>
			<point x="79.5196382634" y="275.4304024793"/>
			<point x="96.5331905782" y="292.4304068522"/>
			<point x="117.5331905782" y="292.4304068522" type="curve" smooth="yes"/>
			<point x="138.5331905782" y="292.4304068522"/>
			<point x="154.5196382633" y="275.4304024793"/>
		</contour>
		<contour>
			<point x="154.5331905782" y="254.4304068522" type="curve" smooth="yes"/>
			<point x="155" y="-468.9143468951" type="line" smooth="yes"/>
			<point x="155.0135523148" y="-489.9143425221"/>
			<point x="139" y="-505.9143468951"/>
			<point x="118" y="-505.9143468951" type="curve" smooth="yes"/>
			<point x="97" y="-505.9143468951"/>
			<point x="80.0135523148" y="-489.9143425221"/>
			<point x="80" y="-468.9143468951" type="curve" smooth="yes"/>
			<point x="79.5331905782" y="254.4304068522" type="line" smooth="yes"/>
			<point x="79.5196382634" y="275.4304024793"/>
			<point x="96.5331905782" y="292.4304068522"/>
			<point x="117.5331905782" y="292.4304068522" type="curve" smooth="yes"/>
			<point x="138.5331905782" y="292.4304068522"/>
			<point x="154.5196382633" y="275.4304024793"/>
		</contour>
		<contour>
			<point x="159.4839400428" y="1270.1841541756" type="curve" smooth="yes"/>
			<point x="157.0021413276" y="642" type="line" smooth="yes"/>
			<point x="156.9191762195" y="621.0001638865"/>
			<point x="141.0021413276" y="605"/>
			<point x="120.0021413276" y="605" type="curve" smooth="yes"/>
			<point x="99.0021413276" y="605"/>
			<point x="81.9191762195" y="621.0001638865"/>
			<point x="82.0021413276" y="642" type="curve" smooth="yes"/>
			<point x="84.4839400428" y="1270.1841541756" type="line" smooth="yes"/>
			<point x="84.566905151" y="1291.1839902891"/>
			<point x="101.4839400428" y="1308.1841541756"/>
			<point x="122.4839400428" y="1308.1841541756" type="curve" smooth="yes"/>
			<point x="143.4839400428" y="1308.1841541756"/>
			<point x="159.566905151" y="1291.1839902891"/>
		</contour>
		<contour>
			<point x="159.4839400428" y="1270.1841541756" type="curve" smooth="yes"/>
			<point x="157.0021413276" y="642" type="line" smooth="yes"/>
			<point x="156.9191762195" y="621.0001638865"/>
			<point x="141.0021413276" y="605"/>
			<point x="120.0021413276" y="605" type="curve" smooth="yes"/>
			<point x="99.0021413276" y="605"/>
			<point x="81.9191762195" y="621.0001638865"/>
			<point x="82.0021413276" y="642" type="curve" smooth="yes"/>
			<point x="84.4839400428" y="1270.1841541756" type="line" smooth="yes"/>
			<point x="84.566905151" y="1291.1839902891"/>
			<point x="101.4839400428" y="1308.1841541756"/>
			<point x="122.4839400428" y="1308.1841541756" type="curve" smooth="yes"/>
			<point x="143.4839400428" y="1308.1841541756"/>
			<point x="159.566905151" y="1291.1839902891"/>
		</contour>
		<contour>
			<point x="159.4839400428" y="1270.1841541756" type="curve" smooth="yes"/>
			<point x="157.0021413276" y="642" type="line" smooth="yes"/>
			<point x="156.9191762195" y="621.0001638865"/>
			<point x="141.0021413276" y="605"/>
			<point x="120.0021413276" y="605" type="curve" smooth="yes"/>
			<point x="99.0021413276" y="605"/>
			<point x="81.9191762195" y="621.0001638865"/>
			<point x="82.0021413276" y="642" type="curve" smooth="yes"/>
			<point x="84.4839400428" y="1270.1841541756" type="line" smooth="yes"/>
			<point x="84.566905151" y="1291.1839902891"/>
			<point x="101.4839400428" y="1308.1841541756"/>
			<point x="122.4839400428" y="1308.1841541756" type="curve" smooth="yes"/>
			<point x="143.4839400428" y="1308.1841541756"/>
			<point x="159.566905151" y="1291.1839902891"/>
		</contour>
	</outline>
</glyph>
<glyph name="section" format="2">
	<unicode hex="00A7"/>
	<advance width="1221.177577045"/>
	<outline>
		<contour>
			<point x="114.717577045" y="985.5008205567" type="curve" smooth="yes"/>
			<point x="114.717577045" y="1197.5008205567"/>
			<point x="345.017577045" y="1358.3008205567"/>
			<point x="606.677577045" y="1358.3008205567" type="curve" smooth="yes"/>
			<point x="854.617577045" y="1358.3008205567"/>
			<point x="1042.777577045" y="1227.9008205567"/>
			<point x="1118.237577045" y="1076.7008205567" type="curve"/>
			<point x="1120.197577045" y="1073.5008205567"/>
			<point x="1121.177577045" y="1068.7008205567"/>
			<point x="1121.177577045" y="1065.5008205567" type="curve" smooth="yes"/>
			<point x="1121.177577045" y="1050.3008205567"/>
			<point x="1105.497577045" y="1037.5008205567"/>
			<point x="1086.877577045" y="1037.5008205567" type="curve" smooth="yes"/>
			<point x="1074.137577045" y="1037.5008205567"/>
			<point x="1060.417577045" y="1046.3008205567"/>
			<point x="1055.517577045" y="1055.9008205567" type="curve" smooth="yes"/>
			<point x="989.857577045" y="1187.9008205567"/>
			<point x="825.217577045" y="1302.3008205567"/>
			<point x="607.657577045" y="1302.3008205567" type="curve" smooth="yes"/>
			<point x="383.237577045" y="1302.3008205567"/>
			<point x="183.317577045" y="1166.3008205567"/>
			<point x="183.317577045" y="985.5008205567" type="curve" smooth="yes"/>
			<point x="183.317577045" y="807.1008205567"/>
			<point x="344.037577045" y="742.3008205567"/>
			<point x="565.517577045" y="742.3008205567" type="curve" smooth="yes"/>
			<point x="667.437577045" y="742.3008205567" type="line" smooth="yes"/>
			<point x="933.997577045" y="742.3008205567"/>
			<point x="1119.217577045" y="645.5008205567"/>
			<point x="1119.217577045" y="430.3008205567" type="curve" smooth="yes"/>
			<point x="1119.217577045" y="215.1008205567"/>
			<point x="902.5284549893" y="78.8884008565"/>
			<point x="737.8884549893" y="68.4884008565" type="curve" smooth="yes"/>
			<point x="721.3848680605" y="67.4459002245"/>
			<point x="611.2591949328" y="104.1827165159"/>
			<point x="628.237577045" y="103.9008205567" type="curve" smooth="yes"/>
			<point x="881.9484549893" y="99.6884008565"/>
			<point x="1050.617577045" y="245.5008205567"/>
			<point x="1050.617577045" y="430.3008205567" type="curve" smooth="yes"/>
			<point x="1050.617577045" y="613.5008205567"/>
			<point x="894.797577045" y="686.3008205567"/>
			<point x="666.457577045" y="686.3008205567" type="curve" smooth="yes"/>
			<point x="564.537577045" y="686.3008205567" type="line" smooth="yes"/>
			<point x="305.817577045" y="686.3008205567"/>
			<point x="114.717577045" y="775.9008205567"/>
		</contour>
		<contour>
			<point x="103.92" y="367.2" type="curve" smooth="yes"/>
			<point x="103.92" y="579.2"/>
			<point x="334.22" y="740"/>
			<point x="595.88" y="740" type="curve" smooth="yes"/>
			<point x="887.5741176471" y="740"/>
			<point x="708.2056331659" y="733.7179013617"/>
			<point x="705.5484549893" y="707.6884008565" type="curve" smooth="yes"/>
			<point x="704.5684549893" y="698.0884008565"/>
			<point x="852.4418616817" y="687.6884008565"/>
			<point x="595.7884549893" y="687.6884008565" type="curve" smooth="yes"/>
			<point x="371.3684549893" y="687.6884008565"/>
			<point x="172.52" y="548"/>
			<point x="172.52" y="367.2" type="curve" smooth="yes"/>
			<point x="172.52" y="188.8"/>
			<point x="333.24" y="124"/>
			<point x="554.72" y="124" type="curve" smooth="yes"/>
			<point x="656.64" y="124" type="line" smooth="yes"/>
			<point x="923.2" y="124"/>
			<point x="1108.42" y="27.2"/>
			<point x="1108.42" y="-188" type="curve" smooth="yes"/>
			<point x="1108.42" y="-403.2"/>
			<point x="877.14" y="-570.4"/>
			<point x="617.44" y="-570.4" type="curve" smooth="yes"/>
			<point x="353.82" y="-570.4"/>
			<point x="150.96" y="-414.4"/>
			<point x="100.98" y="-233.6" type="curve"/>
			<point x="100" y="-232"/>
			<point x="100" y="-228.8"/>
			<point x="100" y="-227.2" type="curve" smooth="yes"/>
			<point x="100" y="-212"/>
			<point x="115.68" y="-199.2"/>
			<point x="134.3" y="-199.2" type="curve" smooth="yes"/>
			<point x="149.98" y="-199.2"/>
			<point x="164.68" y="-208.8"/>
			<point x="167.62" y="-220.8" type="curve" smooth="yes"/>
			<point x="211.72" y="-377.6"/>
			<point x="388.12" y="-514.4"/>
			<point x="617.44" y="-514.4" type="curve" smooth="yes"/>
			<point x="840.88" y="-514.4"/>
			<point x="1039.82" y="-372.8"/>
			<point x="1039.82" y="-188" type="curve" smooth="yes"/>
			<point x="1039.82" y="-4.8"/>
			<point x="884" y="68"/>
			<point x="655.66" y="68" type="curve" smooth="yes"/>
			<point x="553.74" y="68" type="line" smooth="yes"/>
			<point x="295.02" y="68"/>
			<point x="103.92" y="157.6"/>
		</contour>
	</outline>
</glyph>
<glyph name="dieresis" format="2">
  <advance width="711"/>
  <unicode hex="00A8"/>
  <outline>
    <contour>
      <point x="516.0" y="1162.0" type="curve" smooth="yes"/>
      <point x="456.0" y="1162.0"/>
      <point x="407.0" y="1210.0"/>
      <point x="407.0" y="1267.0" type="curve" smooth="yes"/>
      <point x="407.0" y="1323.0"/>
      <point x="456.0" y="1371.0"/>
      <point x="516.0" y="1371.0" type="curve" smooth="yes"/>
      <point x="576.0" y="1371.0"/>
      <point x="626.0" y="1323.0"/>
      <point x="626.0" y="1267.0" type="curve" smooth="yes"/>
      <point x="626.0" y="1211.0"/>
      <point x="576.0" y="1162.0"/>
    </contour>
    <contour>
      <point x="178.0" y="1162.0" type="curve" smooth="yes"/>
      <point x="118.0" y="1162.0"/>
      <point x="69.0" y="1210.0"/>
      <point x="69.0" y="1267.0" type="curve" smooth="yes"/>
      <point x="69.0" y="1323.0"/>
      <point x="118.0" y="1371.0"/>
      <point x="178.0" y="1371.0" type="curve" smooth="yes"/>
      <point x="238.0" y="1371.0"/>
      <point x="288.0" y="1323.0"/>
      <point x="288.0" y="1267.0" type="curve" smooth="yes"/>
      <point x="288.0" y="1211.0"/>
      <point x="238.0" y="1162.0"/>
    </contour>
  </outline>
</glyph>
<glyph name="guillemotleft" format="2">
  <advance width="930"/>
  <unicode hex="00AB"/>
  <outline>
    <contour>
      <point x="460.0" y="343.0" type="curve"/>
      <point x="139.0" y="652.0" type="line"/>
      <point x="132.0" y="663.0"/>
      <point x="132.0" y="671.0"/>
      <point x="140.0" y="683.0" type="curve"/>
      <point x="457.0" y="990.0" type="line"/>
      <point x="461.0" y="992.0"/>
      <point x="464.0" y="993.0"/>
      <point x="472.0" y="993.0" type="curve" smooth="yes"/>
      <point x="487.0" y="993.0"/>
      <point x="501.0" y="979.0"/>
      <point x="501.0" y="965.0" type="curve" smooth="yes"/>
      <point x="501.0" y="961.0"/>
      <point x="500.0" y="957.0"/>
      <point x="489.0" y="944.0" type="curve"/>
      <point x="201.0" y="667.0" type="line"/>
      <point x="489.0" y="390.0" type="line"/>
      <point x="500.0" y="377.0"/>
      <point x="501.0" y="373.0"/>
      <point x="501.0" y="369.0" type="curve" smooth="yes"/>
      <point x="501.0" y="353.0"/>
      <point x="494.0" y="344.0"/>
      <point x="479.0" y="342.0" type="curve"/>
      <point x="477.0" y="342.0"/>
      <point x="475.0" y="341.0"/>
      <point x="472.0" y="341.0" type="curve" smooth="yes"/>
      <point x="467.0" y="341.0"/>
      <point x="463.0" y="342.0"/>
    </contour>
    <contour>
      <point x="753.0" y="343.0" type="curve"/>
      <point x="432.0" y="653.0" type="line"/>
      <point x="425.0" y="663.0"/>
      <point x="426.0" y="668.0"/>
      <point x="434.0" y="681.0" type="curve"/>
      <point x="752.0" y="989.0" type="line"/>
      <point x="757.0" y="992.0"/>
      <point x="760.0" y="993.0"/>
      <point x="766.0" y="993.0" type="curve" smooth="yes"/>
      <point x="783.0" y="993.0"/>
      <point x="796.0" y="979.0"/>
      <point x="796.0" y="965.0" type="curve" smooth="yes"/>
      <point x="796.0" y="960.0"/>
      <point x="796.0" y="957.0"/>
      <point x="784.0" y="945.0" type="curve" smooth="yes"/>
      <point x="499.0" y="667.0" type="line"/>
      <point x="784.0" y="389.0" type="line" smooth="yes"/>
      <point x="796.0" y="377.0"/>
      <point x="796.0" y="374.0"/>
      <point x="796.0" y="369.0" type="curve" smooth="yes"/>
      <point x="796.0" y="355.0"/>
      <point x="783.0" y="341.0"/>
      <point x="766.0" y="341.0" type="curve" smooth="yes"/>
      <point x="760.0" y="341.0"/>
      <point x="756.0" y="342.0"/>
    </contour>
  </outline>
</glyph>
<glyph name="logicalnot" format="2">
	<unicode hex="00AC"/>
	<advance width="765.0814799109"/>
	<outline>
		<contour>
			<point x="118" y="400.9114800422" type="curve" smooth="yes"/>
			<point x="648" y="400.9114800422" type="line" smooth="yes"/>
			<point x="669" y="400.9114800422"/>
			<point x="685" y="384.9114800422"/>
			<point x="685" y="363.9114800422" type="curve" smooth="yes"/>
			<point x="685" y="342.9114800422"/>
			<point x="669" y="325.9114800422"/>
			<point x="648" y="325.9114800422" type="curve" smooth="yes"/>
			<point x="118" y="325.9114800422" type="line" smooth="yes"/>
			<point x="97" y="325.9114800422"/>
			<point x="80" y="342.9114800422"/>
			<point x="80" y="363.9114800422" type="curve" smooth="yes"/>
			<point x="80" y="384.9114800422"/>
			<point x="97" y="400.9114800422"/>
		</contour>
		<contour>
			<point x="118" y="400.9114800422" type="curve" smooth="yes"/>
			<point x="648" y="400.9114800422" type="line" smooth="yes"/>
			<point x="669" y="400.9114800422"/>
			<point x="685" y="384.9114800422"/>
			<point x="685" y="363.9114800422" type="curve" smooth="yes"/>
			<point x="685" y="342.9114800422"/>
			<point x="669" y="325.9114800422"/>
			<point x="648" y="325.9114800422" type="curve" smooth="yes"/>
			<point x="118" y="325.9114800422" type="line" smooth="yes"/>
			<point x="97" y="325.9114800422"/>
			<point x="80" y="342.9114800422"/>
			<point x="80" y="363.9114800422" type="curve" smooth="yes"/>
			<point x="80" y="384.9114800422"/>
			<point x="97" y="400.9114800422"/>
		</contour>
		<contour>
			<point x="118" y="400.9114800422" type="curve" smooth="yes"/>
			<point x="648" y="400.9114800422" type="line" smooth="yes"/>
			<point x="669" y="400.9114800422"/>
			<point x="685" y="384.9114800422"/>
			<point x="685" y="363.9114800422" type="curve" smooth="yes"/>
			<point x="685" y="342.9114800422"/>
			<point x="669" y="325.9114800422"/>
			<point x="648" y="325.9114800422" type="curve" smooth="yes"/>
			<point x="118" y="325.9114800422" type="line" smooth="yes"/>
			<point x="97" y="325.9114800422"/>
			<point x="80" y="342.9114800422"/>
			<point x="80" y="363.9114800422" type="curve" smooth="yes"/>
			<point x="80" y="384.9114800422"/>
			<point x="97" y="400.9114800422"/>
		</contour>
		<contour>
			<point x="684.0812970159" y="363" type="curve" smooth="yes"/>
			<point x="684.0812970159" y="37" type="line" smooth="yes"/>
			<point x="684.0812970159" y="16"/>
			<point x="668.0812970159" y="0"/>
			<point x="647.0812970159" y="0" type="curve" smooth="yes"/>
			<point x="626.0812970159" y="0"/>
			<point x="609.0812970159" y="16"/>
			<point x="609.0812970159" y="37" type="curve" smooth="yes"/>
			<point x="609.0812970159" y="363" type="line" smooth="yes"/>
			<point x="609.0812970159" y="384"/>
			<point x="626.0812970159" y="401"/>
			<point x="647.0812970159" y="401" type="curve" smooth="yes"/>
			<point x="668.0812970159" y="401"/>
			<point x="684.0812970159" y="384"/>
		</contour>
		<contour>
			<point x="684.0812970159" y="363" type="curve" smooth="yes"/>
			<point x="684.0812970159" y="37" type="line" smooth="yes"/>
			<point x="684.0812970159" y="16"/>
			<point x="668.0812970159" y="0"/>
			<point x="647.0812970159" y="0" type="curve" smooth="yes"/>
			<point x="626.0812970159" y="0"/>
			<point x="609.0812970159" y="16"/>
			<point x="609.0812970159" y="37" type="curve" smooth="yes"/>
			<point x="609.0812970159" y="363" type="line" smooth="yes"/>
			<point x="609.0812970159" y="384"/>
			<point x="626.0812970159" y="401"/>
			<point x="647.0812970159" y="401" type="curve" smooth="yes"/>
			<point x="668.0812970159" y="401"/>
			<point x="684.0812970159" y="384"/>
		</contour>
		<contour>
			<point x="685.0812970159" y="362" type="curve" smooth="yes"/>
			<point x="684.0812970159" y="37" type="line" smooth="yes"/>
			<point x="684.0166819372" y="16.0000994076"/>
			<point x="668.0812970159" y="0"/>
			<point x="647.0812970159" y="0" type="curve" smooth="yes"/>
			<point x="626.0812970159" y="0"/>
			<point x="609.0812970159" y="16"/>
			<point x="609.0812970159" y="37" type="curve" smooth="yes"/>
			<point x="609.0812970159" y="363" type="line" smooth="yes"/>
			<point x="609.0812970159" y="384"/>
			<point x="626.0812970159" y="401"/>
			<point x="647.0812970159" y="401" type="curve" smooth="yes"/>
			<point x="668.0812970159" y="401"/>
			<point x="685.1459120947" y="382.9999005924"/>
		</contour>
	</outline>
	<anchor name="new anchor" x="957.0812970159" y="949"/>
</glyph>
<glyph name="macron" format="2">
	<unicode hex="00AF"/>
	<advance width="629"/>
	<outline>
		<contour>
			<point x="85" y="1328" type="curve" smooth="yes"/>
			<point x="85" y="1332"/>
			<point x="95" y="1356"/>
			<point x="103" y="1364" type="curve"/>
			<point x="522" y="1364" type="line"/>
			<point x="530" y="1360"/>
			<point x="544" y="1337"/>
			<point x="544" y="1328" type="curve" smooth="yes"/>
			<point x="544" y="1319"/>
			<point x="529" y="1297"/>
			<point x="522" y="1293" type="curve"/>
			<point x="107" y="1293" type="line"/>
			<point x="99" y="1297"/>
			<point x="85" y="1319"/>
		</contour>
	</outline>
</glyph>
<glyph name="plusminus" format="2">
	<unicode hex="00B1"/>
	<advance width="1020.2719486081"/>
	<outline>
		<contour>
			<point x="148" y="60.9507494647" type="curve" smooth="yes"/>
			<point x="876.0192719486" y="61" type="line" smooth="yes"/>
			<point x="897.0192719007" y="61.0014206509"/>
			<point x="913.0192719486" y="45"/>
			<point x="913.0192719486" y="24" type="curve" smooth="yes"/>
			<point x="913.0192719486" y="3"/>
			<point x="897.0192719007" y="-13.9985793491"/>
			<point x="876.0192719486" y="-14" type="curve" smooth="yes"/>
			<point x="148" y="-14.0492505353" type="line" smooth="yes"/>
			<point x="127.0000000491" y="-14.0506711862"/>
			<point x="110" y="2.9507494647"/>
			<point x="110" y="23.9507494647" type="curve" smooth="yes"/>
			<point x="110" y="44.9507494647"/>
			<point x="127.0000000491" y="60.9493288138"/>
		</contour>
		<contour>
			<point x="148" y="60.9507494647" type="curve" smooth="yes"/>
			<point x="876.0192719486" y="61" type="line" smooth="yes"/>
			<point x="897.0192719007" y="61.0014206509"/>
			<point x="913.0192719486" y="45"/>
			<point x="913.0192719486" y="24" type="curve" smooth="yes"/>
			<point x="913.0192719486" y="3"/>
			<point x="897.0192719007" y="-13.9985793491"/>
			<point x="876.0192719486" y="-14" type="curve" smooth="yes"/>
			<point x="148" y="-14.0492505353" type="line" smooth="yes"/>
			<point x="127.0000000491" y="-14.0506711862"/>
			<point x="110" y="2.9507494647"/>
			<point x="110" y="23.9507494647" type="curve" smooth="yes"/>
			<point x="110" y="44.9507494647"/>
			<point x="127.0000000491" y="60.9493288138"/>
		</contour>
		<contour>
			<point x="148" y="60.9507494647" type="curve" smooth="yes"/>
			<point x="876.0192719486" y="61" type="line" smooth="yes"/>
			<point x="897.0192719007" y="61.0014206509"/>
			<point x="913.0192719486" y="45"/>
			<point x="913.0192719486" y="24" type="curve" smooth="yes"/>
			<point x="913.0192719486" y="3"/>
			<point x="897.0192719007" y="-13.9985793491"/>
			<point x="876.0192719486" y="-14" type="curve" smooth="yes"/>
			<point x="148" y="-14.0492505353" type="line" smooth="yes"/>
			<point x="127.0000000491" y="-14.0506711862"/>
			<point x="110" y="2.9507494647"/>
			<point x="110" y="23.9507494647" type="curve" smooth="yes"/>
			<point x="110" y="44.9507494647"/>
			<point x="127.0000000491" y="60.9493288138"/>
		</contour>
		<component base="plus" xOffset="61.2719486081" yOffset="117.625267666"/>
	</outline>
</glyph>
<glyph name="acute" format="2">
  <advance width="439"/>
  <unicode hex="00B4"/>
  <outline>
    <contour>
      <point x="53.5" y="1012.0" type="curve" smooth="yes"/>
      <point x="58.0" y="1012.0"/>
      <point x="64.0" y="1016.0"/>
      <point x="76.0" y="1027.0" type="curve" smooth="yes"/>
      <point x="394.0" y="1343.0" type="line" smooth="yes"/>
      <point x="397.0" y="1346.0"/>
      <point x="404.0" y="1362.0"/>
      <point x="404.0" y="1367.0" type="curve" smooth="yes"/>
      <point x="404.0" y="1386.0"/>
      <point x="388.0" y="1402.0"/>
      <point x="369.0" y="1402.0" type="curve" smooth="yes"/>
      <point x="364.0" y="1402.0"/>
      <point x="348.0" y="1396.0"/>
      <point x="344.0" y="1392.0" type="curve" smooth="yes"/>
      <point x="57.0" y="1058.0" type="line" smooth="yes"/>
      <point x="44.0" y="1042.0"/>
      <point x="39.07999999999993" y="1029.84"/>
      <point x="39.07999999999993" y="1024.08" type="curve" smooth="yes"/>
      <point x="39.07999999999993" y="1017.371"/>
      <point x="51.72000000000003" y="1012.0"/>
    </contour>
  </outline>
</glyph>
<glyph name="uni00B5" format="2">
	<unicode hex="00B5"/>
	<advance width="1089"/>
	<outline>
		<contour>
			<point x="969" y="29" type="line"/>
			<point x="969" y="28" type="line" smooth="yes"/>
			<point x="969" y="4"/>
			<point x="950" y="-8"/>
			<point x="931" y="-8" type="curve" smooth="yes"/>
			<point x="912" y="-8"/>
			<point x="894" y="4"/>
			<point x="894" y="28" type="curve" smooth="yes"/>
			<point x="894" y="256" type="line"/>
			<point x="815" y="101"/>
			<point x="683" y="-10"/>
			<point x="517" y="-10" type="curve" smooth="yes"/>
			<point x="241" y="-10"/>
			<point x="120" y="205"/>
			<point x="120" y="477" type="curve" smooth="yes"/>
			<point x="120" y="977" type="line" smooth="yes"/>
			<point x="120" y="1001"/>
			<point x="138" y="1013"/>
			<point x="157" y="1013" type="curve" smooth="yes"/>
			<point x="176" y="1013"/>
			<point x="195" y="1001"/>
			<point x="195" y="977" type="curve" smooth="yes"/>
			<point x="195" y="477" type="line" smooth="yes"/>
			<point x="195" y="248"/>
			<point x="284" y="66"/>
			<point x="512" y="66" type="curve" smooth="yes"/>
			<point x="723" y="66"/>
			<point x="894" y="274"/>
			<point x="894" y="475" type="curve" smooth="yes"/>
			<point x="892" y="979" type="line" smooth="yes"/>
			<point x="892" y="1003"/>
			<point x="911" y="1016"/>
			<point x="930" y="1016" type="curve" smooth="yes"/>
			<point x="949" y="1016"/>
			<point x="967" y="1003"/>
			<point x="967" y="979" type="curve" smooth="yes"/>
		</contour>
		<contour>
			<point x="195" y="254" type="move" smooth="yes"/>
			<point x="197" y="-392" type="line" smooth="yes"/>
			<point x="197.0743030495" y="-415.999884979"/>
			<point x="178" y="-429"/>
			<point x="159" y="-429" type="curve" smooth="yes"/>
			<point x="140" y="-429"/>
			<point x="122.0439559702" y="-415.9999597507"/>
			<point x="122" y="-392" type="curve" smooth="yes"/>
			<point x="120" y="700" type="line"/>
			<point x="120" y="701" type="line" smooth="yes"/>
			<point x="120" y="725"/>
			<point x="139" y="737"/>
			<point x="158" y="737" type="curve" smooth="yes"/>
			<point x="177" y="737"/>
			<point x="195" y="725"/>
			<point x="195" y="701" type="curve" smooth="yes"/>
			<point x="195" y="473" type="line"/>
		</contour>
	</outline>
</glyph>
<glyph name="paragraph" format="2">
	<unicode hex="00B6"/>
	<advance width="1007"/>
	<outline>
		<contour>
			<point x="840" y="1211" type="curve" smooth="yes"/>
			<point x="756" y="1211" type="line"/>
			<point x="756" y="22" type="line" smooth="yes"/>
			<point x="756" y="7"/>
			<point x="748" y="-5"/>
			<point x="725" y="-5" type="curve" smooth="yes"/>
			<point x="700" y="-5"/>
			<point x="691" y="10"/>
			<point x="691" y="22" type="curve" smooth="yes"/>
			<point x="691" y="1211" type="line"/>
			<point x="394" y="1211" type="line"/>
			<point x="394" y="22" type="line" smooth="yes"/>
			<point x="394" y="7"/>
			<point x="387" y="-5"/>
			<point x="364" y="-5" type="curve" smooth="yes"/>
			<point x="341" y="-5"/>
			<point x="331" y="10"/>
			<point x="331" y="22" type="curve" smooth="yes"/>
			<point x="331" y="789" type="line"/>
			<point x="306" y="797" type="line" smooth="yes"/>
			<point x="205" y="826"/>
			<point x="135" y="918"/>
			<point x="135" y="1027" type="curve" smooth="yes"/>
			<point x="135" y="1156"/>
			<point x="246" y="1268"/>
			<point x="378" y="1268" type="curve" smooth="yes"/>
			<point x="840" y="1268" type="line" smooth="yes"/>
			<point x="863" y="1268"/>
			<point x="872" y="1259"/>
			<point x="872" y="1238" type="curve" smooth="yes"/>
			<point x="872" y="1219"/>
			<point x="866" y="1211"/>
		</contour>
	</outline>
</glyph>
<glyph name="cedilla" format="2">
	<unicode hex="00B8"/>
	<advance width="652"/>
	<outline>
		<contour>
			<point x="537" y="-468" type="curve" smooth="yes"/>
			<point x="537" y="-345"/>
			<point x="431" y="-262"/>
			<point x="315" y="-262" type="curve" smooth="yes"/>
			<point x="263" y="-262"/>
			<point x="214" y="-279"/>
			<point x="176" y="-308" type="curve"/>
			<point x="171" y="-311"/>
			<point x="157" y="-316"/>
			<point x="153" y="-316" type="curve" smooth="yes"/>
			<point x="131" y="-316"/>
			<point x="113" y="-298"/>
			<point x="113" y="-276" type="curve" smooth="yes"/>
			<point x="113" y="-273"/>
			<point x="118" y="-256"/>
			<point x="118" y="-256" type="curve"/>
			<point x="281" y="-7" type="line" smooth="yes"/>
			<point x="287" y="2"/>
			<point x="305" y="12"/>
			<point x="315" y="12" type="curve" smooth="yes"/>
			<point x="337" y="12"/>
			<point x="355" y="-6"/>
			<point x="355" y="-28" type="curve" smooth="yes"/>
			<point x="355" y="-33"/>
			<point x="351" y="-48"/>
			<point x="349" y="-51" type="curve" smooth="yes"/>
			<point x="263" y="-180" type="line"/>
			<point x="326" y="-182" type="line" smooth="yes"/>
			<point x="441" y="-186"/>
			<point x="534" y="-252"/>
			<point x="580" y="-331" type="curve" smooth="yes"/>
			<point x="604" y="-372"/>
			<point x="617" y="-419"/>
			<point x="617" y="-468" type="curve" smooth="yes"/>
			<point x="617" y="-606"/>
			<point x="515" y="-706"/>
			<point x="403" y="-741" type="curve" smooth="yes"/>
			<point x="370" y="-751"/>
			<point x="336" y="-756"/>
			<point x="303" y="-756" type="curve" smooth="yes"/>
			<point x="186" y="-756"/>
			<point x="106" y="-705"/>
			<point x="46" y="-637" type="curve" smooth="yes"/>
			<point x="41" y="-631"/>
			<point x="35" y="-615"/>
			<point x="35" y="-611" type="curve" smooth="yes"/>
			<point x="35" y="-589"/>
			<point x="53" y="-571"/>
			<point x="75" y="-571" type="curve" smooth="yes"/>
			<point x="82" y="-571"/>
			<point x="102" y="-580"/>
			<point x="106" y="-585" type="curve" smooth="yes"/>
			<point x="151" y="-637"/>
			<point x="215" y="-676"/>
			<point x="303" y="-676" type="curve" smooth="yes"/>
			<point x="423" y="-676"/>
			<point x="537" y="-594"/>
		</contour>
	</outline>
</glyph>
